<svg id="Layer_1" enable-background="new 0 0 512 512" height="512" viewBox="0 0 512 512" width="512" xmlns="http://www.w3.org/2000/svg"><path d="m173.5 393.7-36.6-21.1c-2.4-1.4-5.4-1.4-7.8-.1-6.4 3.5-13.6 6.2-21.4 8-2.9.7-5.2 2.9-6 5.8l-8.7 33.6-9-33.7c-.8-2.8-3-5-5.9-5.7-7.8-1.9-14.7-4.5-21-7.9-2.4-1.3-5.4-1.3-7.8.1l-36.6 21.1c-7.9 4.5-12.7 12.8-12.7 22v70.6c0 14.1 11.5 25.6 25.6 25.6h135.2c6.8 0 13.2-2.7 18.1-7.5 4.8-4.8 7.5-11.2 7.5-18.1v-70.6c-.1-9.2-4.9-17.5-12.9-22.1zm-3.2 92.7c0 2.5-1 4.9-2.8 6.7s-4.2 2.8-6.7 2.8h-135.2c-5.3 0-9.6-4.3-9.6-9.6v-70.6c0-3.6 1.7-6.5 4.8-8.3l32.8-18.9c5.1 2.5 10.4 4.5 16.2 6.1l15.6 58.6c.9 3.5 4.1 5.9 7.7 5.9 3.6 0 6.8-2.5 7.7-6l15.2-58.5c5.8-1.6 11.4-3.7 16.6-6.2l32.8 18.9c3.1 1.8 4.8 4.7 4.8 8.3zm-77.2-106.8c26.9 0 48.8-21.9 48.8-48.8s-21.9-48.8-48.8-48.8-48.8 21.9-48.8 48.8 21.9 48.8 48.8 48.8zm0-81.6c18.1 0 32.8 14.7 32.8 32.8s-14.7 32.8-32.8 32.8-32.8-14.7-32.8-32.8 14.7-32.8 32.8-32.8zm406.1 95.7-36.6-21.1c-2.4-1.4-5.4-1.4-7.8-.1-6.4 3.5-13.6 6.2-21.4 8-2.9.7-5.2 2.9-6 5.8l-8.7 33.6-9-33.7c-.8-2.8-3-5-5.9-5.7-7.8-1.9-14.7-4.5-21-7.9-2.4-1.3-5.4-1.3-7.8.1l-36.6 21.1c-8 4.6-12.8 12.9-12.8 22.1v70.6c0 14.1 11.5 25.6 25.6 25.6h135.2c14.1 0 25.6-11.5 25.6-25.6v-70.6c0-9.3-4.8-17.6-12.8-22.2zm-3.2 92.7c0 5.3-4.3 9.6-9.6 9.6h-135.1c-5.3 0-9.6-4.3-9.6-9.6v-70.6c0-3.6 1.7-6.5 4.8-8.3l32.8-18.9c5.1 2.5 10.4 4.5 16.2 6.1l15.6 58.6c.9 3.5 4.1 5.9 7.7 5.9 3.6 0 6.8-2.5 7.7-6l15.2-58.5c5.8-1.6 11.4-3.7 16.6-6.2l32.8 18.9c3.1 1.8 4.8 4.7 4.8 8.3v70.7zm-125.9-155.6c0 26.9 21.9 48.8 48.8 48.8s48.8-21.9 48.8-48.8-21.9-48.8-48.8-48.8-48.8 21.9-48.8 48.8zm81.6 0c0 18.1-14.7 32.8-32.8 32.8s-32.8-14.7-32.8-32.8 14.7-32.8 32.8-32.8 32.8 14.7 32.8 32.8zm-102.6-126.4v-70.6c0-9.2-4.8-17.5-12.8-22.1l-36.6-21.1c-2.4-1.4-5.4-1.4-7.8-.1-6.4 3.5-13.6 6.2-21.4 8-2.9.7-5.2 2.9-6 5.8l-8.7 33.6-9-33.7c-.8-2.8-3-5-5.9-5.7-7.8-1.9-14.7-4.5-21-7.9-2.4-1.3-5.4-1.3-7.8.1l-36.6 21.1c-8 4.6-12.8 12.9-12.8 22.1v70.6c0 14.1 11.5 25.6 25.6 25.6h135.2c14.2-.1 25.6-11.6 25.6-25.7zm-16 0c0 5.3-4.3 9.6-9.6 9.6h-135.1c-5.3 0-9.6-4.3-9.6-9.6v-70.6c0-3.6 1.7-6.5 4.8-8.3l32.8-18.9c5.1 2.5 10.4 4.5 16.2 6.1l15.6 58.6c.9 3.5 4.1 5.9 7.8 5.9 3.6 0 6.8-2.5 7.7-6l15.2-58.5c5.8-1.6 11.4-3.7 16.6-6.2l32.8 18.9c3.1 1.8 4.8 4.7 4.8 8.3zm-77.1-106.8c26.9 0 48.8-21.9 48.8-48.8s-21.9-48.8-48.8-48.8-48.8 21.9-48.8 48.8 21.9 48.8 48.8 48.8zm0-81.6c18.1 0 32.8 14.7 32.8 32.8s-14.7 32.8-32.8 32.8-32.8-14.7-32.8-32.8 14.7-32.8 32.8-32.8zm58.4 41.7c1.5-4.1 6.1-6.3 10.3-4.7 37.8 13.9 70.2 38.7 93.6 71.7 23.9 33.7 36.6 73.5 36.6 115 0 2 0 4-.1 6.1l10.2-11.5c2.9-3.3 8-3.6 11.3-.6 3.3 2.9 3.6 8 .6 11.3l-26.4 29.5c-1.5 1.7-3.7 2.7-6 2.7-.2 0-.4 0-.7 0-2.5-.2-4.8-1.6-6.1-3.7l-21.1-33.5c-2.4-3.7-1.2-8.7 2.5-11 3.7-2.4 8.7-1.2 11 2.5l8.5 13.4c0-1.7.1-3.4.1-5.1 0-76.3-48.1-145.3-119.7-171.6-4-1.7-6.2-6.3-4.6-10.5zm-254.9 212.6c-1.6-10.1-2.3-20.4-2.3-30.6 0-40.2 11.9-78.9 34.5-111.9 18.2-26.7 42.4-48.4 70.6-63.5l-12.5-2c-4.4-.7-7.3-4.8-6.7-9.1.7-4.4 4.8-7.4 9.1-6.7l39.1 6.1c2.5.4 4.6 1.9 5.8 4.1s1.3 4.9.2 7.1l-16.7 35.9c-1.4 2.9-4.2 4.6-7.3 4.6-1.1 0-2.3-.2-3.4-.7-4-1.9-5.7-6.6-3.9-10.6l7.8-16.8c-61.5 30.8-100.6 93.6-100.6 163.4 0 9.4.7 18.9 2.2 28.2.7 4.4-2.3 8.5-6.7 9.1-.4.1-.8.1-1.2.1-3.9 0-7.4-2.8-8-6.7zm255.9 150.9c1.2 4.3-1.3 8.7-5.5 9.9-17.4 4.9-35.6 7.4-53.8 7.4-12.3 0-24.6-1.1-36.7-3.4l9.6 12.3c2.7 3.5 2.1 8.5-1.4 11.2-1.5 1.1-3.2 1.7-4.9 1.7-2.4 0-4.7-1.1-6.3-3.1l-24.4-31.2c-1.5-2-2.1-4.6-1.4-7s2.4-4.4 4.7-5.3l36.7-14.8c4.1-1.7 8.8.3 10.4 4.4 1.7 4.1-.3 8.8-4.4 10.4l-14.4 5.8c10.7 1.9 21.6 2.9 32.5 2.9 16.8 0 33.5-2.3 49.5-6.8 4.2-1.1 8.6 1.3 9.8 5.6z"/></svg>