<svg id="svg8" height="512" viewBox="0 0 16.933333 16.933334" width="512" xmlns="http://www.w3.org/2000/svg" xmlns:svg="http://www.w3.org/2000/svg"><g id="layer1"><path id="path7988" d="m8.4685729.52892655c-.1322901 0-.26459.0882-.26459.26459v.26457995c0 .35284.52919.35284.52919 0v-.26457995c0-.17643-.1322999-.26459-.2646-.26459zm-1.60151.51677005c.0006879.0716.0303.1397999.0822.1891299l.26356.2656201c.2497099.2610699.6359399-.1246101.3751798-.3746501l-.2656199-.26406999c-.062-.0644-.1418101-.0881-.217065-.0801-.1254249.0134-.2385251.11506008-.2382549.26407007zm2.7389601-.17675004-.2635602.26405994c-.0492.0478-.0779.11284-.0801.18139-.007.2405.28453.36485.4532202.19327l.2656199-.26562c.1942301-.18755.026-.45020984-.1751901-.45990994-.0671-.00299-.1378199.02171-.1999898.08681zm-7.2194903.45218004c-.2414912-.0061864-.3643187.2878492-.19018.4552699l.0749.0755-.0785.0786c-.2522992.2501074.125059.6274556.37518.37517l.0775-.078.078.078c.250123.2508974.6260944-.1250538.3751901-.37517l-.0785-.0786.0749-.0755c.1745552-.1677674.0507946-.4624405-.1912101-.4552699-.068742.00205-.1339861.030777-.1819099.0801l-.0765.0765-.076-.0765c-.047924-.049323-.1131681-.078052-.18191-.0801-.0003333-.0000006-.0006667-.0000006-.001 0zm11.6426493 0c-.241486-.00618-.364305.2878526-.19017.4552699l.0749.0755-.0786.0786c-.247962.2501074.125059.6231181.37518.37517l.0775-.078.078.078c.250123.2492958.624493-.1250539.37519-.37517l-.0786-.0786.0749-.0755c.174551-.167764.0508-.4624308-.1912-.4552699-.06874.00205-.133986.030777-.18191.0801l-.0765.0765-.076-.0765c-.04792-.049323-.113168-.078052-.18191-.0801-.000333-.0000006-.000667-.0000006-.001 0zm-9.2664692 1.05982c0 .2122.0597.40675.1679501.57309-.4301501.3627101-.6981701.9218001-.6981701 1.5440901 0 .0787-.00001.2609097 0 .2645899.0008732.4354199.3518901.7942601.7937799.7942601h.7937802.7937799c.10569 0 .2054101-.021701.2971501-.0589.0911.3363799.39409.5880798.7632999.5880798h.7937799.7937802c.3688001 0 .67129-.25122.7627801-.58704.091.0365.18985.0579.29456.0579h.793779.79379c.44189 0 .7929-.3588401.79378-.7942699v-.2645801c0-.6222899-.26802-1.18139-.69818-1.5441.10825-.16634.16796-.36089.16796-.5730901 0-.58108-.46763-1.0572499-1.05735-1.0578099-.589709.0005612-1.057339.4767303-1.057339 1.0578103 0 .2122.0597.40675.16796.57309-.25814.21767-.4561901.5068301-.57467.8371601-.0858-.1135902-.18356-.21701-.29146-.3079901.10824-.1663399.1679498-.36089.1679498-.57309 0-.58108-.4676298-1.05725-1.0573401-1.05782-.58972.0005688-1.0573398.47674-1.0573398 1.05782 0 .2122.0597.4067501.1679498.57309-.1087699.0917-.2066898.19642-.2930199.3110899-.1183299-.3317002-.3172198-.6218701-.5762099-.8402601.10824-.1663401.1679498-.3608901.1679498-.5730901 0-.58108-.4676198-1.05725-1.0573398-1.0578299-.58972.0005488-1.0573401.47672-1.0573401 1.0578zm1.0573401-.5286501c.29082.0005609.5281599.2335401.5281599.5286501s-.2342499.52913-.5281599.52968c-.29391-.0005503-.5281501-.23457-.5281501-.52968s.2373299-.52809.5281501-.5286501zm5.2929091 0c.29082.0005609.52816.2335401.52816.5286501s-.23425.52913-.52816.52968c-.2939-.0005503-.52815-.23457-.52815-.52968s.23734-.52809.52815-.5286501zm-2.6448993.52917c.2908202.000561.5281502.23354.5281502.52865 0 .2951101-.2342499.5291201-.5281502.5296802-.2939097-.0005556-.5281599-.2345701-.5281599-.5296802 0-.29511.23734-.52809.5281599-.52865zm-3.14257.93534c.1461802.0767.3173902.12281.4945602.1229902.17717-.0001802.3483798-.0463.49456-.1229902.34041.2572199.5638199.68967.5638199 1.1813201v.2635499c0 .15118-.1196499.2661401-.2646.2661401h-.7937799-.7937802c-.1449498 0-.2646-.1149601-.2646-.2661401v-.2635499c0-.4916501.22341-.9241002.56382-1.1813201zm5.2929093 0c.14619.0767.31739.12281.49456.1229902.17717-.0001802.34838-.0463.49457-.1229902.34041.2572199.56381.68967.56381 1.1813201v.2635499c0 .15118-.11964.2661401-.26459.2661401h-.79379-.793779c-.14495 0-.26459-.1149601-.26459-.2661401v-.2635499c0-.4916501.2234-.9241002.563809-1.1813201zm5.4055.1503992-1.6289.8004699c-.126815.061894-.182749.2124046-.12713.3420901l.26976.62684-.72453.9529098c-.160122.212456.05819.5018116.30645.4061802l2.00409-.77928c.126572-.048778.195762-.1853611.16021-.3162602l-.2248-.8319899.32815-.87127c.0638-.169688-.05807-.3518303-.252435-.3573449-.04719.003-.08037.012305-.110865.027655zm-15.47712928.3296708.32610002.87127-.22222002.83199c-.0357999.1303326.0323814.2666952.15813.3162602l2.00565008.7792799c.2485337.0965859.4677372-.1934622.3069699-.4061799l-.72505-.9529101.26976-.62684c.0556186-.1296855-.0003153-.2801963-.12713-.3420901l-1.62890997-.8004699c-.0392814-.019481-.0827883-.028897-.12661-.02739-.17978685.0076-.29972784.188543-.23669001.3570804zm7.42672028.0491c.1461899.0767.3174.12281.4945697.1229899.1771701-.0001799.3483703-.0463.4945603-.1229899.34041.2572199.5638099.68967.5638099 1.1813201v.2635499c0 .15118-.1196401.2661301-.26459.2661301h-.7937802-.7937799c-.1449599 0-.2646-.1149501-.2646-.2661301v-.2635498c0-.4916501.2234002-.9241002.5638102-1.1813201zm-6.6980503.3885999.80464.3963601-.23049.5389901c-.037707.087286-.025682.188092.0315.26406l.24961.32815-.90799-.3534701.18346-.6836799c.014414-.053587.011615-.1103503-.008-.1622602zm14.3831693 0-.123.32815c-.01961.05191-.02241.1086727-.008.1622602l.18398.6836799-.90851.3534701.25012-.32815c.05701-.076062.06885-.1768615.031-.26406l-.23044-.53899zm-9.0442593 3.1750004v.0455c-.2771899-.1018801-.5763098-.0399-.7942998.1529599-.1387602-.1254-.3238902-.19843-.5271201-.19843-.2048801 0-.3890899.0748-.5297101.20154-.14004-.12684-.32369-.20154-.5286698-.20154-.2051402 0-.3895402.075-.5302203.2020501-.1401098-.1271201-.3239399-.2020501-.5291899-.2020501-.20487 0-.3890799.0748-.5297.20154-.14005-.12684-.32369-.20154-.52867-.20154-.44105 0-.79533.3595999-.79533.79478v1.227323c-.0619.1006599-.1263199.2086001-.1922499.3245199-.20718008.3643104-.59999008 1.0986004-.59999008 1.6210904 0 .88769.37415002 1.46856.71677998 1.9141.1713201.22277.33346.41278.44341.57774.0393.0589.0688.11247.0935.16381-.11468.0314-.19438.13536-.19482.25425v1.851568c-.0005609.146928.11869.266177.26562.265617h13.2291893c.14612-.000582.26412-.119497.26356-.265617v-1.851568c-.000661-.14062-.10812-.26029-.25581-.26303.027-.26067.12399-.46918.24031-.78962.13732-.3783.28113-.88791.28113-1.711.001-1.10842-.002-2.2131903-.002-3.3202133-.000009-.4351902-.351709-.7947901-.79275-.7947901-.20488 0-.38909.0748-.52971.20154-.14005-.1268299-.32369-.20154-.52867-.20154-.20488 0-.38909.0748-.52971.20154-.14004-.1268299-.323689-.20154-.52867-.20154-.20487 0-.38908.0759-.5297.2025801-.14005-.12684-.32369-.2025801-.52867-.2025801-.0933 0-.18158.014901-.2646.0444v-.0434c0-.4351801-.3517-.79478-.79275-.79478-.204869 0-.391149.0759-.531769.20257-.1400099-.1268301-.32159-.20257-.5265699-.20257-.20487 0-.3911502.0759-.5317701.20257-.14004-.1268301-.3216199-.20257-.5266-.20257-.2048801 0-.39116.0759-.5317699.20257-.14005-.1268301-.3216302-.20257-.5266452-.2025649-.4410751.000005-.7953652.359605-.7953652.7947851zm.7953301-.2656102c.1433301 0 .26215.1139801.2630501.2651v1.3213631c-.0008996.1511099-.11972.26562-.2630501.26562-.1438701-.0000202-.26563-.11547-.26563-.26665v-1.3198229c0-.1511801.1217599-.2656102.26563-.2656102zm1.0583799 0c.1433301 0 .2621402.1139801.2630401.2651v1.3213631c-.0008996.1511099-.11971.26562-.2630401.26562-.1438799-.0000202-.2656297-.11547-.2656297-.26665v-1.3198229c0-.1511801.1217498-.2656102.2656297-.2656102zm1.0583702 0c.1433401 0 .2621499.1139801.26305.2651v1.3213631c-.0008996.1511099-.1197099.26562-.26305.26562-.1438701-.0000202-.26562-.11547-.26562-.26665v-1.3198229c0-.1511801.1217499-.2656102.26562-.2656102zm1.3219391.2656102c.000715.4435199-.002.8847597-.002 1.3275728-.004.1470501-.12078.25786-.26201.25786-.143849.00001-.265619-.1144299-.265619-.2656099v-1.3198229c0-.1511801.12176-.2656102.265849-.2656102.1441 0 .26378.1144301.26378.2656102zm-4.3735691.5586c.0611.0353.0888.0767.1038702.1436601.0151.067.007.1667999-.0279.2676898l-.4594302 1.316193c-.042.11993.006.2557097.11576.3193603 0 0 .74085.43224.9359 1.16014.0868.34628.60662.20925.5116201-.13488-.2002102-.74716-.7937802-1.2087806-.9963603-1.3590904l.1493502-.42994c.1448699.1700501.35991.27388.6020498.27388.2049801 0 .3886301-.0747.5286701-.20154.1406199.1267301.32483.20154.5297101.20154.2049798 0 .38862-.0747.52867-.20154.14062.1267301.3248301.20154.5297001.20154.2049799 0 .3886298-.0747.52868-.20154.14061.1267301.324819.20154.529699.20154.0925 0 .17978-.014899.26201-.0439.002.3666198.001.7352704.001 1.1027804 0 .7644-.12126 1.18032-.24806 1.52962-.10066.27731-.21709.53125-.26149.85163h-4.0376091c-.0443-.16354-.12143-.31362-.2124001-.45011-.13803-.2071-.30578-.39847-.4650999-.60564-.3055102-.39726-.60568-.88159-.60568-1.59164 0-.27125.2121498-.8060205.53178-1.3596005.27833-.482083.55451-.876953.55451-.876953.0674-.1061799.17471-.1557801.27494-.1446998.03341.004.06611.0142.09611.0315zm-4.0934402.23513v.2625201c-.19348.00201-.38079.074-.52867.20774v-.4692247c0-.15118.12175-.26665.26563-.2666527.14333-.0000027.26215.1145074.26304.2656173zm1.05838.00103-.00101 1.3198231c0 .1511801-.1196901.26561-.2635602.26561-.0492 0-.0943-.010901-.1343699-.0346l.04911-.1457255c.0612-.1760402.0853-.3679801.0429-.5565502-.0329-.1466498-.10705-.28208-.22222-.387063v-.4614744c0-.15118.12175-.2666503.2656101-.2666602.1438502-.0000098.26354.1154602.26354.2666402zm1.05786-.0005099v1.3213585c-.0008996.1510898-.1197099.2645799-.2630498.2645799-.1438701 0-.2656203-.1144299-.2656203-.26561v-1.3198131c0-.15118.1217502-.26665.2656203-.2666527.1433399-.0000027.2621499.1150172.2630498.2661374zm7.4075993-.00104v1.3213731c-.000899.1511099-.11971.26561-.26305.26561-.14211 0-.26166-.1130501-.26459-.2614801v-1.330153c.003-.1484199.12248-.26044.26459-.260445.14334-.000005.26215.1139849.26305.265095zm1.05837 0v1.3213731c-.000899.1511099-.11971.26561-.26304.26561-.14388 0-.26563-.11547-.26563-.26665v-1.3198178c0-.1511801.12175-.26561.26563-.2656127.14333-.0000027.26215.1139872.26304.2650973zm1.05838 0v1.3213731c-.000899.1511099-.11971.26561-.26304.26561-.14388 0-.26563-.11547-.26563-.26665v-1.3198178c0-.1511801.12175-.26561.26563-.2656127.14333-.0000027.26214.1139872.26304.2650973zm1.05889.00052v1.3198131c0 .15118-.11968.26665-.26356.26665-.14387 0-.26563-.11547-.26563-.26665v-1.3198178c0-.1511801.12176-.26561.26563-.2656127.14388-.0000027.26356.1144372.26356.2656173zm-9.5837792-.16901c-.1086699.16394-.25303.3950502-.3999899.6495801-.017399.0306-.0501.0895-.0698.125063v-.6046324c0-.15117.11298-.2656102.2656449-.2656105.081715-.0000003.155535.0361.204145.0956zm-2.9813601.9932035c.0521.0301.0868.0756.1018.14263.015.067.007.1667902-.0279.26768l-.45891 1.3203306c-.042.11993.007.25261.11731.31626 0 0 .7408501.43224.9359001 1.16014.0868.34628.60662.20925.51162-.13488-.2002099-.74717-.7937801-1.20879-.9963701-1.35909l.16589-.48214c.0946.0406.20027.0605.3100701.0605.20525 0 .3890798-.0729.5291899-.19999.1406801.12701.3250801.19999.53022.19999.091 0 .1757802-.0132.2568501-.0413-.0005821.0148-.00101.0258-.00101.0403 0 .88768.3720701 1.46856.7147102 1.91409.1713199.22277.3334499.41278.4433999.57775.0401.0601.0701.11465.0951.16691-.11068.0342-.1862699.13635-.1865601.25218v.794779h-3.2159501c-.0444-.16311-.12112-.31289-.21188-.44907-.13804-.20711-.30578-.39847-.46511-.60565-.3055-.39726-.6051499-.87136-.6051499-1.59164 0-.27125.2040999-.79299.5312499-1.3596.27834-.4820804.55451-.8769504.55451-.8769504.0674-.1061799.16746-.1565798.274925-.1447096.033395.00398.066095.01418.096095.03148zm10.1848293 1.2914106c.20498 0 .38862-.0747.52867-.20153.14062.12672.32483.20153.52971.20153.20498 0 .38862-.0747.52867-.20153.14061.12672.32482.20153.5297.20153.0938 0 .1824-.0141.26563-.0439v1.24851c0 .752-.12333 1.18032-.25013 1.52962-.11283.31086-.24594.59151-.27389.97048h-3.44489v-.79478c-.000741-.13597-.10442-.24924-.23979-.262.0399-.21041.12291-.39963.2217-.67179.0887-.24435.18252-.54942.23617-.9524.22127.19895.47875.49735.58449.89193.0868.34633.60666.20928.51161-.13487-.20131-.75127-.7983-1.22572-1.05321-1.40043.000688-.0388.003-.075.003-.11524v-.30954c.083.0295.171279.0444.2646.0444.204979 0 .38862-.0747.52846-.20153.14041.12673.32462.20154.5295.20154zm-6.6143392 3.175509h4.4980992v2.380733h-4.4980992zm-3.9637401 1.058333h3.4345602v1.3224h-3.4397302v-1.321366c.002-.000006.003-.001.005-.001zm8.9915493 0h3.70276v1.3224h-3.70276z" font-variant-ligatures="normal" font-variant-position="normal" font-variant-caps="normal" font-variant-numeric="normal" font-variant-alternates="normal" font-feature-settings="normal" text-indent="0" text-align="start" text-decoration-line="none" text-decoration-style="solid" text-decoration-color="rgb(0,0,0)" text-transform="none" text-orientation="mixed" white-space="normal" shape-padding="0" isolation="auto" mix-blend-mode="normal" solid-color="rgb(0,0,0)" solid-opacity="1" vector-effect="none" paint-order="stroke fill markers"/></g></svg>