<svg id="Layer_1" height="512" viewBox="0 0 66 66" width="512" xmlns="http://www.w3.org/2000/svg"><g><path d="m61.9 17c-1.3.1-2.5 1.2-2.5 2.9-.1 1.1-1.2 14.8-3.5 19l-1.8 3.4c-.3.6-.9.4-1.1.4-.2-.1-.7-.4-.5-1l2.5-7.5c.6-1.9-.5-3.8-2.3-4.3-1.7-.4-3.5.5-4 2.2-1.3 3.6-2.1 8.7-6.5 15.4-1 1.8-2.7 3.2-2.7 6.2v1.9h-1.1c-.6 0-1 .4-1 1v5.5c0 .6.4 1 1 1h17.3c.6 0 1-.4 1-1v-5.5c0-.6-.4-1-1-1h-.6c.7-2.2 1.7-3.6 3.2-5.5 3.1-3.9 2.3-4.2 5-9.9 2-4.7 1.4-20 1.4-20.8 0-1.8-1.5-2.5-2.8-2.4zm-7 44.1h-15.4v-3.5h15.3v3.5zm6.8-21.7c-2.7 5.9-1.9 5.9-4.7 9.5-1.8 2.3-2.9 3.9-3.7 6.7h-11.7v-1.9c0-2.3 1.4-3.4 2.4-5.2 4.4-6.8 5.4-12.2 6.7-15.8.2-.7.9-1.1 1.6-.9s1.2 1 .9 1.7l-2.5 7.5c-.5 1.6.4 3 1.6 3.5s2.8.2 3.6-1.3l1.8-3.4c2.3-4.4 3.8-19.1 3.7-20 0-.7.5-.8.7-.8.1 0 .8 0 .8.5.1.2.6 15.5-1.2 19.9z"/><path d="m10.7 55.5h-.6c-.6 0-1 .4-1 1v5.5c0 .6.4 1 1 1h17.3c.6 0 1-.4 1-1v-5.5c0-.6-.4-1-1-1h-1.1v-1.9c0-2.3-1-3.7-1.9-5-.3-.4-.6-.8-.9-1.3-4.3-6.6-5.1-11.7-6.4-15.3-.5-1.7-2.3-2.7-4-2.2-.9.2-1.7.8-2.1 1.6s-.5 1.7-.2 2.6l2.5 7.5c.2.5-.1 1-.6 1.1s-.8-.1-1-.4l-1.8-3.4c-2.3-4.2-3.4-18-3.5-19 .1-1.7-1.2-2.7-2.5-2.9-1.3-.1-2.8.6-3 2.5-.2 12.3 0 22.3 6.9 31 1.1 1.5 2.2 2.9 2.9 5.1zm15.8 2v3.5h-15.3v-3.5zm-23.4-37.8c.1-.7.7-.7.8-.7.2 0 .7.1.7.8v.1c0 .6 1.2 15.1 3.7 19.9l1.8 3.4c.6 1.2 1.9 1.7 3.2 1.4 1.6-.4 2.5-2.1 2-3.7l-2.5-7.5c-.2-.7.2-1.5.9-1.7s1.4.2 1.6.9c1.3 3.6 2.2 8.9 6.6 15.7.3.5.6 1 .9 1.4.8 1.2 1.5 2.2 1.5 3.8v1.9h-11.5c-.8-2.9-2.2-4.7-3.5-6.4-8.2-10.3-5.9-23.3-6.2-29.3z"/><path d="m48.1 18.9c-.3-.8-1-1.3-1.8-1.3l-8.7.1-2.7-8.3c-.3-.8-1-1.3-1.8-1.3s-1.6.5-1.8 1.3l-2.6 8.3h-8.8c-.8 0-1.6.5-1.8 1.3-.3.8 0 1.6.7 2.1l7.1 5.1-2.7 8.3c-.3.8 0 1.6.7 2.1s1.6.5 2.3 0l7-5.1 7.1 5.1c.7.5 1.6.5 2.3 0s1-1.3.7-2.1l-2.7-8.2 7.1-5.1c.4-.7.7-1.5.4-2.3zm-8.9 5.7c-.7.5-1 1.4-.7 2.1l2.6 8.1-6.9-5c-.3-.2-.7-.4-1.1-.4s-.8.1-1.1.4l-6.9 5 2.6-8.1c.3-.8 0-1.7-.7-2.1l-6.9-5h8.5c.8 0 1.6-.5 1.8-1.3l2.6-8.1 2.6 8.1c.3.8 1 1.3 1.8 1.3h8.6z"/><path d="m7.5 18.1c.5.4 1.2.4 1.7 0l3.2-2.3 3.2 2.3c.5.4 1.2.4 1.7 0s.7-1 .5-1.6l-1.2-3.8 3.2-2.3c.5-.4.7-1 .5-1.6s-.8-1-1.4-1h-4l-1.2-3.8c-.2-.6-.8-1-1.4-1s-1.2.4-1.4 1l-1.1 3.7h-4c-.6 0-1.2.4-1.4 1s0 1.3.6 1.7l3.2 2.3-1.2 3.8c-.3.6 0 1.2.5 1.6zm0-8.4h2.7c.6 0 1.2-.4 1.4-1l.8-2.6.8 2.6c.2.6.8 1 1.4 1h2.7l-2.2 1.6c-.5.4-.7 1-.5 1.6l.8 2.6-2.2-1.6c-.5-.4-1.2-.4-1.7 0l-2.2 1.6.8-2.6c.2-.6 0-1.3-.5-1.6z"/><path d="m61.8 8.7c-.2-.6-.8-1-1.4-1h-4l-1.2-3.8c-.2-.6-.8-1-1.4-1-.6 0-1.2.4-1.4 1l-1.2 3.8h-4c-.6 0-1.2.4-1.4 1s0 1.3.5 1.6l3.2 2.3-1.2 3.8c-.2.6 0 1.3.5 1.6.5.4 1.2.4 1.7 0l3.2-2.3 3.2 2.3c.5.4 1.2.4 1.7 0s.7-1 .5-1.6l-1.2-3.8 3.2-2.3c.7-.3.9-1 .7-1.6zm-5.2 2.6c-.5.4-.7 1-.5 1.6l.8 2.6-2.2-1.6c-.5-.4-1.2-.4-1.7 0l-2.2 1.6.8-2.6c.2-.6 0-1.3-.5-1.6l-2.2-1.6h2.7c.6 0 1.2-.4 1.4-1l.8-2.6.8 2.6c.2.6.8 1 1.4 1h2.7z"/></g></svg>