<?xml version="1.0" encoding="UTF-8"?>
<svg xmlns="http://www.w3.org/2000/svg" id="Icons" viewBox="0 0 60 60" width="512" height="512"><path d="M57,53H56V35a3,3,0,0,0-3-3H49a3,3,0,0,0-3,3V53H42V37a3,3,0,0,0-3-3H35a3,3,0,0,0-3,3V53H28V41a3,3,0,0,0-3-3H21a3,3,0,0,0-3,3V53H14V43a3,3,0,0,0-3-3H7a3,3,0,0,0-3,3V53H3a3,3,0,0,0-3,3v1a3,3,0,0,0,3,3H57a3,3,0,0,0,3-3V56A3,3,0,0,0,57,53ZM48,35a1,1,0,0,1,1-1h4a1,1,0,0,1,1,1V53H48ZM34,37a1,1,0,0,1,1-1h4a1,1,0,0,1,1,1V53H34ZM20,41a1,1,0,0,1,1-1h4a1,1,0,0,1,1,1V53H20ZM6,43a1,1,0,0,1,1-1h4a1,1,0,0,1,1,1V53H6ZM58,57a1,1,0,0,1-1,1H3a1,1,0,0,1-1-1V56a1,1,0,0,1,1-1H57a1,1,0,0,1,1,1Z"/><path d="M57,13H50a2,2,0,0,0-2,2v2a2,2,0,0,0,1.776,1.987l-7.06,7.053L42,25.5V21a7.009,7.009,0,0,0-7-7h-.111A6.973,6.973,0,0,0,37,9V7A7,7,0,0,0,23,7V9a6.973,6.973,0,0,0,2.111,5H25a7.009,7.009,0,0,0-7,7v2.18a2.962,2.962,0,0,0-2.546.253L.971,32.143a2,2,0,0,0-.684,2.746L1.314,36.6a2.006,2.006,0,0,0,2.745.683l12.477-7.5,5.342,5.333a2.984,2.984,0,0,0,4.025.211l9.174-7.512L41.2,32.4a2.994,2.994,0,0,0,3.918-.282l8.9-8.894A2,2,0,0,0,56,25h2a2,2,0,0,0,2-2V16A3,3,0,0,0,57,13ZM40,21v3l-3.2-2.4a3.019,3.019,0,0,0-3.7.079l-.1.079V19.121L33.78,16H35A5.006,5.006,0,0,1,40,21Zm-8.281-5-.5,2H28.781l-.5-2ZM29,20h2v3.393l-2,1.638ZM25,9V7A5,5,0,0,1,35,7V9A5,5,0,0,1,25,9Zm0,7h1.22L27,19.121v7.547l-2,1.638V24a1,1,0,0,0-2,0v3.765l-3-3V21A5.006,5.006,0,0,1,25,16Zm33,7H56V20.82a1,1,0,0,0-1.707-.707L43.7,30.708a.982.982,0,0,1-1.3.092l-6.75-5.06a1,1,0,0,0-1.233.027l-9.777,8.007A.993.993,0,0,1,23.3,33.7l-5.9-5.89a1,1,0,0,0-1.222-.15l-13.147,7.9L2,33.857l14.487-8.712A.983.983,0,0,1,17.7,25.3l5.72,5.721a1,1,0,0,0,1.341.066l9.594-7.855A1,1,0,0,1,35.6,23.2l6.609,4.96a1,1,0,0,0,1.308-.093l9.37-9.36A1,1,0,0,0,52.18,17H50V15h7a1,1,0,0,1,1,1Z"/></svg>
