<svg id="Layer_1" enable-background="new 0 0 512 512" viewBox="0 0 512 512" xmlns="http://www.w3.org/2000/svg"><path d="m205.6 73.3c1.8 4.1-.1 8.8-4.1 10.6-32.9 14.4-55.6 46.4-57.6 81.4-.3 4.3-3.8 7.6-8 7.6-.2 0-.3 0-.5 0-4.4-.3-7.8-4.1-7.6-8.5 2.4-41.1 28.8-78.5 67.2-95.3 4.1-1.7 8.8.1 10.6 4.2zm-59.6 119.1c-1-4.3-5.3-7-9.7-6-4.3 1-7 5.3-6 9.6 2.2 9.7 5.7 19 10.4 27.8 1.5 2.7 4.2 4.2 7.1 4.2 1.3 0 2.6-.3 3.8-1 3.9-2.1 5.4-7 3.3-10.9-4-7.4-7-15.4-8.9-23.7zm264.1-46.5c.6 8.1-.6 16.5-3.9 24.3-11.4 26.7-44 40.3-70.7 28.7-20.7-9-34.6-30.9-32.8-53.6.4-5.8 1.7-11.5 4-17 11.1-26.8 43.9-40.1 70.7-28.9 18.9 7.9 31.2 26.7 32.7 46.5zm-16.1.9c-.5-9.5-4.4-18.9-12.3-26-12.5-11.2-31.9-12.5-45.9-3.3-11.2 7.4-17.7 20.6-17 34 1.3 24.7 27.8 41.8 50.8 33.2 16.4-6.1 25.2-22.2 24.4-37.9zm93.6 41.5s-11.5 27.2-11.5 27.2c-2.9 6.9-11.1 10.2-18 7.2l-27.3-11.5c-4 4.8-8.4 9.1-13.1 13 0 0 11.2 27.4 11.2 27.5 2.8 6.9-.6 15.1-7.5 17.8-5.5 2.2-10.9 4.5-16.3 6.9-5.1 2.2-10.3 5.2-16 5.2-5.4 0-10.4-3.1-12.6-8.3l-11.3-27.6c-1.4.1-2.8.1-4.2.2-8.8 14.5-20 27.3-33.4 37.9-20.1 15.9-31.7 38.9-31.7 63.2v26.6h4.5c7.5 0 13.6 6.1 13.6 13.6v69.8c0 7.5-6.1 13.6-13.6 13.6h-8.4v4.6c0 19.8-16.1 35.9-35.9 35.9h-34.7c-19.8 0-35.9-16.1-35.9-35.9v-4.6h-8.5c-7.5 0-13.6-6.1-13.6-13.6 0-23.3 0-46.5 0-69.8 0-7.5 6.1-13.6 13.6-13.6h4.5v-17.4c-2.1 2.1-5.2 3.3-8.4 3.2s-6.3-1.5-8.5-3.9l-12.7-13.3c-2.9 1.4-5.9 2.5-8.9 3.4 0 0-.4 18.7-.4 18.7-.1 6.4-5.5 11.6-11.9 11.6-.1 0-.2 0-.3 0l-20.3-.4c-6.5-.2-11.6-5.4-11.6-12 0 0 .4-18.8.4-18.8 0-.4-8.9-3.6-8.7-3.8 0 0-13.5 12.9-13.5 12.9-4.8 4.5-12.1 4.4-16.7-.2l-14.2-14.8c-4.5-4.8-4.4-12.2.2-16.7l13.6-13c-1.3-2.8-2.5-5.8-3.4-8.8 0 0-18.7-.4-18.7-.4-6.5-.1-11.8-5.7-11.6-12.2l.4-20.3c.2-6.6 5.8-11.8 12.2-11.6l18.6.4c1.1-3 2.3-5.9 3.8-8.7l-12.9-13.4c-4.6-4.7-4.5-12.1.2-16.8l14.8-14.1c4.8-4.5 12.2-4.4 16.8.2l13 13.6c2.9-1.4 5.8-2.5 8.8-3.4-5-16.4-7.1-33.5-6.1-50.8 4.2-72.1 61.8-129.9 134-134.4 18.8-1.2 37.6 1.4 55.1 7.3 1.4-2.9 3.8-5.3 6.9-6.6 0 0 27.3-11.1 27.3-11.1 6.9-2.8 15 .6 17.8 7.5l11.2 27.5c6.1-.6 12.3-.5 18.4.1l11.6-27.4c2.8-6.8 10.8-10.2 17.8-7.3 0 0 27.2 11.4 27.2 11.5 6.9 2.9 10.1 11.1 7.2 17.9l-11.5 27.3c4.8 3.9 9.1 8.3 12.9 13.1l27.6-11.4c7-2.8 15 .5 17.8 7.5 0 0 11.1 27.2 11.1 27.3 2.8 6.9-.6 15-7.5 17.8l-27.4 11.1c.6 6.2.5 12.3-.1 18.4l27.4 11.6c6.8 2.8 10.1 10.8 7.3 17.8zm-307.1 146.6c.5-.9.5-2.9-.7-4l-11.9-12.5c-2.6-2.7-3-6.9-.9-10 .8-1.2 1.5-2.3 2.1-3.5-2.7-4.3-5.8-8.4-9.3-12.1 0 .1-.1.2-.1.3-.6 1.7-1.3 3.3-2.1 4.8-7.2 13.6-22.2 22.4-37.6 21.3-14.5-1.1-27.3-9.6-33.6-22.7-4.4-9.6-5-20.6-1.4-30.5 4.5-12.4 15.5-22.1 28.3-25.1-.7.2-5.5-11-6.1-12.3-4.1 1.2-8 2.9-11.8 5.2-3.2 1.9-7.4 1.4-10-1.4l-14.2-14.9-8.7 8.3 14.2 14.8c2.6 2.7 3 6.9.9 10-3.1 4.8-5.4 10-6.9 15.7-.9 3.6-4.2 6.2-8 6.1l-20.6-.4-.1 11.7 20.6.5c3.7.1 6.9 2.7 7.7 6.3 1.2 5.7 3.3 11.1 6.2 16 1.9 3.2 1.3 7.3-1.4 9.9l-14.9 14.2 8.3 8.7 14.9-14.2c2.7-2.6 6.9-3 10-.9 4.6 3.1 10 5.5 15.5 6.8 3.7.9 6.2 4.2 6.2 8l-.4 20.6 12 .3.4-20.5c.1-3.7 2.7-6.9 6.4-7.7 5.6-1.2 10.9-3.3 16-6.2 3.2-1.9 7.3-1.3 9.9 1.4l14.2 14.8c-.1-.1 6.9-6.8 6.9-6.8zm-68.2-76.7c-10.3 5-16 17.3-12.5 28.4 3.9 12.3 17.5 19.2 29.8 15.5 4.5-1.4 8.5-4.3 11.4-8 1.4-1.8 2.6-3.8 3.4-6 .4-1.1 2.4-6.9 1.4-7.7-8.5-7.3-16.1-15.4-22.7-24.4-2.7-.1-5.3.2-7.8 1-1.1.3-2.1.7-3 1.2zm163.5 212.4h-74.3v4.6c0 10.9 8.9 19.8 19.8 19.8h34.7c10.9 0 19.8-8.9 19.8-19.8zm22.1-40.5h-118.4v24.3h118.4zm-118.4-40.4v24.3h118.4v-24.3zm130.9-112.4-20.2-8.5c-6.9-2.9-10.2-10.9-7.3-17.8l11.5-27.4c-4.7-3.9-9-8.3-12.9-13.1 0 0-27.4 11.2-27.5 11.2-6.9 2.8-14.9-.6-17.8-7.4l-11.2-27.5c-2.4-6.2-.1-13 5.1-16.5.8-.5 1.6-.9 2.4-1.3l27.4-11.2c-.6-6.2-.5-12.3.1-18.5l-27.3-11.5c-6.9-2.8-10.2-10.8-7.3-17.8 0 0 11.5-27.2 11.5-27.2 2.8-6.8 11.1-10.1 17.8-7.3l27.4 11.6c3.9-4.7 8.3-9.1 13.1-12.9l-8.5-20.8c-17.7-7.3-36.6-10.4-56.3-9.2-63 3.9-115.2 56.3-118.9 119.2-.9 15.9 1 31.6 5.8 46.7 7.5 23.6 22.2 44.8 41.5 60.3l1.4 1.1c10.3 8 18.7 17.8 25 29 12.9 23.1 12.2 47.5 12.2 73h82.1v-26.6c.2-26.2 11.3-51.1 30.9-69.6zm161.3-92.9-30.8-13c-3.5-1.5-5.4-5.1-4.8-8.8 1.5-8.5 1.5-17.2.1-25.9-.6-3.7 1.4-7.3 4.9-8.7l30.9-12.6-9.3-22.7-31 12.6c-3.5 1.4-7.5.2-9.6-2.8-5-7.1-11.1-13.3-18.2-18.4-3-2.2-4.2-6.2-2.7-9.7l13-30.8-22.5-9.6-13 30.8c-1.5 3.4-5.1 5.4-8.8 4.8-8.6-1.4-17.3-1.5-25.9-.1-3.7.6-7.3-1.4-8.7-4.9l-12.6-30.9s-22.8 9.2-22.8 9.2c2.7 6.7 5.5 13.5 8.2 20.2.5 1.3 7.3 16.4 6.8 16.8-10.9 7.7-19.6 16.3-27.4 27.1l-36.7-15.5s-9.5 22.6-9.5 22.6c6.5 3.3 13.3 6 20.1 8.6 1.5.6 16.8 5.3 16.6 6.9-2.3 13.1-2.3 25.4-.2 38.6l-36.8 15s9.2 22.7 9.2 22.7c7.4-3 14.7-6 22.1-9 .7-.3 14.4-6.5 14.7-6 7.7 10.9 16.4 19.7 27.1 27.4-5.1 12.2-10.3 24.4-15.4 36.6l22.6 9.5s15.5-36.8 15.5-36.8c10.8 2 21.2 3.2 32.2 1.4 3.7-.6 7.4 1.5 8.8 4.9l12.6 31 22.8-9.3-12.6-30.9c-1.4-3.5-.3-7.4 2.8-9.6 7.1-5 13.3-11.2 18.5-18.3 2.2-3 6.2-4.1 9.6-2.7l30.8 13zm-421.2-114.4 39.8 24.4c1.3.8 2.8 1.2 4.2 1.2 2.7 0 5.3-1.4 6.9-3.8 2.3-3.8 1.1-8.7-2.7-11.1l-39.8-24.4c-3.8-2.3-8.7-1.1-11.1 2.7-2.3 3.7-1.1 8.7 2.7 11zm71.7-16c1.5 2.7 4.2 4.2 7.1 4.2 1.3 0 2.6-.3 3.8-1 3.9-2.1 5.4-7 3.2-10.9l-22.2-41.1c-2.1-3.9-7-5.4-10.9-3.2-3.9 2.1-5.4 7-3.2 10.9zm-44.6 88.1h.2c4.3 0 7.9-3.5 8-7.8.1-4.4-3.4-8.1-7.8-8.3l-46.7-1.2c-4.3-.1-8.1 3.4-8.3 7.8-.1 4.4 3.4 8.1 7.8 8.3z"/></svg>