<svg id="Layer_1" enable-background="new 0 0 512 512" viewBox="0 0 512 512" xmlns="http://www.w3.org/2000/svg"><path d="m216.76 118.47c-3.12-3.12-3.12-8.18 0-11.3s8.18-3.12 11.3 0l21.93 21.93 33.95-33.92c3.12-3.12 8.18-3.12 11.3 0s3.12 8.18 0 11.3l-39.6 39.57c-1.56 1.56-3.61 2.34-5.65 2.34-2.05 0-4.09-.78-5.65-2.34zm-27.91 40.91c-10.35-17.93-13.09-38.83-7.73-58.84 5.35-19.99 18.17-36.71 36.11-47.06s38.83-13.1 58.84-7.74c20 5.35 36.71 18.17 47.06 36.11 10.36 17.94 13.1 38.83 7.74 58.84-5.35 19.99-18.17 36.71-36.11 47.06-11.94 6.9-25.2 10.42-38.63 10.42-6.74 0-13.52-.89-20.21-2.68-19.99-5.35-36.71-18.18-47.07-36.11zm13.85-7.99c8.21 14.23 21.48 24.41 37.36 28.66 15.88 4.26 32.47 2.08 46.71-6.14 14.23-8.22 24.41-21.48 28.66-37.35 4.26-15.88 2.08-32.47-6.14-46.71-8.22-14.23-21.48-24.41-37.36-28.66-5.3-1.42-10.69-2.13-16.04-2.13-10.66 0-21.18 2.8-30.66 8.27-14.23 8.22-24.41 21.48-28.66 37.35-4.26 15.89-2.08 32.47 6.13 46.71zm-70.18 59.25h-117.1c-8.5 0-15.42-6.92-15.42-15.42v-23.3c0-24.08 13.94-45.38 35.07-55.35-4.78-7.3-7.57-16.02-7.57-25.38 0-25.63 20.85-46.49 46.49-46.49s46.49 20.85 46.49 46.49c0 9.36-2.79 18.08-7.57 25.39 21.11 9.97 35.04 31.27 35.04 55.34v23.3c-.01 8.5-6.92 15.42-15.43 15.42zm-89.03-119.45c0 16.82 13.68 30.5 30.5 30.5s30.5-13.68 30.5-30.5-13.68-30.5-30.5-30.5-30.5 13.68-30.5 30.5zm88.47 80.73c0-19.65-12.56-36.8-30.96-42.93-7.62 5.46-16.94 8.69-27.01 8.69s-19.39-3.23-27.01-8.69c-18.42 6.13-30.99 23.28-30.99 42.93v22.73h18.4v-12.47c0-4.42 3.58-7.99 7.99-7.99s7.99 3.58 7.99 7.99v12.47h47.2v-12.47c0-4.42 3.58-7.99 7.99-7.99s7.99 3.58 7.99 7.99v12.47h18.4v-22.73zm380.04 0v23.3c0 8.5-6.92 15.42-15.42 15.42h-117.13c-8.5 0-15.42-6.92-15.42-15.42v-23.3c0-24.08 13.94-45.38 35.07-55.35-4.78-7.3-7.57-16.02-7.57-25.38 0-25.63 20.85-46.49 46.49-46.49s46.49 20.85 46.49 46.49c0 9.36-2.79 18.08-7.57 25.38 21.12 9.97 35.06 31.27 35.06 55.35zm-104.49-80.73c0 16.82 13.68 30.5 30.5 30.5s30.5-13.68 30.5-30.5-13.68-30.5-30.5-30.5-30.5 13.68-30.5 30.5zm88.5 80.73c0-19.65-12.57-36.8-30.99-42.93-7.62 5.46-16.94 8.69-27.01 8.69s-19.39-3.23-27.01-8.69c-18.42 6.13-30.99 23.28-30.99 42.93v22.73h18.4v-12.47c0-4.42 3.58-7.99 7.99-7.99s7.99 3.58 7.99 7.99v12.47h47.22v-12.47c0-4.42 3.58-7.99 7.99-7.99s7.99 3.58 7.99 7.99v12.47h18.4v-22.73zm-.15 206.9c.73 3.45.08 6.97-1.82 9.93-1.92 2.97-4.88 5.01-8.33 5.74l-51.07 10.91c-.92.2-1.84.29-2.75.29-6.03 0-11.46-4.15-12.86-10.22l-33.06 7.05c-36.91 26.72-70.23 42.2-101.71 47.26l-14.35 12.64c-4.8 4.23-10.86 6.51-17.22 6.51-.56 0-1.13-.02-1.7-.05-6.97-.44-13.35-3.56-17.96-8.78-2.4-2.72-4.16-5.84-5.25-9.19-4.33 2.99-9.43 4.6-14.74 4.6-.56 0-1.13-.02-1.7-.05-6.98-.44-13.35-3.57-17.95-8.8-2.39-2.71-4.12-5.79-5.19-9.02-4.61 3.63-10.22 5.6-16.11 5.6-.55 0-1.1-.02-1.66-.05-6.98-.43-13.36-3.54-17.97-8.77-2.73-3.09-4.59-6.65-5.6-10.38-3.3 1.41-6.81 2.14-10.31 2.14-7.25 0-14.45-2.98-19.6-8.82-4.51-5.11-6.79-11.65-6.48-18.48-5.95-1.73-11.71-3.06-17.36-3.98l-.08.36c-1.39 6.21-6.9 10.43-12.94 10.43-.9 0-1.8-.09-2.71-.29l-51.09-10.92c-7.1-1.51-11.66-8.53-10.15-15.65l30.33-142c.73-3.44 2.77-6.4 5.74-8.32 2.96-1.91 6.48-2.56 9.91-1.83h.01l51.08 10.91c7.03 1.49 11.56 8.39 10.18 15.44l15.51 3.32c5.83-1.76 11.64-3.58 17.76-5.5 19.12-6 38.88-12.2 59.66-16.48h.03c.01 0 .01 0 .02-.01 57.63-11.5 107.89-4.08 153.51 22.67l18.73-4c-.66-3.38-.01-6.81 1.86-9.7 1.92-2.97 4.88-5.01 8.33-5.74l51.06-10.91c3.44-.74 6.96-.08 9.92 1.83 2.96 1.92 4.99 4.87 5.72 8.32zm-388.72-126.16-45.62-9.75-29.16 136.53 45.62 9.75 1-4.7c.02-.1.04-.21.07-.31zm47.65 144.86 12.43-10.95c4.14-3.72 4.53-10.1.84-14.28-1.78-2.02-4.26-3.22-6.98-3.39-.22-.01-.44-.02-.65-.02-2.49 0-4.85.88-6.71 2.52l-23.87 21.04c-2.02 1.78-3.23 4.26-3.4 6.99-.17 2.72.71 5.33 2.49 7.35 3.7 4.19 10.14 4.58 14.35.87l11.36-10.01c.05-.04.09-.08.14-.12zm47.95 6.08c1.96-1.77 3.13-4.21 3.3-6.89.17-2.72-.71-5.33-2.49-7.35s-4.25-3.22-6.97-3.39c-.22-.01-.43-.02-.65-.02-2.48 0-4.84.88-6.7 2.52l-11.38 10.03c-.04.04-.08.08-.13.12l-12.43 10.95c-4.14 3.72-4.53 10.1-.84 14.28 1.78 2.02 4.25 3.22 6.97 3.39s5.32-.72 7.34-2.5l16.92-14.91c.01-.01.02-.01.02-.02zm40.86 12.34c2.02-1.77 3.22-4.24 3.39-6.96.17-2.73-.71-5.34-2.49-7.36-2-2.26-4.8-3.42-7.62-3.42-2.39 0-4.79.83-6.73 2.53l-16.73 14.76c-.07.06-.14.13-.21.2l-6.93 6.11c-4.18 3.71-4.58 10.12-.89 14.3 1.79 2.03 4.26 3.24 6.97 3.41 2.72.17 5.32-.72 7.35-2.5zm31.38 7.17c-1.78-2.03-4.25-3.23-6.97-3.4-.22-.01-.45-.02-.67-.02-2.48 0-4.83.88-6.68 2.51l-14.74 13.01c-2.02 1.78-3.23 4.26-3.4 6.98-.17 2.71.71 5.32 2.49 7.33 1.79 2.02 4.26 3.23 6.98 3.4s5.32-.71 7.33-2.49h.01l14.77-13.01c4.19-3.69 4.58-10.11.88-14.31zm95.99-29.53c-17.35-19.06-40.75-30.83-63.45-42.25-27.44-13.8-55.73-28.03-73.59-55.05-23.88 19.78-53.31 27.49-69.08 23.03-9.38-2.65-12.13-8.72-12.94-12.09-1.88-7.87 2.47-16.77 12.95-26.45l24.99-23.29c-9.62 2.75-19.09 5.72-28.39 8.64-6.55 2.06-13.33 4.18-19.92 6.15-.75.22-1.52.33-2.29.33-.56 0-1.12-.06-1.67-.18l-17.5-3.74-23.63 110.57c6.4 1.08 12.9 2.61 19.6 4.61.96-1.22 2.03-2.36 3.22-3.41l23.87-21.04c10.81-9.54 27.37-8.51 36.9 2.3 2.72 3.08 4.58 6.63 5.59 10.35 3.71-1.59 7.77-2.31 11.93-2.05 6.98.43 13.36 3.55 17.97 8.77 2.35 2.67 4.1 5.73 5.19 9.01 10.83-8.49 26.57-7.16 35.77 3.26 3.37 3.83 5.41 8.38 6.17 13.07 2.07-.37 4.2-.5 6.36-.36 6.99.44 13.36 3.57 17.96 8.79 4.8 5.44 6.92 12.34 6.46 19.06 24-5.93 49.56-18.47 77.53-38.03zm44.71-13.74-23.75-111.16-21.78 4.65c-1.99.43-4.07.07-5.81-.98-42.2-25.56-88.87-33.01-142.63-22.73l-45.98 42.86c-6.76 6.24-7.99 9.72-8.21 10.77.79.48 2.98 1.29 7.15 1.33h.32c13.86 0 36.91-8.24 55.19-26.47 1.8-1.79 4.34-2.63 6.86-2.24 2.51.39 4.69 1.94 5.87 4.19 14.82 28.31 42.5 42.24 71.81 56.98 25.32 12.74 51.46 25.89 71.08 49.17zm63.96-.4-29.19-136.53-45.6 9.74 28.1 131.55c.01.04.02.08.03.12s.01.08.02.12l1.01 4.74z"/></svg>