<?xml version="1.0" encoding="UTF-8"?>
<svg version="1.1" xmlns="http://www.w3.org/2000/svg" width="256" height="256">
<path d="M0 0 C3.40664021 3.66496364 4.38692864 6.23794518 5.0234375 11.2734375 C6.13460937 11.21542969 7.24578125 11.15742187 8.390625 11.09765625 C17.27124255 10.77310877 24.60282376 10.684884 32.0234375 16.2734375 C37.31778473 21.43203224 39.1818597 27.09138421 39.38420105 34.31626892 C39.39286749 36.75893555 39.38499122 39.20169519 39.36401367 41.64428711 C39.36316644 42.99505596 39.36364442 44.34582619 39.36534119 45.69659424 C39.36619882 49.34701215 39.34861097 52.99713186 39.32761931 56.64748073 C39.30881364 60.4684679 39.30709902 64.28946258 39.30354309 68.11048889 C39.29423401 75.33872033 39.26963574 82.56681499 39.23949462 89.79498631 C39.2059151 98.02713713 39.18945569 106.25929462 39.17440832 114.49149692 C39.14308509 131.41888945 39.09034685 148.34614899 39.0234375 165.2734375 C40.2056337 165.48319466 40.2056337 165.48319466 41.41171265 165.69718933 C44.35732993 166.34710717 45.3360244 166.79600518 47.0234375 169.2734375 C47.41162109 171.78198242 47.41162109 171.78198242 47.421875 174.75390625 C47.42574219 175.83607422 47.42960937 176.91824219 47.43359375 178.03320312 C47.42199219 179.16435547 47.41039062 180.29550781 47.3984375 181.4609375 C47.41003906 182.57275391 47.42164063 183.68457031 47.43359375 184.83007812 C47.39517229 195.64571795 45.00357863 202.10182758 37.50390625 210.06640625 C34.01055256 213.17466583 30.47048966 214.92146562 26.0234375 216.2734375 C25.49099458 216.44821216 24.95855165 216.62298681 24.4099741 216.80305767 C20.88556925 217.49770822 17.37376938 217.42145162 13.79588318 217.42060852 C12.95901492 217.42428521 12.12214666 217.4279619 11.25991875 217.43175 C8.45118637 217.44277704 5.64249101 217.44662905 2.83374023 217.45043945 C0.82146589 217.45670493 -1.1908073 217.46335181 -3.20307922 217.47035217 C-9.81636755 217.49138799 -16.42965608 217.50175531 -23.04296875 217.51171875 C-25.32105967 217.51576673 -27.59915046 217.51988366 -29.87724113 217.52406883 C-40.58213025 217.54312081 -51.28701248 217.55735086 -61.99191529 217.5656808 C-74.33996684 217.5754484 -86.6878389 217.60175555 -99.03582722 217.64218169 C-108.58504689 217.6723695 -118.13421519 217.68715228 -127.68348163 217.69046181 C-133.38421304 217.69280958 -139.08475269 217.70173449 -144.78543282 217.72692299 C-150.15266649 217.75025467 -155.51958287 217.75441635 -160.88685417 217.74416161 C-162.85118034 217.74366735 -164.8155224 217.74995512 -166.77980042 217.76371765 C-179.91214944 217.85054085 -191.29428089 217.68612171 -201.32421875 208.06640625 C-208.78329569 199.97251425 -209.33947147 192.19181213 -209.3515625 181.6484375 C-209.37605469 180.51664063 -209.40054688 179.38484375 -209.42578125 178.21875 C-209.42964844 177.13078125 -209.43351563 176.0428125 -209.4375 174.921875 C-209.44571777 173.93364746 -209.45393555 172.94541992 -209.46240234 171.92724609 C-208.8376414 168.51460715 -207.73940514 167.3220346 -204.9765625 165.2734375 C-203.6565625 165.2734375 -202.3365625 165.2734375 -200.9765625 165.2734375 C-200.98117146 164.5765941 -200.98578043 163.87975071 -200.99052906 163.16179085 C-201.10113624 146.17586147 -201.18378103 129.19002403 -201.23562336 112.20381355 C-201.26136282 103.98925944 -201.29643131 95.77494629 -201.35375977 87.56054688 C-201.40372582 80.39764197 -201.43588445 73.23491165 -201.44700497 66.07183731 C-201.45350157 62.28186473 -201.46867995 58.49239144 -201.50521278 54.7025795 C-201.53938193 51.12870612 -201.54957403 47.55553329 -201.54210091 43.98151207 C-201.54411275 42.05819594 -201.57089791 40.13495453 -201.59866333 38.21183777 C-201.54665673 29.38568941 -199.90226463 22.30244758 -193.6015625 15.8359375 C-187.14553001 11.99306102 -182.46159797 10.83788362 -175.0390625 11.0859375 C-174.25982422 11.09947266 -173.48058594 11.11300781 -172.67773438 11.12695312 C-170.77703846 11.16193526 -168.87670416 11.21572791 -166.9765625 11.2734375 C-166.84121094 10.50773437 -166.70585937 9.74203125 -166.56640625 8.953125 C-165.0920801 2.25519297 -160.6264749 -1.35014233 -155.11328125 -4.99609375 C-117.56432509 -25.71114677 -34.10747909 -29.79348964 0 0 Z M-122.9765625 -5.7265625 C-123.68441895 -5.57670898 -124.39227539 -5.42685547 -125.12158203 -5.27246094 C-142.84852989 -1.36143013 -142.84852989 -1.36143013 -156.9765625 9.2734375 C-158.14322917 11.7734375 -158.14322917 11.7734375 -156.9765625 14.2734375 C-149.28974682 23.97223849 -134.46452054 26.77605532 -122.9765625 29.2734375 C-122.30270508 29.42586914 -121.62884766 29.57830078 -120.93457031 29.73535156 C-95.54066501 35.18615275 -64.2949024 35.0006373 -38.9765625 29.2734375 C-38.28723633 29.12358398 -37.59791016 28.97373047 -36.88769531 28.81933594 C-19.13310114 24.91082091 -19.13310114 24.91082091 -4.9765625 14.2734375 C-3.80989583 11.7734375 -3.80989583 11.7734375 -4.9765625 9.2734375 C-12.63957112 -0.39532505 -27.49800196 -3.29654627 -38.9765625 -5.7265625 C-39.69344238 -5.87899414 -40.41032227 -6.03142578 -41.14892578 -6.18847656 C-66.92355618 -11.32454451 -97.27799026 -11.19090265 -122.9765625 -5.7265625 Z M-188.9765625 25.2734375 C-191.24612101 28.67777527 -191.22437745 29.84256466 -191.21707153 33.83525085 C-191.21982653 34.98970798 -191.22258152 36.1441651 -191.22542 37.33360577 C-191.21822378 38.60627709 -191.21102757 39.87894842 -191.20361328 41.19018555 C-191.20300067 42.56223699 -191.2032675 43.93428906 -191.2043438 45.30634022 C-191.20479569 48.98378321 -191.19319611 52.66109629 -191.17912292 56.33850861 C-191.16774101 59.78805454 -191.16719712 63.23756874 -191.16577148 66.68713379 C-191.15527288 76.77841893 -191.12735062 86.86967985 -191.1015625 96.9609375 C-191.0603125 119.5040625 -191.0190625 142.0471875 -190.9765625 165.2734375 C-118.3765625 165.2734375 -45.7765625 165.2734375 29.0234375 165.2734375 C29.1471875 131.7990625 29.1471875 131.7990625 29.2734375 97.6484375 C29.30985352 90.60290527 29.34626953 83.55737305 29.38378906 76.29833984 C29.39716708 69.98091516 29.39716708 69.98091516 29.4052124 63.66348267 C29.40893801 60.85028456 29.42392319 58.0373886 29.44573975 55.22427368 C29.47321719 51.63354425 29.48139485 48.04325291 29.4757266 44.4524281 C29.47746967 42.51605502 29.49890332 40.57973015 29.5211525 38.64348412 C29.48963112 30.14959525 29.48963112 30.14959525 25.0234375 23.2734375 C21.97662689 21.24223043 21.42225426 21.02683875 18.01171875 21.078125 C17.25439453 21.08457031 16.49707031 21.09101562 15.71679688 21.09765625 C14.53827148 21.12279297 14.53827148 21.12279297 13.3359375 21.1484375 C12.53865234 21.15746094 11.74136719 21.16648438 10.91992188 21.17578125 C8.9542985 21.19932165 6.98882975 21.23519203 5.0234375 21.2734375 C4.86035903 28.53225188 4.73642581 35.7906636 4.6607523 43.05094719 C4.62440859 46.42330058 4.57521968 49.79438974 4.49536133 53.16601562 C4.40994099 57.05371779 4.37062962 60.93965194 4.33984375 64.828125 C4.30371475 66.02331757 4.26758575 67.21851013 4.23036194 68.44992065 C4.22689283 75.93268981 5.48944163 80.23968528 10.2842865 86.04592896 C16.9393912 94.56980214 17.78219758 106.51755445 16.6171875 116.890625 C14.30629471 129.46298219 8.72097311 140.2190196 -1.6640625 147.8984375 C-10.46008435 153.83247015 -18.90640731 156.41957781 -29.4765625 156.3984375 C-30.765625 156.40101563 -32.0546875 156.40359375 -33.3828125 156.40625 C-36.41931073 156.29403159 -39.02421338 155.90117951 -41.9765625 155.2734375 C-43.68301252 155.18306476 -45.39272873 155.1433365 -47.1015625 155.1484375 C-47.94976562 155.14585937 -48.79796875 155.14328125 -49.671875 155.140625 C-52.42345906 155.25120876 -55.09936945 155.48269082 -57.8359375 155.765625 C-65.24819776 156.46150044 -72.66298686 156.51732987 -80.1015625 156.5234375 C-80.84511993 156.52411224 -81.58867737 156.52478699 -82.35476685 156.52548218 C-107.40208251 156.48964432 -142.53003506 155.59534648 -161.9765625 137.2734375 C-165.07541135 133.52991087 -166.09585873 130.6065195 -166.13478088 125.77461243 C-166.1445697 124.85334564 -166.15435852 123.93207886 -166.16444397 122.9828949 C-166.17307716 121.47022789 -166.17307716 121.47022789 -166.18188477 119.92700195 C-166.19178436 118.86342468 -166.20168396 117.79984741 -166.21188354 116.70404053 C-166.24352075 113.18162273 -166.26826485 109.65919144 -166.29296875 106.13671875 C-166.31353635 103.6971959 -166.33453277 101.25767662 -166.35594177 98.81816101 C-166.41118242 92.39186499 -166.46058296 85.9655367 -166.50878906 79.53918457 C-166.5589895 72.98377607 -166.61468318 66.42841452 -166.66992188 59.87304688 C-166.77752784 47.00655079 -166.8791539 34.14001462 -166.9765625 21.2734375 C-169.7068014 21.1650708 -172.43270793 21.08597056 -175.1640625 21.0234375 C-175.93298828 20.98992188 -176.70191406 20.95640625 -177.49414062 20.921875 C-182.62282885 20.83382885 -185.27068131 21.39307979 -188.9765625 25.2734375 Z M-156.9765625 27.2734375 C-157.12203795 31.33555962 -157.21069476 35.39701037 -157.2890625 39.4609375 C-157.33095703 40.61142578 -157.37285156 41.76191406 -157.41601562 42.94726562 C-157.62061362 49.59181176 -157.62061362 49.59181176 -154.7734375 55.38671875 C-140.37502781 65.09961244 -123.06031707 68.51180334 -105.9765625 70.2734375 C-104.92210937 70.38429687 -103.86765625 70.49515625 -102.78125 70.609375 C-91.86678053 71.56406855 -80.92202069 71.45170229 -69.9765625 71.2734375 C-69.25807129 71.26618652 -68.53958008 71.25893555 -67.79931641 71.25146484 C-60.09581937 71.13820635 -54.42332238 69.95576074 -47.55078125 66.484375 C-41.50985206 63.64266324 -35.57135597 63.18787577 -28.9765625 63.3984375 C-22.97135766 63.48312629 -18.12427199 62.42364622 -12.9765625 59.2734375 C-12.29722656 58.85779541 -11.61789063 58.44215332 -10.91796875 58.01391602 C-7.41475065 55.49927196 -5.28442534 53.67065214 -4.33496094 49.36157227 C-4.18950204 45.9862647 -4.27718105 42.70816798 -4.4765625 39.3359375 C-4.51265625 38.17513672 -4.54875 37.01433594 -4.5859375 35.81835938 C-4.67982213 32.96661362 -4.81098031 30.12176955 -4.9765625 27.2734375 C-7.55415602 28.29972408 -10.12273523 29.33562966 -12.67578125 30.421875 C-26.19228581 35.96982589 -40.49744374 38.61818325 -54.9765625 40.2734375 C-55.91371094 40.38558594 -56.85085937 40.49773437 -57.81640625 40.61328125 C-89.51984241 43.71979244 -126.22189529 42.18326494 -154.9765625 27.2734375 C-155.6365625 27.2734375 -156.2965625 27.2734375 -156.9765625 27.2734375 Z M-156.9765625 65.2734375 C-157.09294676 69.33569571 -157.16387623 73.3975238 -157.2265625 77.4609375 C-157.26007813 78.61142578 -157.29359375 79.76191406 -157.328125 80.94726562 C-157.34101563 82.05908203 -157.35390625 83.17089844 -157.3671875 84.31640625 C-157.38813477 85.33758545 -157.40908203 86.35876465 -157.43066406 87.41088867 C-156.85656572 91.02986879 -155.47666174 92.64736984 -152.9765625 95.2734375 C-132.23998596 109.62687484 -101.10372649 109.96766754 -76.9765625 109.2734375 C-76.84701172 108.18289062 -76.84701172 108.18289062 -76.71484375 107.0703125 C-75.33268083 97.17960536 -72.15494845 88.79053138 -66.9765625 80.2734375 C-67.85054688 80.25885498 -68.72453125 80.24427246 -69.625 80.22924805 C-99.78157015 79.67013449 -129.27466638 78.42392979 -156.9765625 65.2734375 Z M-5.9765625 65.2734375 C-6.9665625 65.7684375 -6.9665625 65.7684375 -7.9765625 66.2734375 C-7.9765625 66.9334375 -7.9765625 67.5934375 -7.9765625 68.2734375 C-6.9865625 68.6034375 -5.9965625 68.9334375 -4.9765625 69.2734375 C-5.3065625 67.9534375 -5.6365625 66.6334375 -5.9765625 65.2734375 Z M-58.7265625 85.15234375 C-66.16812233 94.36127404 -68.50608599 104.38797868 -67.484375 115.98046875 C-66.77487398 120.58131 -65.26034175 124.24807119 -62.9765625 128.2734375 C-62.4196875 129.2840625 -61.8628125 130.2946875 -61.2890625 131.3359375 C-54.17051649 140.37841487 -46.39604281 145.69479766 -35.1015625 147.6484375 C-23.39190611 149.03412178 -13.55129193 145.82028802 -4.2265625 138.5859375 C2.80932813 132.11424564 7.36470808 122.65742016 8.33984375 113.20703125 C8.75271061 101.9264432 5.68039914 92.62005619 -1.9765625 84.2734375 C-9.76317304 76.23989428 -18.35711903 72.19831954 -29.5390625 71.9609375 C-41.525038 72.08527335 -50.57523075 76.40057908 -58.7265625 85.15234375 Z M-156.9765625 104.2734375 C-157.18062658 108.3143547 -157.30444954 112.3539429 -157.4140625 116.3984375 C-157.47271484 117.54054687 -157.53136719 118.68265625 -157.59179688 119.859375 C-157.85135203 125.91561149 -157.85135203 125.91561149 -155.56298828 131.32470703 C-153.78068363 132.89732878 -152.04236177 134.10395272 -149.9765625 135.2734375 C-148.708125 136.03527344 -148.708125 136.03527344 -147.4140625 136.8125 C-120.47354075 148.81484783 -88.92349435 149.70438139 -59.9765625 147.2734375 C-60.8428125 146.3246875 -61.7090625 145.3759375 -62.6015625 144.3984375 C-69.09534243 136.77130919 -72.70727909 128.65844667 -75.9765625 119.2734375 C-77.02295898 119.20350586 -78.06935547 119.13357422 -79.14746094 119.06152344 C-132.75797978 115.42125281 -132.75797978 115.42125281 -152.265625 105.62109375 C-154.77047577 104.12505485 -154.77047577 104.12505485 -156.9765625 104.2734375 Z M-199.9765625 174.2734375 C-200.97782695 189.62072076 -200.97782695 189.62072076 -194.328125 201.00390625 C-188.51917917 206.34357043 -183.45349555 207.57195313 -175.60856628 207.54086304 C-174.7687269 207.54539415 -173.92888752 207.54992526 -173.06359845 207.55459368 C-170.25092043 207.56724854 -167.43843576 207.56561661 -164.62573242 207.56396484 C-162.60844168 207.56994943 -160.59115323 207.57675481 -158.5738678 207.58432007 C-153.0944504 207.60199476 -147.61509545 207.60667608 -142.1356523 207.60795164 C-137.56065947 207.60985091 -132.98568118 207.61720879 -128.41069394 207.62429583 C-117.61582948 207.64058312 -106.82099838 207.64546449 -96.02612305 207.64404297 C-84.89313522 207.64284155 -73.76034126 207.66394268 -62.62740248 207.6955303 C-53.06716156 207.72168841 -43.50698398 207.73241045 -33.94670755 207.73113215 C-28.23771464 207.73062236 -22.52889399 207.73631479 -16.81993675 207.75748825 C-11.44940104 207.77686256 -6.07920204 207.77700044 -0.7086544 207.76245499 C1.2601521 207.76036478 3.22897963 207.7650804 5.19775009 207.7771759 C7.89039122 207.79264445 10.58187364 207.78330978 13.27449036 207.76791382 C14.04931238 207.77820094 14.82413439 207.78848807 15.62243587 207.79908693 C22.02708871 207.71843877 27.13993647 205.71161018 32.046875 201.5625 C32.71589844 200.73878906 32.71589844 200.73878906 33.3984375 199.8984375 C33.85992187 199.35445312 34.32140625 198.81046875 34.796875 198.25 C39.68822018 190.36776859 38.0234375 183.97923384 38.0234375 174.2734375 C14.2634375 174.2734375 -9.4965625 174.2734375 -33.9765625 174.2734375 C-34.3065625 177.5734375 -34.6365625 180.8734375 -34.9765625 184.2734375 C-37.42420752 189.16872753 -40.24682247 191.59990111 -44.9765625 194.2734375 C-48.39111328 194.78137207 -48.39111328 194.78137207 -52.171875 194.79101562 C-53.21211823 194.80152954 -53.21211823 194.80152954 -54.27337646 194.81225586 C-56.54985426 194.82976093 -58.82507361 194.81824121 -61.1015625 194.8046875 C-62.6928735 194.8073846 -64.2841829 194.81126884 -65.87548828 194.81628418 C-69.20426179 194.82216904 -72.53260481 194.81364942 -75.86132812 194.79492188 C-80.11848214 194.77213241 -84.37462734 194.785261 -88.63174438 194.80921173 C-91.91584817 194.82369744 -95.19971457 194.81905114 -98.48382568 194.80870056 C-100.05304078 194.80604091 -101.62227775 194.80927617 -103.19146729 194.81861877 C-105.38863839 194.82883086 -107.58419827 194.8132216 -109.78125 194.79101562 C-111.02890137 194.78783325 -112.27655273 194.78465088 -113.56201172 194.78137207 C-118.78844341 194.00390953 -121.85346504 191.54830488 -125.2890625 187.6484375 C-126.9765625 184.2734375 -126.9765625 184.2734375 -127.9765625 174.2734375 C-151.7365625 174.2734375 -175.4965625 174.2734375 -199.9765625 174.2734375 Z M-118.9765625 174.2734375 C-118.9765625 180.43507524 -118.95129639 181.18179967 -114.9765625 185.2734375 C-112.23550775 186.64396487 -110.02200972 186.42341002 -106.95385742 186.45043945 C-105.05629951 186.46969231 -105.05629951 186.46969231 -103.1204071 186.48933411 C-101.73261913 186.49750172 -100.34482673 186.50494541 -98.95703125 186.51171875 C-98.25902216 186.51579428 -97.56101307 186.5198698 -96.84185219 186.52406883 C-93.1467684 186.54492972 -89.45172174 186.55923084 -85.7565918 186.56860352 C-81.94322645 186.57966322 -78.13044541 186.61405703 -74.31728649 186.65377522 C-71.38242013 186.67994441 -68.44769287 186.6882956 -65.51272011 186.69188499 C-64.10731374 186.6967509 -62.70191359 186.70836521 -61.29662132 186.72692299 C-59.3270413 186.75131401 -57.35717703 186.74792965 -55.38745117 186.7434082 C-54.26763351 186.74927444 -53.14781586 186.75514069 -51.99406433 186.76118469 C-48.29412934 186.16312941 -46.64082226 184.85612044 -43.9765625 182.2734375 C-42.5293489 179.75168831 -42.5293489 179.75168831 -42.9765625 174.2734375 C-68.0565625 174.2734375 -93.1365625 174.2734375 -118.9765625 174.2734375 Z " fill="#000000" transform="translate(208.9765625,28.7265625)"/>
<path d="M0 0 C0.7425 0.2475 1.485 0.495 2.25 0.75 C2.45625 2.02875 2.6625 3.3075 2.875 4.625 C3.35697973 6.8162966 3.35697973 6.8162966 4.25 8.75 C7.02356275 10.64717584 7.02356275 10.64717584 10.25 10.75 C12.34663191 9.40670412 12.34663191 9.40670412 14.25 7.75 C16.875 7.4375 16.875 7.4375 19.25 7.75 C21.25 9.75 21.25 9.75 21.5625 12.1875 C21.25 14.75 21.25 14.75 19.6875 16.0625 C18.03363561 17.62937448 18.03363561 17.62937448 18.2734375 19.7109375 C18.53596877 21.73313779 18.88811752 23.74319713 19.25 25.75 C20.920625 25.7190625 20.920625 25.7190625 22.625 25.6875 C26.25 25.75 26.25 25.75 28.25 26.75 C29 29.125 29 29.125 29.25 31.75 C28.59 32.74 27.93 33.73 27.25 34.75 C23.625 35.4375 23.625 35.4375 20.25 35.75 C19.59 38.06 18.93 40.37 18.25 42.75 C18.745 43.141875 19.24 43.53375 19.75 43.9375 C21.25 45.75 21.25 45.75 21.5625 48.3125 C21.25 50.75 21.25 50.75 19.25 52.75 C16.375 53.0625 16.375 53.0625 13.25 52.75 C12.59 52.21375 11.93 51.6775 11.25 51.125 C10.59 50.67125 9.93 50.2175 9.25 49.75 C6.02825456 50.46223847 6.02825456 50.46223847 3.25 51.75 C3.29125 52.86375 3.3325 53.9775 3.375 55.125 C3.25 58.75 3.25 58.75 1.25 60.75 C-1.1875 61.125 -1.1875 61.125 -3.75 60.75 C-6.15311451 58.51261752 -6.71341425 57.28659096 -6.9375 54 C-6.8446875 52.88625 -6.8446875 52.88625 -6.75 51.75 C-9.9804854 50.37371701 -9.9804854 50.37371701 -13.75 49.75 C-16.69900524 51.47376805 -16.69900524 51.47376805 -18.75 53.75 C-21.1875 53.0625 -21.1875 53.0625 -23.75 51.75 C-24.75 49.375 -24.75 49.375 -24.75 46.75 C-24.255 46.151875 -23.76 45.55375 -23.25 44.9375 C-20.88695286 41.49138959 -22.01367824 38.76630054 -22.75 34.75 C-23.86375 34.79125 -24.9775 34.8325 -26.125 34.875 C-29.75 34.75 -29.75 34.75 -31.75 32.75 C-32 30.25 -32 30.25 -31.75 27.75 C-29.75 25.75 -29.75 25.75 -26.125 25.625 C-24.454375 25.686875 -24.454375 25.686875 -22.75 25.75 C-21.45031555 20.37115494 -21.45031555 20.37115494 -23.25 15.5625 C-23.745 14.964375 -24.24 14.36625 -24.75 13.75 C-24.33974359 9.33974359 -24.33974359 9.33974359 -22.75 7.75 C-17.36292897 7.27114924 -17.36292897 7.27114924 -14.75 9.3125 C-12.71674639 11.10688432 -12.71674639 11.10688432 -9.5 10.4375 C-8.5925 10.210625 -7.685 9.98375 -6.75 9.75 C-6.8325 8.8425 -6.915 7.935 -7 7 C-6.75 3.75 -6.75 3.75 -5.0625 1.3125 C-2.75 -0.25 -2.75 -0.25 0 0 Z M-9.75 20.75 C-12.60746094 23.97380208 -13.64050739 25.98355173 -14.25 30.25 C-13.51494383 35.39539319 -11.40836383 38.28116346 -7.5625 41.6875 C-3.38897139 43.26416636 0.02426194 43.18823366 4.25 41.75 C7.73949411 39.34296121 9.79823355 36.63890753 10.7890625 32.49609375 C11.06269313 28.24041732 10.4242777 26.04953979 8.25 22.3125 C2.30383614 17.23348504 -2.89557085 16.53188976 -9.75 20.75 Z " fill="#000000" transform="translate(180.75,108.25)"/>
<path d="M0 0 C0.77279297 -0.00338379 1.54558594 -0.00676758 2.34179688 -0.01025391 C3.60443359 -0.01605469 3.60443359 -0.01605469 4.89257812 -0.02197266 C5.77300781 -0.01037109 6.6534375 0.00123047 7.56054688 0.01318359 C8.44097656 0.00158203 9.32140625 -0.01001953 10.22851562 -0.02197266 C11.07027344 -0.01810547 11.91203125 -0.01423828 12.77929688 -0.01025391 C13.93848633 -0.00517822 13.93848633 -0.00517822 15.12109375 0 C17.06054688 0.38818359 17.06054688 0.38818359 19.06054688 3.38818359 C18.52000633 7.92872413 18.52000633 7.92872413 17.06054688 9.38818359 C15.64484564 9.4746997 14.22495187 9.49523263 12.80664062 9.48583984 C11.95263672 9.48261719 11.09863281 9.47939453 10.21875 9.47607422 C9.32091797 9.46769531 8.42308594 9.45931641 7.49804688 9.45068359 C6.59634766 9.44617188 5.69464844 9.44166016 4.765625 9.43701172 C2.53053374 9.42518584 0.29557251 9.4087058 -1.93945312 9.38818359 C-3.06445312 6.57568359 -3.06445312 6.57568359 -3.93945312 3.38818359 C-1.93945312 0.38818359 -1.93945312 0.38818359 0 0 Z " fill="#000000" transform="translate(49.939453125,210.61181640625)"/>
<path d="M0 0 C2.375 0.6875 2.375 0.6875 3.375 1.6875 C3.625 4.625 3.625 4.625 3.375 7.6875 C0.375 9.6875 0.375 9.6875 -2.25 9.375 C-4.625 8.6875 -4.625 8.6875 -5.625 7.6875 C-5.875 4.75 -5.875 4.75 -5.625 1.6875 C-2.625 -0.3125 -2.625 -0.3125 0 0 Z " fill="#000000" transform="translate(73.625,74.3125)"/>
<path d="M0 0 C2.375 0.6875 2.375 0.6875 3.375 1.6875 C3.625 4.625 3.625 4.625 3.375 7.6875 C0.375 9.6875 0.375 9.6875 -2.25 9.375 C-4.625 8.6875 -4.625 8.6875 -5.625 7.6875 C-5.875 4.75 -5.875 4.75 -5.625 1.6875 C-2.625 -0.3125 -2.625 -0.3125 0 0 Z " fill="#000000" transform="translate(90.625,155.3125)"/>
<path d="M0 0 C1.11375 0.556875 1.11375 0.556875 2.25 1.125 C2.375 4 2.375 4 2.25 7.125 C0.25 9.125 0.25 9.125 -2.25 9.375 C-4.75 9.125 -4.75 9.125 -6.75 7.125 C-6.875 4 -6.875 4 -6.75 1.125 C-4.02098495 -0.69434337 -3.21400584 -1.02263822 0 0 Z " fill="#000000" transform="translate(91.75,78.875)"/>
<path d="M0 0 C2.5 0.25 2.5 0.25 4.5 2.25 C4.6875 5.3125 4.6875 5.3125 4.5 8.25 C3.5 9.25 3.5 9.25 0 9.375 C-3.5 9.25 -3.5 9.25 -4.5 8.25 C-4.6875 5.3125 -4.6875 5.3125 -4.5 2.25 C-2.5 0.25 -2.5 0.25 0 0 Z " fill="#000000" transform="translate(72.5,150.75)"/>
<path d="M0 0 C2.33294775 -0.04241723 4.66702567 -0.04092937 7 0 C8 1 8 1 8.1875 3.9375 C8 7 8 7 6 9 C3.5 9.25 3.5 9.25 1 9 C0.34 8.34 -0.32 7.68 -1 7 C-0.625 3.375 -0.625 3.375 0 0 Z " fill="#000000" transform="translate(69,113)"/>
<path d="M0 0 C3.0625 0.1875 3.0625 0.1875 5.0625 2.1875 C5.3125 4.6875 5.3125 4.6875 5.0625 7.1875 C3.0625 9.1875 3.0625 9.1875 0.5625 9.4375 C-1.9375 9.1875 -1.9375 9.1875 -3.9375 7.1875 C-4.125 4.125 -4.125 4.125 -3.9375 1.1875 C-2.9375 0.1875 -2.9375 0.1875 0 0 Z " fill="#000000" transform="translate(37.9375,210.8125)"/>
<path d="M0 0 C2.9375 0.1875 2.9375 0.1875 3.9375 1.1875 C4.125 4.125 4.125 4.125 3.9375 7.1875 C1.9375 9.1875 1.9375 9.1875 -0.5625 9.4375 C-3.0625 9.1875 -3.0625 9.1875 -5.0625 7.1875 C-5.3125 4.6875 -5.3125 4.6875 -5.0625 2.1875 C-3.0625 0.1875 -3.0625 0.1875 0 0 Z " fill="#000000" transform="translate(26.0625,210.8125)"/>
<path d="M0 0 C2.5 0.25 2.5 0.25 4.5 2.25 C4.6875 5.3125 4.6875 5.3125 4.5 8.25 C3.5 9.25 3.5 9.25 0.5625 9.4375 C-2.5 9.25 -2.5 9.25 -4.5 7.25 C-4.75 4.75 -4.75 4.75 -4.5 2.25 C-2.5 0.25 -2.5 0.25 0 0 Z " fill="#000000" transform="translate(89.5,116.75)"/>
</svg>
