<?xml version="1.0" encoding="UTF-8"?>
<svg version="1.1" xmlns="http://www.w3.org/2000/svg" width="256" height="256">
<path d="M0 0 C2.81581303 1.96230543 5.48668464 4.01928488 8.13671875 6.19921875 C8.76191406 6.7096875 9.38710937 7.22015625 10.03125 7.74609375 C14.21243724 11.5453927 17.29802732 16.10958435 20.44921875 20.76171875 C20.88242432 21.39924072 21.31562988 22.0367627 21.76196289 22.69360352 C24.20919463 26.41874289 25.92701946 29.86167819 27.13671875 34.19921875 C28.12929687 34.17601562 29.121875 34.1528125 30.14453125 34.12890625 C45.41727309 33.87707453 61.70444592 34.73396598 74.82421875 43.51171875 C78.97732261 45.6274509 81.91562234 45.26296306 86.484375 45.09375 C91.79629469 45.30497508 94.94376585 47.91208536 98.51171875 51.76171875 C101.89835113 56.84166732 101.76286912 62.28463624 101.13671875 68.19921875 C99.55647759 71.25071892 98.32117602 73.32769216 95.5546875 75.36328125 C93.32271381 78.25316454 93.50767711 81.551261 93.26171875 85.07421875 C92.10527484 97.19570183 87.6709152 106.84032881 81.39453125 117.2265625 C79.84777166 120.88210301 79.98441482 122.42409751 81.13671875 126.19921875 C82.34997401 128.59796599 83.59599601 130.88503387 84.94921875 133.19921875 C89.97513925 142.23333603 93.08436023 151.22471106 93.51171875 161.63671875 C93.77235931 166.78094028 95.0367644 169.27786764 98.76171875 172.796875 C101.29470744 175.38023562 101.37108824 178.44127116 101.51171875 181.88671875 C101.43838669 187.46810315 99.86362421 191.07300199 96.13671875 195.19921875 C91.60933336 198.89504356 88.99549335 199.36302166 83.19921875 199.13671875 C77.89916874 198.94625846 75.45642406 199.76085592 71.2421875 202.828125 C58.57768445 211.07532457 41.64287468 210.5119263 27.13671875 210.19921875 C26.88019531 211.070625 26.62367188 211.94203125 26.359375 212.83984375 C20.64610245 228.53765331 7.09390883 241.00531471 -7.56640625 248.21875 C-16.23626851 251.91966059 -28.90017982 251.62738763 -37.80078125 248.69921875 C-53.71257443 241.7821105 -65.62681378 227.67258699 -72.86328125 212.19921875 C-72.86328125 211.53921875 -72.86328125 210.87921875 -72.86328125 210.19921875 C-73.89324219 210.23402344 -74.92320313 210.26882812 -75.984375 210.3046875 C-91.56560308 210.66850188 -107.99653724 209.43803725 -121.35546875 200.5390625 C-124.31294293 198.95897894 -125.93024476 199.00105685 -129.23828125 199.26171875 C-134.80708826 199.41161934 -137.41938435 198.55481437 -141.86328125 195.19921875 C-146.67714386 190.00531435 -147.20678129 185.7978905 -147.15234375 178.9296875 C-146.75232991 175.15117836 -145.33885009 173.02844028 -142.86328125 170.19921875 C-142.34121094 169.81507813 -141.81914062 169.4309375 -141.28125 169.03515625 C-139.04927631 166.14527296 -139.23423961 162.8471765 -138.98828125 159.32421875 C-137.83183734 147.20273567 -133.3974777 137.55810869 -127.12109375 127.171875 C-125.57433416 123.51633449 -125.71097732 121.97433999 -126.86328125 118.19921875 C-128.07653778 115.800469 -129.32242247 113.51333099 -130.67578125 111.19921875 C-135.58178935 102.39048065 -138.77648533 93.48372892 -139.23828125 83.32421875 C-139.56384868 77.52397792 -142.12743364 74.43388692 -145.86328125 70.19921875 C-147.84090857 66.24396411 -147.29191961 61.50941563 -146.86328125 57.19921875 C-145.22452999 52.31858999 -142.11296932 49.03234413 -137.86328125 46.19921875 C-134.60959725 45.11465742 -132.57388457 45.25777631 -129.17578125 45.44921875 C-123.8330743 45.50040636 -121.21061422 44.65417459 -116.96484375 41.5703125 C-104.37885114 33.35900505 -87.32378875 33.86118091 -72.86328125 34.19921875 C-72.59386719 33.31492188 -72.32445313 32.430625 -72.046875 31.51953125 C-66.83181509 16.88982523 -53.85862647 4.10216851 -40.42578125 -3.109375 C-27.60991221 -8.75539048 -11.70817353 -7.36353069 0 0 Z M-54.77734375 21.5625 C-60.37125515 28.23106582 -60.37125515 28.23106582 -62.86328125 36.19921875 C-61.02830078 36.52792969 -61.02830078 36.52792969 -59.15625 36.86328125 C-57.45387669 37.18065556 -55.75209632 37.50121974 -54.05078125 37.82421875 C-53.15238525 37.99445557 -52.25398926 38.16469238 -51.32836914 38.34008789 C-45.78638415 39.44790361 -40.54517038 40.89560648 -35.2199707 42.78149414 C-26.50677226 45.86175795 -21.61665701 46.70968716 -12.86328125 43.19921875 C-9.71581598 42.27060078 -6.54103308 41.45472347 -3.36328125 40.63671875 C-2.54174561 40.41951172 -1.72020996 40.20230469 -0.8737793 39.97851562 C5.08296297 38.41695257 11.0436884 37.11659635 17.13671875 36.19921875 C13.61443999 23.65692453 2.67056598 12.70628609 -8.45703125 6.421875 C-26.71943481 -2.85756057 -42.76792038 7.80433604 -54.77734375 21.5625 Z M-101.42578125 46.01171875 C-102.40611328 46.25970215 -102.40611328 46.25970215 -103.40625 46.51269531 C-107.49858698 47.63050958 -111.1324217 49.19294759 -114.86328125 51.19921875 C-114.53328125 52.37484375 -114.20328125 53.55046875 -113.86328125 54.76171875 C-112.25903892 61.37631213 -112.28556321 66.39091094 -115.6015625 72.40625 C-119.10619954 77.38652369 -124.24600922 78.85107346 -129.86328125 80.19921875 C-129.24756661 91.89779685 -125.14127059 103.34143975 -118.86328125 113.19921875 C-118.20328125 113.19921875 -117.54328125 113.19921875 -116.86328125 113.19921875 C-115.49394246 111.64328874 -114.19383468 110.02624534 -112.92578125 108.38671875 C-106.82050118 100.76002645 -100.22239753 93.67889987 -92.36328125 87.82421875 C-88.1990929 84.21637945 -87.58363518 80.51316665 -86.640625 75.21875 C-85.73461413 70.13378041 -84.24237198 65.21595412 -82.80078125 60.26171875 C-82.4138208 58.91182861 -82.4138208 58.91182861 -82.01904297 57.53466797 C-80.72723035 53.05476563 -79.38161421 48.6089226 -77.86328125 44.19921875 C-86.03741719 43.77641861 -93.47780197 43.99110935 -101.42578125 46.01171875 Z M32.13671875 44.19921875 C32.33305908 44.81740479 32.52939941 45.43559082 32.73168945 46.07250977 C33.6456587 48.96643238 34.54919807 51.86342715 35.44921875 54.76171875 C35.77535156 55.8091626 36.10148438 56.85660645 36.4375 57.93579102 C38.23417186 63.82885659 39.66839947 69.55542697 40.63671875 75.63671875 C41.84794414 82.265425 44.08227285 85.83080543 49.13671875 90.19921875 C49.79285156 90.78832031 50.44898438 91.37742188 51.125 91.984375 C52.46136627 93.16504812 53.8077478 94.33448536 55.1640625 95.4921875 C60.73086775 100.30940313 65.31869823 105.53103959 69.65625 111.4765625 C70.14480469 112.04503906 70.63335937 112.61351563 71.13671875 113.19921875 C71.79671875 113.19921875 72.45671875 113.19921875 73.13671875 113.19921875 C78.73433828 102.99456967 84.13671875 92.09996569 84.13671875 80.19921875 C83.3890625 79.96847656 82.64140625 79.73773438 81.87109375 79.5 C74.91441436 77.19628287 71.43172272 75.44497609 67.88671875 68.88671875 C66.12959889 62.59037258 67.12498736 57.23441293 69.13671875 51.19921875 C56.38325315 45.45796791 46.0299574 43.86578102 32.13671875 44.19921875 Z M-67.86328125 45.19921875 C-75.3116019 59.81183097 -75.3116019 59.81183097 -75.86328125 75.19921875 C-75.38503906 74.833125 -74.90679687 74.46703125 -74.4140625 74.08984375 C-68.27928472 69.59314799 -61.84007717 65.77891349 -55.23828125 62.01171875 C-53.89697144 61.24553223 -53.89697144 61.24553223 -52.52856445 60.46386719 C-47.37729136 57.54857318 -42.18196959 54.79657355 -36.86328125 52.19921875 C-40.23036291 49.95449764 -43.43214115 49.08852703 -47.30078125 48.13671875 C-48.36135742 47.8722998 -48.36135742 47.8722998 -49.44335938 47.60253906 C-55.54771272 46.14663152 -61.58900858 45.43688059 -67.86328125 45.19921875 Z M6.63671875 47.07421875 C5.80785156 47.24824219 4.97898438 47.42226563 4.125 47.6015625 C-0.31230223 48.55392466 -4.58492771 49.65734458 -8.86328125 51.19921875 C-7.26917964 54.38742196 -3.96955524 55.22862966 -0.86328125 56.69921875 C5.33045885 59.70933977 11.33492882 62.94227339 17.26171875 66.44921875 C17.95910156 66.86107422 18.65648437 67.27292969 19.375 67.69726562 C23.37750182 70.08560569 27.28097091 72.58067349 31.13671875 75.19921875 C30.22433963 68.05749252 28.35356485 61.37986848 26.07421875 54.57421875 C25.80464355 53.76807129 25.53506836 52.96192383 25.25732422 52.13134766 C24.20967004 48.37667634 24.20967004 48.37667634 22.13671875 45.19921875 C16.77328801 44.80884246 11.83855819 45.93353545 6.63671875 47.07421875 Z M-135.86328125 57.19921875 C-137.61022117 59.58140956 -137.88604398 60.74396408 -137.73828125 63.69921875 C-136.63886987 66.84039412 -135.5546886 68.23521879 -132.86328125 70.19921875 C-129.90636416 70.9493707 -129.90636416 70.9493707 -126.86328125 70.19921875 C-123.49983636 67.71319426 -122.06270376 66.28496352 -121.30078125 62.13671875 C-121.99433091 58.51484829 -122.90225628 57.3599667 -125.86328125 55.19921875 C-130.16134347 53.5461179 -132.29970505 54.40614551 -135.86328125 57.19921875 Z M77.13671875 57.19921875 C75.57241627 60.3278237 75.78044591 62.755248 76.13671875 66.19921875 C78.67734386 69.1134652 80.36218574 70.03785771 84.13671875 70.82421875 C87.39866531 70.40562519 87.39866531 70.40562519 90.07421875 67.57421875 C92.41373907 64.40513225 92.41373907 64.40513225 92.13671875 61.01171875 C90.8941412 57.49481073 90.8941412 57.49481073 88.13671875 55.19921875 C83.38982099 53.75451073 81.06084741 54.17203378 77.13671875 57.19921875 Z M-35.61328125 61.51171875 C-36.53415527 61.9588623 -37.4550293 62.40600586 -38.40380859 62.86669922 C-51.65755222 69.42640294 -64.12225952 77.21331042 -75.86328125 86.19921875 C-76.54245605 86.59302734 -77.22163086 86.98683594 -77.92138672 87.39257812 C-82.3613877 91.52333086 -81.68379373 100.50832523 -81.96899414 106.37304688 C-82.12551854 110.87853383 -82.14884405 115.37989012 -82.12402344 119.88769531 C-82.11328909 122.19753242 -82.12400059 124.50659222 -82.13671875 126.81640625 C-82.87849866 142.65123132 -82.87849866 142.65123132 -78.53466797 157.25292969 C-76.83683584 158.82543224 -75.18612946 159.93227422 -73.17578125 161.07421875 C-72.50804688 161.50581299 -71.8403125 161.93740723 -71.15234375 162.38208008 C-69.08209166 163.70341945 -66.97875884 164.95193435 -64.86328125 166.19921875 C-63.59405202 166.99372995 -62.32704445 167.79180347 -61.0625 168.59375 C-41.58307529 182.0444409 -41.58307529 182.0444409 -19.86328125 187.19921875 C-16.49278164 186.00290297 -13.31865298 184.46713288 -10.11328125 182.88671875 C-9.18950684 182.4373999 -8.26573242 181.98808105 -7.31396484 181.52514648 C1.10368243 177.35383079 9.15386316 172.72457794 17.00683594 167.57275391 C19.14932224 166.19109091 21.32867856 164.88917627 23.51953125 163.5859375 C24.89410451 162.71044056 26.26660019 161.83167081 27.63671875 160.94921875 C28.26626465 160.59287354 28.89581055 160.23652832 29.54443359 159.86938477 C32.76702292 157.68394546 33.93944743 155.92416201 34.97167969 152.13085938 C36.35762293 142.987044 36.44830131 133.74413606 36.39746094 124.51074219 C36.38672659 122.20090508 36.39743809 119.89184528 36.41015625 117.58203125 C37.15193616 101.74720618 37.15193616 101.74720618 32.80810547 87.14550781 C31.11027334 85.57300526 29.45956696 84.46616328 27.44921875 83.32421875 C26.78148437 82.89262451 26.11375 82.46103027 25.42578125 82.01635742 C23.35552916 80.69501805 21.25219634 79.44650315 19.13671875 78.19921875 C17.86748952 77.40470755 16.60048195 76.60663403 15.3359375 75.8046875 C-8.90202691 59.15337611 -8.90202691 59.15337611 -35.61328125 61.51171875 Z M-95.81347656 102.95996094 C-96.61156738 103.75901855 -96.61156738 103.75901855 -97.42578125 104.57421875 C-97.96428711 105.11208008 -98.50279297 105.64994141 -99.05761719 106.20410156 C-103.70557342 110.91303277 -107.88513294 115.91062159 -111.86328125 121.19921875 C-107.75121166 130.43522846 -99.27405535 138.49974663 -91.86328125 145.19921875 C-91.53328125 145.19921875 -91.20328125 145.19921875 -90.86328125 145.19921875 C-90.86328125 130.01921875 -90.86328125 114.83921875 -90.86328125 99.19921875 C-93.01675225 99.19921875 -94.36363249 101.5307619 -95.81347656 102.95996094 Z M45.13671875 99.19921875 C45.13671875 114.37921875 45.13671875 129.55921875 45.13671875 145.19921875 C49.73272384 141.25978582 53.88748587 137.52920467 57.88671875 133.07421875 C58.35464844 132.56246094 58.82257813 132.05070312 59.3046875 131.5234375 C61.73291158 128.84757584 64.02949426 126.13528487 66.13671875 123.19921875 C62.02464916 113.96320904 53.54749285 105.89869087 46.13671875 99.19921875 C45.80671875 99.19921875 45.47671875 99.19921875 45.13671875 99.19921875 Z M-118.86328125 131.19921875 C-124.46090078 141.40386783 -129.86328125 152.29847181 -129.86328125 164.19921875 C-129.115625 164.42996094 -128.36796875 164.66070312 -127.59765625 164.8984375 C-120.63061943 167.20558451 -117.09847841 168.95234415 -113.61328125 175.57421875 C-111.8442659 181.76577248 -113.17496106 187.18457807 -114.86328125 193.19921875 C-102.10981565 198.94046959 -91.7565199 200.53265648 -77.86328125 200.19921875 C-78.05962158 199.58103271 -78.25596191 198.96284668 -78.45825195 198.32592773 C-79.3722212 195.43200512 -80.27576057 192.53501035 -81.17578125 189.63671875 C-81.50191406 188.5892749 -81.82804687 187.54183105 -82.1640625 186.46264648 C-83.96073436 180.56958091 -85.39496197 174.84301053 -86.36328125 168.76171875 C-87.57450664 162.1330125 -89.80883535 158.56763207 -94.86328125 154.19921875 C-95.51941406 153.61011719 -96.17554688 153.02101562 -96.8515625 152.4140625 C-98.18792877 151.23338938 -99.5343103 150.06395214 -100.890625 148.90625 C-106.45743025 144.08903437 -111.04526073 138.86739791 -115.3828125 132.921875 C-115.87136719 132.35339844 -116.35992187 131.78492188 -116.86328125 131.19921875 C-117.52328125 131.19921875 -118.18328125 131.19921875 -118.86328125 131.19921875 Z M71.13671875 131.19921875 C69.76737996 132.75514876 68.46727218 134.37219216 67.19921875 136.01171875 C61.08448893 143.65021564 54.45762553 150.71004994 46.63671875 156.63671875 C41.72576668 160.89022085 41.32569367 166.05727647 40.13671875 172.19921875 C39.34799707 175.44033903 38.49299059 178.66288514 37.63671875 181.88671875 C37.43473877 182.67014648 37.23275879 183.45357422 37.0246582 184.26074219 C35.61709794 189.6553514 33.96085462 194.93132121 32.13671875 200.19921875 C40.31085469 200.62201889 47.75123947 200.40732815 55.69921875 198.38671875 C56.35277344 198.22139648 57.00632813 198.05607422 57.6796875 197.88574219 C61.77202448 196.76792792 65.4058592 195.20548991 69.13671875 193.19921875 C68.80671875 192.20921875 68.47671875 191.21921875 68.13671875 190.19921875 C66.25690753 183.429174 66.44912962 178.08753613 69.875 171.95703125 C73.42072576 167.01716564 78.52036816 165.54714289 84.13671875 164.19921875 C83.52100411 152.50064065 79.41470809 141.05699775 73.13671875 131.19921875 C72.47671875 131.19921875 71.81671875 131.19921875 71.13671875 131.19921875 Z M-76.86328125 169.19921875 C-75.95090213 176.34094498 -74.08012735 183.01856902 -71.80078125 189.82421875 C-71.53120605 190.63036621 -71.26163086 191.43651367 -70.98388672 192.26708984 C-69.93623254 196.02176116 -69.93623254 196.02176116 -67.86328125 199.19921875 C-57.24022195 199.48196177 -46.96862531 196.06380896 -36.86328125 193.19921875 C-38.45738286 190.01101554 -41.75700726 189.16980784 -44.86328125 187.69921875 C-51.05702135 184.68909773 -57.06149132 181.45616411 -62.98828125 177.94921875 C-63.68566406 177.53736328 -64.38304688 177.12550781 -65.1015625 176.70117188 C-69.10406432 174.31283181 -73.00753341 171.81776401 -76.86328125 169.19921875 Z M30.13671875 169.19921875 C29.41935547 169.74835938 29.41935547 169.74835938 28.6875 170.30859375 C22.55272222 174.80528951 16.11351467 178.61952401 9.51171875 182.38671875 C8.17040894 183.15290527 8.17040894 183.15290527 6.80200195 183.93457031 C1.65072886 186.84986432 -3.54459291 189.60186395 -8.86328125 192.19921875 C-5.49619959 194.44393986 -2.29442135 195.30991047 1.57421875 196.26171875 C2.28126953 196.43799805 2.98832031 196.61427734 3.71679688 196.79589844 C9.82115022 198.25180598 15.86244608 198.96155691 22.13671875 199.19921875 C29.30831731 184.59945702 29.30831731 184.59945702 30.13671875 169.19921875 Z M-136.86328125 178.19921875 C-138.11659142 181.45782519 -138.09608031 182.67235773 -136.67578125 185.88671875 C-134.77948092 188.30613642 -133.79446253 189.33710661 -130.86328125 190.19921875 C-127.71044733 190.04157705 -126.13758662 189.39197388 -123.55078125 187.57421875 C-121.17591306 184.23181167 -121.21922599 182.20667369 -121.86328125 178.19921875 C-124.44497576 175.23786329 -126.0520926 174.33165771 -129.92578125 173.69921875 C-133.57633674 174.3205899 -134.69557748 175.22866173 -136.86328125 178.19921875 Z M77.69921875 175.76171875 C75.53275847 179.14139679 75.57383873 181.25905862 76.13671875 185.19921875 C78.06654292 187.91526758 79.4787265 188.94614481 82.57421875 190.13671875 C85.98382415 190.21987986 87.47454146 189.28579014 90.13671875 187.19921875 C91.88365867 184.81702794 92.15948148 183.65447342 92.01171875 180.69921875 C90.89979687 177.5222991 89.88982712 176.1553747 87.13671875 174.19921875 C83.19655862 173.63633873 81.07889679 173.59525847 77.69921875 175.76171875 Z M-28.52734375 199.625 C-39.91334471 203.22926423 -51.04421689 206.3980551 -62.86328125 208.19921875 C-59.34100249 220.74151297 -48.39712848 231.69215141 -37.26953125 237.9765625 C-29.1333796 242.11067852 -20.90377563 242.44021203 -12.30078125 239.63671875 C0.72088106 234.38043593 11.03389874 222.64418505 17.13671875 210.19921875 C17.13671875 209.53921875 17.13671875 208.87921875 17.13671875 208.19921875 C15.91339844 207.98007813 14.69007813 207.7609375 13.4296875 207.53515625 C2.59416948 205.5201529 -7.76326266 202.86656823 -18.21484375 199.37109375 C-22.64712615 197.94744844 -24.23103642 198.24128489 -28.52734375 199.625 Z " fill="#000000" transform="translate(150.86328125,5.80078125)"/>
<path d="M0 0 C1.4540625 0.0309375 1.4540625 0.0309375 2.9375 0.0625 C5.89746965 5.82406148 8.5163478 11.64657613 10.9765625 17.63671875 C11.34349213 18.52357864 11.71042175 19.41043854 12.08847046 20.32417297 C13.24923829 23.13165206 14.40589921 25.94080204 15.5625 28.75 C16.34609039 30.64659338 17.1299422 32.54307877 17.9140625 34.43945312 C21.73080707 43.6769566 21.73080707 43.6769566 23.12506104 47.08969116 C23.7971448 48.7216818 24.49204639 50.34425492 25.19287109 51.96411133 C26.1531702 54.6702657 25.76603759 56.35092242 24.9375 59.0625 C23.9375 60.0625 23.9375 60.0625 21.0625 60.4375 C17.9375 60.0625 17.9375 60.0625 16.3125 58.1875 C10.9375 45.97159091 10.9375 45.97159091 10.9375 43.0625 C3.6775 43.3925 -3.5825 43.7225 -11.0625 44.0625 C-12.95242664 48.57758503 -12.95242664 48.57758503 -14.83154297 53.09716797 C-16.00154246 55.85982037 -16.9223408 57.9223408 -19.0625 60.0625 C-22.125 60.25 -22.125 60.25 -25.0625 60.0625 C-26.0625 59.0625 -26.0625 59.0625 -26.36230469 56.11303711 C-26.27856802 51.0637323 -24.24701645 46.82479572 -22.265625 42.25390625 C-21.87558289 41.32835434 -21.48554077 40.40280243 -21.0836792 39.44920349 C-19.83823366 36.50271802 -18.57536564 33.56405467 -17.3125 30.625 C-16.47807941 28.6534546 -15.64473502 26.68145335 -14.8125 24.70898438 C-4.37542867 0.08929446 -4.37542867 0.08929446 0 0 Z M-1.0625 17.0625 C-2.06669637 19.5191947 -3.06600501 21.97768353 -4.0625 24.4375 C-4.34867188 25.13617188 -4.63484375 25.83484375 -4.9296875 26.5546875 C-6.50774399 30.19135961 -6.50774399 30.19135961 -7.0625 34.0625 C-2.4425 34.0625 2.1775 34.0625 6.9375 34.0625 C4.6275 28.4525 2.3175 22.8425 -0.0625 17.0625 C-0.3925 17.0625 -0.7225 17.0625 -1.0625 17.0625 Z " fill="#000000" transform="translate(107.0625,97.9375)"/>
<path d="M0 0 C1.02075623 -0.00287018 1.02075623 -0.00287018 2.06213379 -0.00579834 C3.50122446 -0.00715963 4.94032744 -0.00346705 6.37939453 0.00488281 C8.58524087 0.01558372 10.79027281 0.00498628 12.99609375 -0.0078125 C14.39323097 -0.00649089 15.79036768 -0.00392848 17.1875 0 C18.46302734 0.00225586 19.73855469 0.00451172 21.05273438 0.00683594 C24.09375 0.265625 24.09375 0.265625 26.09375 2.265625 C26.34375 4.765625 26.34375 4.765625 26.09375 7.265625 C25.43375 7.925625 24.77375 8.585625 24.09375 9.265625 C20.46375 9.265625 16.83375 9.265625 13.09375 9.265625 C13.09375 23.125625 13.09375 36.985625 13.09375 51.265625 C16.72375 51.265625 20.35375 51.265625 24.09375 51.265625 C26.09375 53.265625 26.09375 53.265625 26.34375 55.765625 C26.09375 58.265625 26.09375 58.265625 24.09375 60.265625 C21.05273438 60.52441406 21.05273438 60.52441406 17.1875 60.53125 C16.16674377 60.53412018 16.16674377 60.53412018 15.12536621 60.53704834 C13.68627554 60.53840963 12.24717256 60.53471705 10.80810547 60.52636719 C8.60225913 60.51566628 6.39722719 60.52626372 4.19140625 60.5390625 C2.79426903 60.53774089 1.39713232 60.53517848 0 60.53125 C-1.27552734 60.52899414 -2.55105469 60.52673828 -3.86523438 60.52441406 C-6.90625 60.265625 -6.90625 60.265625 -8.90625 58.265625 C-9.15625 55.765625 -9.15625 55.765625 -8.90625 53.265625 C-8.24625 52.605625 -7.58625 51.945625 -6.90625 51.265625 C-3.27625 51.265625 0.35375 51.265625 4.09375 51.265625 C4.09375 37.405625 4.09375 23.545625 4.09375 9.265625 C0.46375 9.265625 -3.16625 9.265625 -6.90625 9.265625 C-8.90625 7.265625 -8.90625 7.265625 -9.15625 4.765625 C-8.59623774 -0.83449764 -4.66366292 0.00824801 0 0 Z " fill="#000000" transform="translate(144.90625,97.734375)"/>
</svg>
