<?xml version="1.0" encoding="UTF-8"?>
<svg version="1.1" xmlns="http://www.w3.org/2000/svg" width="256" height="256">
<path d="M0 0 C14.20236194 -0.58621381 29.87000566 4.09088935 40.7109375 13.5 C41.45214844 14.23476563 42.19335938 14.96953125 42.95703125 15.7265625 C45.72674843 18.52065162 45.72674843 18.52065162 49.41796875 19.40625 C51.80404473 19.15362179 51.80404473 19.15362179 53.9765625 18.56640625 C56.32094009 18.10470282 57.74120182 18.55746326 60.01953125 19.1640625 C62.35439292 18.25219781 62.35439292 18.25219781 63.45703125 15.1640625 C65.01953125 12.1640625 65.01953125 12.1640625 68.01953125 11.1640625 C77.01310727 10.73579698 77.01310727 10.73579698 80.01953125 13.1640625 C80.34953125 14.0096875 80.67953125 14.8553125 81.01953125 15.7265625 C81.75702368 18.33803124 81.75702368 18.33803124 84.08203125 19.0390625 C84.72140625 19.0803125 85.36078125 19.1215625 86.01953125 19.1640625 C86.34953125 18.8340625 86.67953125 18.5040625 87.01953125 18.1640625 C89.97177197 17.75212193 92.11910498 17.6080389 94.71484375 19.2109375 C96.90468245 21.00935576 98.74113659 22.60727319 100.01953125 25.1640625 C100.16328547 28.54228666 100.09489473 30.93797205 99.01953125 34.1640625 C100.65680488 35.96506349 101.92392485 37.11907125 104.14453125 38.1640625 C106.01953125 39.1640625 106.01953125 39.1640625 107.01953125 42.1640625 C107.13640463 43.63992865 107.19454867 45.12112862 107.20703125 46.6015625 C107.22121094 47.36339844 107.23539063 48.12523437 107.25 48.91015625 C107.01953125 51.1640625 107.01953125 51.1640625 105.828125 53.12890625 C105.56128906 53.80050781 105.29445312 54.47210938 105.01953125 55.1640625 C106.09542166 57.77200923 106.09542166 57.77200923 107.89453125 60.2890625 C111.01953125 65.01159613 111.01953125 65.01159613 111.01953125 67.1640625 C111.674375 67.23882812 112.32921875 67.31359375 113.00390625 67.390625 C124.71888076 69.07837557 134.57452545 73.81607316 142.01953125 83.1640625 C151.03033383 95.56963257 153.89742503 109.07420197 152.01953125 124.1640625 C149.54795294 133.96623688 144.68742369 141.03177008 136.20703125 146.4140625 C128.72091261 150.87814665 121.39065573 152.61907149 112.75195312 152.52050781 C111.87442383 152.52255219 110.99689453 152.52459656 110.09277344 152.52670288 C107.22438966 152.52968437 104.35659559 152.51132229 101.48828125 152.4921875 C99.48571922 152.4891268 97.48315505 152.48725304 95.48059082 152.48651123 C91.30142972 152.48192571 87.12246321 152.46756004 82.94335938 152.4453125 C77.57520553 152.41688468 72.20720362 152.40608445 66.83898163 152.4016304 C62.712753 152.3974859 58.58655531 152.38767897 54.46034241 152.37575531 C52.4794998 152.37004497 50.4986542 152.3652888 48.51780701 152.36148834 C45.76246834 152.35465284 43.00725283 152.34103739 40.25195312 152.32519531 C39.42812134 152.32407745 38.60428955 152.32295959 37.75549316 152.32180786 C32.13422884 152.27876009 32.13422884 152.27876009 31.01953125 151.1640625 C30.76953125 148.7265625 30.76953125 148.7265625 31.01953125 146.1640625 C34.80352443 143.64140038 37.80560049 143.88572887 42.18774414 143.90869141 C43.43714783 143.90326073 43.43714783 143.90326073 44.71179199 143.89772034 C46.52222155 143.8908236 48.3326719 143.88832142 50.14311409 143.88966751 C53.01526534 143.89063276 55.88704229 143.87768813 58.75914001 143.86068726 C66.92590374 143.81443195 75.09263133 143.78983498 83.25952148 143.78320312 C88.25576704 143.77816768 93.25162563 143.75380821 98.24773979 143.71787643 C100.14576321 143.70811896 102.04384015 143.70572421 103.94188118 143.71104813 C116.21061142 143.74382655 127.03068244 143.7029601 136.55078125 134.87890625 C143.14584615 127.17881718 143.7586671 117.95078009 143.23291016 108.2578125 C142.02745986 96.42950391 134.86832677 88.12282392 126.14453125 80.7265625 C120.47185774 77.89022575 114.30556468 76.56321119 108.08203125 75.4765625 C104.07757394 73.76036651 103.30440541 71.73769966 101.6484375 67.84375 C101.44089844 67.28945312 101.23335937 66.73515625 101.01953125 66.1640625 C100.57222656 66.72996094 100.12492188 67.29585938 99.6640625 67.87890625 C99.05949219 68.61238281 98.45492187 69.34585938 97.83203125 70.1015625 C96.94451172 71.19791016 96.94451172 71.19791016 96.0390625 72.31640625 C93.64207662 74.50939333 92.22420178 74.88365383 89.01953125 75.1640625 C86.67787626 74.89534799 84.34068836 74.57367846 82.01953125 74.1640625 C81.54515625 75.1334375 81.07078125 76.1028125 80.58203125 77.1015625 C79.01953125 80.1640625 79.01953125 80.1640625 78.01953125 81.1640625 C76.06650723 81.34187513 74.1051243 81.43189671 72.14453125 81.4765625 C71.07460937 81.51394531 70.0046875 81.55132812 68.90234375 81.58984375 C66.01953125 81.1640625 66.01953125 81.1640625 64.13671875 79.33203125 C63.01953125 77.1640625 63.01953125 77.1640625 63.01953125 74.1640625 C60.66585412 73.4762389 60.66585412 73.4762389 58.01953125 73.1640625 C57.02953125 73.8240625 56.03953125 74.4840625 55.01953125 75.1640625 C51.07287366 75.27369188 48.95996215 73.51157199 46.14453125 70.9765625 C43.01953125 67.68922484 43.01953125 67.68922484 43.01953125 63.8515625 C44.01953125 61.1640625 44.01953125 61.1640625 45.01953125 59.1640625 C44.62014358 57.06585035 44.62014358 57.06585035 44.01953125 55.1640625 C42.84390625 54.9784375 42.84390625 54.9784375 41.64453125 54.7890625 C39.01953125 54.1640625 39.01953125 54.1640625 37.01953125 52.1640625 C36.6484375 49.44921875 36.6484375 49.44921875 36.58203125 46.2265625 C36.54207031 45.16566406 36.50210938 44.10476562 36.4609375 43.01171875 C37.01953125 40.1640625 37.01953125 40.1640625 39.421875 38.34765625 C40.27910156 37.95707031 41.13632813 37.56648438 42.01953125 37.1640625 C42.67953125 36.8340625 43.33953125 36.5040625 44.01953125 36.1640625 C43.89835491 30.34759798 42.22142708 27.34670659 38.2265625 23.1484375 C27.80160832 13.77520436 14.43801242 8.78176315 0.4296875 9.015625 C-13.69077292 9.88528059 -27.26352735 16.08242633 -37.046875 26.328125 C-46.27036376 37.60349139 -50.1066893 50.10804681 -50.671875 64.51171875 C-50.98046875 67.1640625 -50.98046875 67.1640625 -52.98046875 69.1640625 C-55.26011406 69.64214668 -57.55530917 70.04716588 -59.85546875 70.4140625 C-71.01661518 72.44884908 -81.03521012 76.85215673 -87.98046875 86.1640625 C-94.52052232 97.2978955 -97.10207298 108.37400925 -94.33203125 121.15625 C-91.01351176 130.26090603 -85.29101568 136.07061444 -76.60546875 140.15625 C-70.15953983 142.63102628 -64.69797847 143.46314391 -57.8359375 143.5078125 C-56.55944084 143.5297467 -56.55944084 143.5297467 -55.25715637 143.55212402 C-51.6413926 143.61407355 -48.02547009 143.65419657 -44.40942383 143.69580078 C-41.75974312 143.72942797 -39.11043143 143.77452855 -36.4609375 143.8203125 C-35.64014206 143.8255896 -34.81934662 143.8308667 -33.97367859 143.83630371 C-28.20616874 143.93836251 -28.20616874 143.93836251 -25.98046875 146.1640625 C-25.79296875 148.7265625 -25.79296875 148.7265625 -25.98046875 151.1640625 C-28.08373807 153.26733182 -32.68409884 152.37711752 -35.58984375 152.40234375 C-36.90653046 152.41445137 -36.90653046 152.41445137 -38.24981689 152.42680359 C-40.11948662 152.44067498 -41.989182 152.45138338 -43.85888672 152.45922852 C-46.67727585 152.47624141 -49.49442924 152.52007211 -52.3125 152.56445312 C-67.38336646 152.69514037 -81.30183501 150.95248923 -92.9765625 140.3515625 C-102.8779916 129.79003812 -104.46025349 119.01643189 -104.2578125 105.16796875 C-104.03609577 99.23015216 -102.76017831 94.42133929 -99.98046875 89.1640625 C-99.54476562 88.30683594 -99.1090625 87.44960937 -98.66015625 86.56640625 C-93.22137519 76.71418809 -84.92799877 68.02187836 -73.97167969 64.52246094 C-69.34748671 63.2192605 -64.68028961 62.15533985 -59.98046875 61.1640625 C-59.82191406 60.07609375 -59.66335937 58.988125 -59.5 57.8671875 C-57.37824753 44.16185575 -53.57895317 33.26322471 -44.98046875 22.1640625 C-44.05427734 20.92462891 -44.05427734 20.92462891 -43.109375 19.66015625 C-33.55900001 8.46256062 -18.5392286 1.81796351 -4.0546875 0.328125 C-2.70292848 0.22120621 -1.35135195 0.11194632 0 0 Z M71.01953125 19.1640625 C70.80296875 20.2778125 70.80296875 20.2778125 70.58203125 21.4140625 C68.50070533 25.07719611 66.24666167 25.966801 62.41796875 27.515625 C58.90203225 28.46618764 56.52125106 28.05811862 53.01953125 27.1640625 C53.05433594 27.73253906 53.08914062 28.30101562 53.125 28.88671875 C53.32066525 34.46783699 52.88949806 38.31480823 50.01953125 43.1640625 C47.33203125 44.6015625 47.33203125 44.6015625 45.01953125 45.1640625 C45.34953125 46.1540625 45.67953125 47.1440625 46.01953125 48.1640625 C46.63828125 48.2465625 47.25703125 48.3290625 47.89453125 48.4140625 C50.01953125 49.1640625 50.01953125 49.1640625 51.76953125 52.3515625 C53.4699137 56.85203126 53.54622416 60.58398377 52.01953125 65.1640625 C52.67953125 65.4940625 53.33953125 65.8240625 54.01953125 66.1640625 C55.00953125 65.6690625 55.00953125 65.6690625 56.01953125 65.1640625 C61.06494107 64.69472205 64.59993812 65.69928941 69.01953125 68.1640625 C70.45703125 70.8515625 70.45703125 70.8515625 71.01953125 73.1640625 C71.67953125 73.1640625 72.33953125 73.1640625 73.01953125 73.1640625 C73.20515625 72.4009375 73.39078125 71.6378125 73.58203125 70.8515625 C75.2204268 67.78847516 76.70793853 66.867572 79.93359375 65.65625 C83.61564797 64.78745069 87.26438373 64.93415551 91.01953125 65.1640625 C90.77203125 64.1946875 90.52453125 63.2253125 90.26953125 62.2265625 C89.56652732 57.30553501 91.3125398 53.23295648 94.01953125 49.1640625 C96.76953125 47.6015625 96.76953125 47.6015625 99.01953125 47.1640625 C99.01953125 46.5040625 99.01953125 45.8440625 99.01953125 45.1640625 C98.09140625 44.8340625 97.16328125 44.5040625 96.20703125 44.1640625 C92.48972642 41.83163594 91.70118364 40.35791304 90.41015625 36.3046875 C89.80736966 33.001417 90.2725727 30.423518 91.01953125 27.1640625 C90.05015625 27.4115625 89.08078125 27.6590625 88.08203125 27.9140625 C83.16100376 28.61706643 79.08842523 26.87105395 75.01953125 24.1640625 C73.45703125 21.4140625 73.45703125 21.4140625 73.01953125 19.1640625 C72.35953125 19.1640625 71.69953125 19.1640625 71.01953125 19.1640625 Z " fill="#000000" transform="translate(103.98046875,22.8359375)"/>
<path d="M0 0 C4.0218474 -0.15905611 7.69242697 -0.28167839 11.07421875 2.10546875 C12.11715526 4.78106503 12.56774936 7.25082312 13.07421875 10.10546875 C14.50956716 10.32814335 15.947674 10.53308781 17.38671875 10.73046875 C18.18722656 10.84648438 18.98773438 10.9625 19.8125 11.08203125 C22.3614509 11.32080282 22.3614509 11.32080282 25.07421875 9.10546875 C28.4762744 8.55980352 29.69969166 8.83752409 32.53125 10.86328125 C33.30855469 11.64445312 34.08585937 12.425625 34.88671875 13.23046875 C35.67691406 13.99617188 36.46710938 14.761875 37.28125 15.55078125 C39.48362155 18.68880084 39.50666991 20.3456875 39.07421875 24.10546875 C38.51734375 25.62140625 38.51734375 25.62140625 37.94921875 27.16796875 C36.87451393 30.03296445 36.87451393 30.03296445 37.44921875 32.79296875 C39.60540913 35.86139352 41.79174969 36.43714203 45.296875 37.52734375 C47.07421875 38.10546875 47.07421875 38.10546875 48.07421875 39.10546875 C48.22771011 41.57904112 48.3058176 44.00551394 48.32421875 46.48046875 C48.34484375 47.16625 48.36546875 47.85203125 48.38671875 48.55859375 C48.42589696 53.59299372 48.42589696 53.59299372 46.75 56.03515625 C45.07421875 57.10546875 45.07421875 57.10546875 42.01171875 57.85546875 C38.71183923 58.86256494 38.71183923 58.86256494 37.57421875 62.54296875 C36.6581157 66.20168944 36.6581157 66.20168944 39.07421875 69.10546875 C39.64664889 72.25383453 39.62131719 74.22718363 37.90625 76.98046875 C34.71257141 80.92125466 33.04258928 82.11812054 28.07421875 84.10546875 C28.07421875 98.29546875 28.07421875 112.48546875 28.07421875 127.10546875 C31.37421875 127.10546875 34.67421875 127.10546875 38.07421875 127.10546875 C39.06421875 125.12546875 39.06421875 125.12546875 40.07421875 123.10546875 C41.95438016 120.99968797 43.36991718 120.21493884 46.16015625 119.78125 C50.29569436 119.58202973 52.49546606 119.74374832 56.07421875 121.98046875 C59.36021868 125.47184367 59.48883009 128.12282979 59.40625 132.77734375 C58.80522422 136.99159509 57.39174627 138.39728302 54.07421875 141.10546875 C50.99534058 142.15817342 48.30894649 142.46361962 45.07421875 142.10546875 C39.67662839 139.31028803 39.67662839 139.31028803 38.07421875 136.10546875 C34.91182193 135.80734304 31.79449419 135.68958603 28.62109375 135.62695312 C23.51583684 135.42333879 23.51583684 135.42333879 21.38005066 133.8860321 C19.66118622 131.54227943 19.67828902 130.06864831 19.6418457 127.17504883 C19.62205154 126.17423782 19.60225739 125.17342682 19.5818634 124.14228821 C19.57547348 123.0640831 19.56908356 121.98587799 19.5625 120.875 C19.5445488 119.7694426 19.5265976 118.66388519 19.50810242 117.52482605 C19.45386448 113.9892459 19.42005983 110.45380179 19.38671875 106.91796875 C19.35355766 104.52276747 19.31906915 102.12758418 19.28320312 99.73242188 C19.19813029 93.85689281 19.12983757 87.98134643 19.07421875 82.10546875 C17.42421875 82.76546875 15.77421875 83.42546875 14.07421875 84.10546875 C13.95834968 92.64162948 13.86951717 101.17746151 13.81515789 109.71421432 C13.78906743 113.67824842 13.75368112 117.64174438 13.69702148 121.60546875 C13.64267949 125.43101535 13.61279406 129.25604454 13.59983253 133.08194733 C13.59059634 134.54125363 13.57255953 136.00053171 13.54556847 137.45961761 C13.50924448 139.50462434 13.50427412 141.54749583 13.5065918 143.59277344 C13.49548874 144.7563739 13.48438568 145.91997437 13.47294617 147.11883545 C14.25807899 151.01873692 15.8598436 151.92022701 19.07421875 154.10546875 C20.80546996 157.56797118 20.55237099 161.31955104 20.07421875 165.10546875 C18.03140821 168.53447215 15.97713788 171.02132455 12.07421875 172.10546875 C7.03592413 172.02549582 5.04606817 171.911897 1.13671875 168.66796875 C-1.53169759 165.3526636 -2.12253152 163.95473849 -1.80078125 159.79296875 C-1.75695312 159.03371094 -1.713125 158.27445313 -1.66796875 157.4921875 C-0.92578125 155.10546875 -0.92578125 155.10546875 1.57641602 153.26611328 C5.15439583 149.77022256 4.7114083 145.59671211 4.79316711 140.84843445 C4.78923447 139.62743546 4.78530182 138.40643646 4.78125 137.1484375 C4.80393196 135.26128777 4.80393196 135.26128777 4.82707214 133.33601379 C4.86273131 130.00331048 4.87710736 126.67190609 4.88110352 123.33911133 C4.8904493 119.93358864 4.9278716 116.52838521 4.96289062 113.12304688 C5.02582022 106.45051377 5.06069257 99.778275 5.07421875 93.10546875 C2.76421875 93.10546875 0.45421875 93.10546875 -1.92578125 93.10546875 C-1.92356064 93.76723618 -1.92134003 94.4290036 -1.91905212 95.11082458 C-1.8970016 101.97207095 -1.88187563 108.83330732 -1.87084961 115.69458008 C-1.86580755 118.25838632 -1.85897411 120.82218966 -1.8503418 123.38598633 C-1.83827061 127.06201896 -1.83255183 130.73801373 -1.828125 134.4140625 C-1.82296371 135.56821152 -1.81780243 136.72236053 -1.81248474 137.91148376 C-1.81240921 138.97250809 -1.81233368 140.03353241 -1.81225586 141.12670898 C-1.81003525 142.06602768 -1.80781464 143.00534637 -1.80552673 143.97312927 C-1.92578125 146.10546875 -1.92578125 146.10546875 -2.92578125 147.10546875 C-6.04102846 147.20403801 -9.138159 147.24261384 -12.25390625 147.24609375 C-14.18751174 147.26442549 -16.12110582 147.28399614 -18.0546875 147.3046875 C-21.11396438 147.33364584 -24.17251082 147.35546823 -27.23193359 147.35595703 C-30.17742268 147.35929281 -33.1212122 147.39385745 -36.06640625 147.43359375 C-37.43384979 147.4229892 -37.43384979 147.4229892 -38.82891846 147.41217041 C-43.41962853 147.50007372 -45.30313969 147.59990849 -48.97949219 150.58496094 C-49.62176758 151.41672852 -50.26404297 152.24849609 -50.92578125 153.10546875 C-52.47561386 154.65530136 -53.96246503 154.38679836 -56.11328125 154.48046875 C-59.44376159 154.42203927 -61.68446964 154.10889741 -64.42578125 152.16796875 C-67.24352648 148.71623084 -67.95284341 146.69426891 -68.1640625 142.32421875 C-67.78024316 138.75029444 -66.29337851 136.72902247 -63.92578125 134.10546875 C-60.13575168 131.72974791 -57.36294077 131.96558532 -53.0546875 132.5546875 C-50.09279084 133.32097636 -48.65786763 134.62030134 -46.92578125 137.10546875 C-46.92578125 137.76546875 -46.92578125 138.42546875 -46.92578125 139.10546875 C-34.71578125 139.10546875 -22.50578125 139.10546875 -9.92578125 139.10546875 C-9.92578125 120.62546875 -9.92578125 102.14546875 -9.92578125 83.10546875 C-11.57578125 82.77546875 -13.22578125 82.44546875 -14.92578125 82.10546875 C-15.91578125 81.61046875 -15.91578125 81.61046875 -16.92578125 81.10546875 C-16.91911942 82.01962051 -16.91911942 82.01962051 -16.912323 82.95223999 C-16.86817718 89.27835757 -16.83795138 95.6044316 -16.81591797 101.93066406 C-16.80584201 104.29363786 -16.79218096 106.65659914 -16.77490234 109.01953125 C-16.75072401 112.41018763 -16.73931426 115.80067959 -16.73046875 119.19140625 C-16.72014618 120.25289886 -16.70982361 121.31439148 -16.69918823 122.40805054 C-16.69896164 123.87934921 -16.69896164 123.87934921 -16.69873047 125.38037109 C-16.69428925 126.24640961 -16.68984802 127.11244812 -16.68527222 128.00473022 C-16.92578125 130.10546875 -16.92578125 130.10546875 -18.92578125 132.10546875 C-21.43188477 132.34838867 -21.43188477 132.34838867 -24.5546875 132.3359375 C-25.67166016 132.33400391 -26.78863281 132.33207031 -27.93945312 132.33007812 C-29.11056641 132.31783203 -30.28167969 132.30558594 -31.48828125 132.29296875 C-32.66326172 132.29232422 -33.83824219 132.29167969 -35.04882812 132.29101562 C-43.78565984 132.24559016 -43.78565984 132.24559016 -44.92578125 131.10546875 C-45.05078125 128.10546875 -45.05078125 128.10546875 -44.92578125 125.10546875 C-44.59578125 124.77546875 -44.26578125 124.44546875 -43.92578125 124.10546875 C-37.65578125 124.10546875 -31.38578125 124.10546875 -24.92578125 124.10546875 C-24.92578125 110.90546875 -24.92578125 97.70546875 -24.92578125 84.10546875 C-26.24578125 83.44546875 -27.56578125 82.78546875 -28.92578125 82.10546875 C-31.64304666 80.04989272 -33.96511317 77.90238719 -35.92578125 75.10546875 C-35.92578125 71.48046875 -35.92578125 71.48046875 -34.92578125 68.10546875 C-34.0330179 64.35586267 -33.96001411 61.86122985 -34.92578125 58.10546875 C-36.84390625 57.76515625 -36.84390625 57.76515625 -38.80078125 57.41796875 C-42.70336132 56.41129615 -42.70336132 56.41129615 -44.42578125 54.04296875 C-45.43486721 48.11458874 -45.75284167 42.58289831 -42.92578125 37.10546875 C-40.28578125 36.77546875 -37.64578125 36.44546875 -34.92578125 36.10546875 C-34.70310665 34.67012034 -34.49816219 33.2320135 -34.30078125 31.79296875 C-34.18476562 30.99246094 -34.06875 30.19195312 -33.94921875 29.3671875 C-33.71044718 26.8182366 -33.71044718 26.8182366 -35.92578125 24.10546875 C-36.01814369 19.30262161 -34.93653644 16.66930066 -31.73828125 13.23046875 C-28.57333521 10.36264009 -26.33948351 8.91765163 -21.92578125 9.10546875 C-20.93578125 9.64171875 -19.94578125 10.17796875 -18.92578125 10.73046875 C-15.96037121 12.46975038 -15.96037121 12.46975038 -12.73828125 11.29296875 C-9.35821578 8.66402894 -8.93866528 6.78598416 -7.68359375 2.84765625 C-6.92578125 1.10546875 -6.92578125 1.10546875 -4.73828125 0.10546875 C-3.15846295 0.10546875 -1.57745437 0.08639202 0 0 Z M-0.92578125 8.10546875 C-1.35890625 9.96171875 -1.35890625 9.96171875 -1.80078125 11.85546875 C-2.85495517 14.68165884 -3.57335493 15.86988628 -6.10546875 17.5625 C-12.59660361 20.35427989 -17.20781647 20.34479034 -23.92578125 18.10546875 C-24.91578125 19.42546875 -25.90578125 20.74546875 -26.92578125 22.10546875 C-26.57515625 22.62109375 -26.22453125 23.13671875 -25.86328125 23.66796875 C-23.99272978 28.53140257 -25.80154322 33.22820127 -27.55078125 37.91796875 C-28.70089187 40.4226541 -29.32277863 41.76902952 -31.74609375 43.12109375 C-33.67578125 43.66796875 -33.67578125 43.66796875 -36.92578125 44.10546875 C-36.92578125 45.75546875 -36.92578125 47.40546875 -36.92578125 49.10546875 C-35.06953125 49.53859375 -35.06953125 49.53859375 -33.17578125 49.98046875 C-30.321842 51.03804553 -29.16536133 51.7322767 -27.50390625 54.3203125 C-25.1098551 60.08858792 -23.82055397 64.92794032 -25.92578125 70.98046875 C-26.25578125 71.68171875 -26.58578125 72.38296875 -26.92578125 73.10546875 C-26.26578125 73.76546875 -25.60578125 74.42546875 -24.92578125 75.10546875 C-22.39649172 74.76367287 -20.03550431 74.13655695 -17.58203125 73.44140625 C-14.34242559 73.03169142 -12.69483683 73.71453152 -9.73828125 75.04296875 C-6.44654039 76.60968589 -6.44654039 76.60968589 -2.92578125 77.10546875 C-2.26578125 79.74546875 -1.60578125 82.38546875 -0.92578125 85.10546875 C0.72421875 85.10546875 2.37421875 85.10546875 4.07421875 85.10546875 C4.34234375 84.05359375 4.61046875 83.00171875 4.88671875 81.91796875 C6.49994959 78.10981326 8.71640266 76.87579784 12.38671875 75.10546875 C16.69113364 73.36780258 19.54734771 72.55970791 24.07421875 74.10546875 C26.22155802 74.81061721 26.22155802 74.81061721 28.07421875 75.10546875 C28.73421875 74.44546875 29.39421875 73.78546875 30.07421875 73.10546875 C29.66749118 70.82779433 28.94688602 68.73256575 28.19921875 66.54296875 C28.0003879 61.07512041 30.08036765 56.62886606 33.07421875 52.10546875 C35.47422898 50.36360566 37.15313525 49.85005866 40.07421875 49.10546875 C40.07421875 47.45546875 40.07421875 45.80546875 40.07421875 44.10546875 C38.81609375 43.98171875 37.55796875 43.85796875 36.26171875 43.73046875 C34.05078125 43.1953125 34.05078125 43.1953125 32.07421875 42.10546875 C30.37169102 38.91180096 29.71667611 35.6469486 29.07421875 32.10546875 C28.76484375 30.80996094 28.76484375 30.80996094 28.44921875 29.48828125 C27.94389118 26.27734562 28.89638866 24.08468603 30.07421875 21.10546875 C29.08421875 20.11546875 28.09421875 19.12546875 27.07421875 18.10546875 C26.53796875 18.43546875 26.00171875 18.76546875 25.44921875 19.10546875 C20.65772975 21.1229378 16.67967075 20.1821895 11.88671875 18.60546875 C8.99864866 17.40681109 7.46088267 16.71028038 5.765625 14.05859375 C4.94921875 11.85546875 4.94921875 11.85546875 4.07421875 8.10546875 C2.42421875 8.10546875 0.77421875 8.10546875 -0.92578125 8.10546875 Z M47.07421875 128.10546875 C46.41421875 129.42546875 45.75421875 130.74546875 45.07421875 132.10546875 C46.95738034 133.21383298 46.95738034 133.21383298 49.07421875 134.10546875 C49.73421875 133.77546875 50.39421875 133.44546875 51.07421875 133.10546875 C50.74421875 131.45546875 50.41421875 129.80546875 50.07421875 128.10546875 C49.08421875 128.10546875 48.09421875 128.10546875 47.07421875 128.10546875 Z M-57.92578125 140.10546875 C-59.03414548 141.98863034 -59.03414548 141.98863034 -59.92578125 144.10546875 C-59.59578125 144.76546875 -59.26578125 145.42546875 -58.92578125 146.10546875 C-57.27578125 145.77546875 -55.62578125 145.44546875 -53.92578125 145.10546875 C-53.92578125 143.78546875 -53.92578125 142.46546875 -53.92578125 141.10546875 C-55.24578125 140.77546875 -56.56578125 140.44546875 -57.92578125 140.10546875 Z M7.07421875 158.10546875 C6.74421875 159.42546875 6.41421875 160.74546875 6.07421875 162.10546875 C8.05421875 163.09546875 8.05421875 163.09546875 10.07421875 164.10546875 C10.73421875 163.44546875 11.39421875 162.78546875 12.07421875 162.10546875 C11.75570105 159.99726078 11.75570105 159.99726078 11.07421875 158.10546875 C9.75421875 158.10546875 8.43421875 158.10546875 7.07421875 158.10546875 Z " fill="#000000" transform="translate(104.92578125,60.89453125)"/>
<path d="M0 0 C5.01756392 4.56516062 8.42188293 10.97759852 8.8828125 17.76953125 C8.62145859 25.59562878 6.85268385 31.87329409 1.171875 37.5 C-4.71053344 42.81974328 -10.26652009 44.75558824 -18.1875 44.875 C-24.51826636 44.13777582 -30.50460127 41.76142898 -34.88671875 37.046875 C-40.61522011 29.77875221 -42.17237635 23.05865222 -41.1875 13.875 C-39.34179502 6.17011076 -34.48336959 1.40846947 -28.1875 -3.125 C-19.02702433 -7.90437861 -8.18572443 -5.45714962 0 0 Z M-30.625 9.9375 C-33.08947379 14.57071073 -33.87599314 18.67305186 -33.1875 23.875 C-31.41466569 28.65394465 -28.55475449 32.2546473 -24.1875 34.875 C-19.67964595 36.61941862 -15.68517929 37.39152116 -11 35.9375 C-6.06800265 33.74769318 -2.57679021 29.65358042 -0.1875 24.875 C0.32572348 19.72593815 0.43225846 15.26945654 -1.6875 10.5 C-5.7683906 6.21506487 -10.07044018 2.66170223 -16.1875 2.3125 C-22.28685243 2.75674417 -26.84698582 5.19076424 -30.625 9.9375 Z " fill="#000000" transform="translate(123.1875,88.125)"/>
<path d="M0 0 C9.63735808 3.46771505 14.86332221 9.04173503 19.23828125 18.10546875 C22.00552956 24.98811198 22.38223951 34.22140057 20.31640625 41.36328125 C17.33451153 46.94350747 12.09258273 51.00251243 6.30752563 53.3868103 C1.03195484 54.78871267 -4.53860576 54.40190841 -9.95703125 54.36328125 C-11.3098704 54.36276193 -12.6627103 54.3632824 -14.01554871 54.36479187 C-16.83722335 54.36470256 -19.65860979 54.3543519 -22.48022461 54.33618164 C-26.09966622 54.31338635 -29.71869149 54.31297427 -33.33818531 54.31969929 C-36.12539893 54.32303517 -38.9125172 54.31641825 -41.69971275 54.30657005 C-43.68398121 54.30084772 -45.66826589 54.30215411 -47.65254211 54.30354309 C-48.85106308 54.29401108 -50.04958405 54.28447906 -51.28442383 54.2746582 C-52.34252762 54.27005081 -53.40063141 54.26544342 -54.49079895 54.26069641 C-57 54 -57 54 -59 52 C-58.75 49.4375 -58.75 49.4375 -58 47 C-55.39332952 45.69666476 -53.46307483 45.86109962 -50.54394531 45.84228516 C-49.40225891 45.83202301 -48.26057251 45.82176086 -47.08428955 45.81118774 C-45.84475525 45.80388641 -44.60522095 45.79658508 -43.328125 45.7890625 C-40.71874376 45.76099062 -38.10936884 45.73232614 -35.5 45.703125 C-31.37438339 45.66071705 -27.24880526 45.62394947 -23.12304688 45.59863281 C-19.14952529 45.57359445 -15.17642995 45.52514612 -11.203125 45.4765625 C-9.97168762 45.47330963 -8.74025024 45.47005676 -7.47149658 45.46670532 C-1.46551168 45.3805073 2.89622239 45.26273341 8 42 C8.66 42 9.32 42 10 42 C12.9013059 35.60314481 13.18777599 28.95004575 11.16015625 22.20703125 C8.46207276 16.2022057 4.91296837 11.99324331 -1 9 C-3.40671557 8.25334966 -5.7278311 7.72094633 -8.21484375 7.32421875 C-10 7 -10 7 -11 6 C-11.04080783 4.00041636 -11.04254356 1.99954746 -11 0 C-7.44854095 -1.77572952 -3.7756635 -0.82503118 0 0 Z " fill="#000000" transform="translate(220,106)"/>
<path d="M0 0 C4.75982924 2.62772498 7.04616381 6.26349144 8.75 11.375 C9.28831595 17.7271282 8.39147114 22.07724682 4.75 27.375 C-0.16448964 32.04975844 -4.19341946 32.68123664 -10.75 32.5859375 C-15.76540842 32.16276241 -18.83886286 30.05654014 -22.0625 26.375 C-25.761121 21.30260548 -26.02717004 16.4748811 -25.25 10.375 C-23.50736781 5.59497618 -20.86983531 2.37529172 -16.4375 -0.125 C-10.63394747 -2.56401645 -5.75925626 -2.53833887 0 0 Z M-16.25 10.375 C-17.67662219 13.22824437 -17.56033868 15.20954549 -17.25 18.375 C-15.45006226 21.07490662 -14.166227 22.9168865 -11.25 24.375 C-7.57613468 24.78320726 -5.69713863 24.62341035 -2.4375 22.8125 C0.42800813 19.61950523 0.75 17.63380812 0.75 13.375 C-0.49275673 10.4316288 -1.51334156 8.89066091 -4.125 7.0625 C-9.5673376 5.30174372 -12.13959654 6.49295229 -16.25 10.375 Z " fill="#000000" transform="translate(184.25,53.625)"/>
<path d="M0 0 C1 1 1 1 1.0625 4.0625 C1.041875 5.031875 1.02125 6.00125 1 7 C0.05898438 7.35191406 -0.88203125 7.70382813 -1.8515625 8.06640625 C-10.81515007 11.56084892 -16.35747585 14.71495171 -20.75 23.5 C-21.99193688 26.97742327 -23.00499469 30.44640959 -24 34 C-25 35 -25 35 -27.5 35.125 C-30 35 -30 35 -31 34 C-31.74685983 24.58956613 -29.37464728 17.5109561 -23.375 10.1875 C-17.20440653 3.64643938 -9.03984397 -0.39303669 0 0 Z " fill="#000000" transform="translate(46,100)"/>
<path d="M0 0 C1.45212891 -0.03867188 1.45212891 -0.03867188 2.93359375 -0.078125 C5.5625 0.25 5.5625 0.25 7.42578125 1.6328125 C8.5625 3.25 8.5625 3.25 8.3125 5.375 C7.5625 7.25 7.5625 7.25 6.5625 8.25 C4.37610547 8.32258946 2.18749611 8.33373783 0 8.3125 C-1.79630859 8.29896484 -1.79630859 8.29896484 -3.62890625 8.28515625 C-4.55574219 8.27355469 -5.48257813 8.26195312 -6.4375 8.25 C-7.5 6.4375 -7.5 6.4375 -8.4375 4.25 C-8.1075 3.26 -7.7775 2.27 -7.4375 1.25 C-4.85741408 -0.04004296 -2.88008426 0.04589776 0 0 Z " fill="#000000" transform="translate(149.4375,151.75)"/>
</svg>
