<?xml version="1.0" encoding="UTF-8"?>
<svg version="1.1" xmlns="http://www.w3.org/2000/svg" width="256" height="256">
<path d="M0 0 C58.89168922 -0.04030303 58.89168922 -0.04030303 83.48632812 -0.04882812 C89.10685224 -0.05078613 94.72737633 -0.05280666 100.34790039 -0.05493164 C101.40462935 -0.05532726 101.40462935 -0.05532726 102.48270637 -0.05573088 C113.87084628 -0.06008565 125.25898116 -0.06797246 136.64711808 -0.0771528 C148.32580086 -0.08648915 160.0044807 -0.09198067 171.68316704 -0.09408849 C178.24652574 -0.09539605 184.80987302 -0.09848469 191.37322807 -0.10573006 C197.54300736 -0.11248616 203.71277047 -0.1146178 209.8825531 -0.11310768 C212.1542272 -0.11338419 214.4259018 -0.11539173 216.69757271 -0.11920547 C219.784481 -0.12413633 222.87132714 -0.12300055 225.95823669 -0.12025452 C226.8696967 -0.12316736 227.78115671 -0.1260802 228.72023672 -0.12908131 C234.88587879 -0.11412121 234.88587879 -0.11412121 236 1 C236.09535213 2.36608326 236.1218867 3.73705455 236.12025452 5.10646057 C236.12231651 6.43375183 236.12231651 6.43375183 236.12442017 7.78785706 C236.12082489 8.76608932 236.11722961 9.74432159 236.11352539 10.75219727 C236.11367142 11.7764682 236.11381744 12.80073914 236.1139679 13.85604858 C236.11326828 17.25952229 236.10547363 20.66294204 236.09765625 24.06640625 C236.09579224 26.41910268 236.09436826 28.7717995 236.09336853 31.12449646 C236.08954199 37.33056705 236.07971055 43.5366144 236.06866455 49.74267578 C236.05845334 56.06998378 236.05387154 62.39729552 236.04882812 68.72460938 C236.0380884 81.14974982 236.02101036 93.57487298 236 106 C234.02 106.99 234.02 106.99 232 108 C231.34 107.34 230.68 106.68 230 106 C230 73 230 40 230 6 C156.08 6 82.16 6 6 6 C6 54.18 6 102.36 6 152 C48.9 152 91.8 152 136 152 C136 153.65 136 155.3 136 157 C133.43822979 158.28088511 131.63089164 158.12586725 128.76171875 158.12698364 C127.65119141 158.12980347 126.54066406 158.13262329 125.39648438 158.13552856 C123.56053711 158.13249222 123.56053711 158.13249222 121.6875 158.12939453 C120.40294922 158.13114685 119.11839844 158.13289917 117.79492188 158.13470459 C114.26608339 158.13927302 110.73727407 158.13749178 107.20843506 158.1343255 C103.52046631 158.13179887 99.8325001 158.13414029 96.14453125 158.13571167 C89.95051626 158.13753247 83.75651318 158.13512939 77.5625 158.13037109 C70.39499456 158.12492864 63.22751757 158.12669136 56.06001282 158.1321975 C49.9130682 158.13673116 43.76613215 158.13737793 37.6191864 158.13475883 C33.94484999 158.13319745 30.27052696 158.1329985 26.59619141 158.13629532 C22.50161038 158.13971239 18.40707863 158.13498015 14.3125 158.12939453 C13.08853516 158.13141876 11.86457031 158.13344299 10.60351562 158.13552856 C9.49298828 158.13270874 8.38246094 158.12988892 7.23828125 158.12698364 C6.26930908 158.12660662 5.30033691 158.12622959 4.30200195 158.12584114 C2 158 2 158 0 157 C0 105.19 0 53.38 0 0 Z " fill="#000000" transform="translate(5,0)"/>
<path d="M0 0 C1.12789669 0.00436926 1.12789669 0.00436926 2.27857918 0.00882679 C3.07164276 0.00797237 3.86470634 0.00711794 4.68180215 0.00623763 C7.35970838 0.00458041 10.03755303 0.01010812 12.71545357 0.01555592 C14.6269068 0.01583776 16.53836014 0.01568011 18.44981331 0.01511341 C23.65620902 0.01482534 28.8625819 0.0207237 34.06897229 0.02768737 C39.50357601 0.03391923 44.9381802 0.03452457 50.37278694 0.03571278 C60.671722 0.03882659 70.9706465 0.04704065 81.26957691 0.05706227 C92.991262 0.06822186 104.71294758 0.07373346 116.43463665 0.0787577 C140.55420844 0.08922323 164.67377084 0.10682363 188.79333442 0.12908131 C190.12760887 2.79763019 189.92780592 4.84404353 189.9385981 7.83220631 C189.94497795 9.02684498 189.9513578 10.22148365 189.95793098 11.4523235 C189.95960022 13.39606861 189.95960022 13.39606861 189.96130317 15.37908131 C189.96451523 16.71664678 189.96787926 18.0542119 189.97138923 19.39177662 C189.97738024 22.19614689 189.97922911 25.00048634 189.97863716 27.80486256 C189.97853542 31.40310861 189.99219951 35.00115784 190.00940937 38.59935719 C190.02051137 41.36167523 190.02255694 44.12394538 190.02202743 46.88628346 C190.02378571 48.85948351 190.03463603 50.83266862 190.04557747 52.80583912 C190.04250084 54.00047779 190.03942421 55.19511647 190.03625435 56.42595631 C190.03767936 57.48137623 190.03910438 58.53679615 190.04057258 59.6241985 C189.79333442 62.12908131 189.79333442 62.12908131 187.79333442 64.12908131 C186.47333442 63.79908131 185.15333442 63.46908131 183.79333442 63.12908131 C183.79333442 44.31908131 183.79333442 25.50908131 183.79333442 6.12908131 C123.07333442 6.12908131 62.35333442 6.12908131 -0.20666558 6.12908131 C-0.20666558 39.45908131 -0.20666558 72.78908131 -0.20666558 107.12908131 C38.07333442 107.12908131 76.35333442 107.12908131 115.79333442 107.12908131 C116.12333442 108.77908131 116.45333442 110.42908131 116.79333442 112.12908131 C115.16240957 113.76000617 113.33747807 113.25511133 111.0861811 113.25606495 C109.55911789 113.26029469 109.55911789 113.26029469 108.00120491 113.26460987 C106.31179535 113.26157353 106.31179535 113.26157353 104.5882563 113.25847584 C103.40953453 113.26022816 102.23081276 113.26198048 101.01637214 113.2637859 C97.77471835 113.26744398 94.53310509 113.26657104 91.29145187 113.26340681 C87.90597009 113.26088275 84.52049111 113.26322088 81.13500923 113.26479298 C75.44868426 113.26661454 69.76237227 113.26420872 64.07604927 113.2594524 C57.49305425 113.2540098 50.91009019 113.25577247 44.32709593 113.26127881 C38.6846413 113.26581032 33.04219602 113.2664603 27.39974016 113.26384014 C24.0255569 113.26227758 20.65138822 113.26208303 17.27720588 113.26537663 C13.51758646 113.26790143 9.75802744 113.26406498 5.99841255 113.25847584 C4.87213951 113.26050007 3.74586647 113.2625243 2.58546394 113.26460987 C1.5674218 113.26179005 0.54937965 113.25897022 -0.49951226 113.25606495 C-1.38958725 113.25568793 -2.27966225 113.2553109 -3.19670922 113.25492245 C-5.20666558 113.12908131 -5.20666558 113.12908131 -6.20666558 112.12908131 C-6.30440497 110.68926917 -6.33298271 109.24469228 -6.33364922 107.80156666 C-6.33646904 106.86766606 -6.33928887 105.93376545 -6.34219414 104.97156483 C-6.34016991 103.93879917 -6.33814568 102.90603352 -6.33606011 101.84197193 C-6.33781243 100.76078587 -6.33956475 99.6795998 -6.34137017 98.56565052 C-6.34579116 94.97219472 -6.34284982 91.37878766 -6.33947808 87.78533131 C-6.34015104 85.30050862 -6.34112101 82.815686 -6.34237725 80.33086354 C-6.34404416 74.44594756 -6.34053135 68.56104944 -6.33522648 62.67613608 C-6.33147166 57.97538532 -6.33279924 53.2746555 -6.33703667 48.57390553 C-6.34281594 42.10833841 -6.3437501 35.6427916 -6.34048134 29.17722279 C-6.33981183 26.70514632 -6.34064134 24.23306901 -6.34296089 21.76099354 C-6.34548596 18.31270233 -6.34164888 14.86447696 -6.33606011 11.41619068 C-6.33808434 10.38342503 -6.34010857 9.35065937 -6.34219414 8.28659779 C-6.33937432 7.35269718 -6.33655449 6.41879658 -6.33364922 5.45659596 C-6.33327219 4.6402644 -6.33289517 3.82393284 -6.33250672 2.98286396 C-6.06468022 -0.962524 -3.30953887 0.00972226 0 0 Z " fill="#000000" transform="translate(31.206665575504303,21.870918691158295)"/>
<path d="M0 0 C10.0401392 8.31897248 16.69461078 19.9461078 18 33 C18.90594439 46.52287727 15.5703932 59.67084031 6.6875 70.125 C5.800625 71.07375 4.91375 72.0225 4 73 C4.804375 73.94875 5.60875 74.8975 6.4375 75.875 C9.91269424 79.97394705 10.37215384 82.5107308 10 88 C8.5625 90.6875 8.5625 90.6875 7 93 C6.12245631 94.81387716 6.12245631 94.81387716 6 97 C7.0447953 99.71846068 7.0447953 99.71846068 8.7109375 102.53515625 C9.29617187 103.59154297 9.88140625 104.64792969 10.484375 105.73632812 C11.10828125 106.83396484 11.7321875 107.93160156 12.375 109.0625 C13.59299281 111.23985326 14.80922268 113.41819391 16.0234375 115.59765625 C16.56919434 116.56195557 17.11495117 117.52625488 17.67724609 118.51977539 C20.55234976 123.91072743 20.4634804 129.01766965 20 135 C18.10847247 140.67458259 14.34743962 144.32628019 9 147 C1.34614802 147.65298597 -4.87892649 147.94895305 -11 143 C-15.73823917 137.43163625 -16.6955236 130.95560197 -18.1875 123.9375 C-18.44724609 122.76638672 -18.70699219 121.59527344 -18.97460938 120.38867188 C-20.86334226 111.83324873 -20.86334226 111.83324873 -21.45898438 108.20141602 C-21.76839804 105.83212268 -21.76839804 105.83212268 -23.92578125 104.8125 C-25.10720703 104.4103125 -25.10720703 104.4103125 -26.3125 104 C-30.43989451 102.35954113 -32.72766388 100.97658821 -35 97 C-36.00372456 93.21673052 -36.04706765 90.7166905 -35 87 C-36.2375 86.938125 -37.475 86.87625 -38.75 86.8125 C-51.45721322 85.35396766 -62.35379432 78.06382411 -70.3671875 68.3359375 C-78.30361117 56.98191512 -81.04274796 44.04650367 -79.5625 30.375 C-77.02722872 17.42586124 -69.84919529 5.6694598 -59.14453125 -2.0625 C-40.26767893 -13.78421942 -18.04532578 -13.1682107 0 0 Z M-63.8125 10.75 C-72.61057958 21.39921216 -74.14337094 33.69390384 -73 47 C-70.67718699 58.03004348 -64.14847884 67.50700882 -55 74 C-44.17421588 80.40709672 -33.25143022 82.95234019 -20.7421875 80.3125 C-8.07984383 76.42635872 1.57361389 68.79929226 7.875 57.0625 C12.87837616 46.07535641 13.10422056 34.74307198 9.375 23.25 C4.95598072 12.31372206 -3.45133373 3.71738541 -14.25 -0.875 C-32.4315431 -7.98746893 -50.4358459 -3.31855 -63.8125 10.75 Z M-8.375 80.8125 C-13.70339128 83.54748345 -18.74849009 85.16110821 -24.6015625 86.359375 C-27.16287051 86.82908027 -27.16287051 86.82908027 -29 89 C-29.49060602 93.08503766 -29.49060602 93.08503766 -27.7734375 96.6484375 C-25.55754545 98.33720105 -24.07107468 98.48760328 -21.3125 98.6875 C-20.50425781 98.75324219 -19.69601563 98.81898438 -18.86328125 98.88671875 C-18.24839844 98.92410156 -17.63351563 98.96148437 -17 99 C-16.80889648 99.99854004 -16.61779297 100.99708008 -16.42089844 102.02587891 C-15.70398187 105.75226756 -14.96913834 109.47493687 -14.22900391 113.19677734 C-13.91197445 114.80390016 -13.59972595 116.41197415 -13.29248047 118.02099609 C-12.84835667 120.34222564 -12.38678621 122.65941828 -11.921875 124.9765625 C-11.78940369 125.68930328 -11.65693237 126.40204407 -11.52044678 127.13638306 C-10.54890968 131.86232402 -9.00859091 135.23047869 -6 139 C-2.40300163 141.06494351 -0.02875664 142.02057513 4.125 141.9375 C8.16437582 140.62031223 10.76619494 138.64507342 13.3125 135.25 C14.79267361 130.40579546 14.48550963 126.21251131 12.63891602 121.60083008 C11.70583618 119.95183716 11.70583618 119.95183716 10.75390625 118.26953125 C10.42333725 117.67121994 10.09276825 117.07290863 9.75218201 116.45646667 C8.70459898 114.56587689 7.63519728 112.68893487 6.5625 110.8125 C5.49708152 108.92359528 4.4367023 107.03215869 3.38352966 105.13639832 C2.42917792 103.42232235 1.46022014 101.71640266 0.49047852 100.01098633 C-0.87368807 97.25516871 -1.58455599 95.02680637 -2 92 C-1.195625 91.443125 -0.39125 90.88625 0.4375 90.3125 C3.09109491 88.22256666 3.09109491 88.22256666 4.125 85.5625 C4.24199795 82.72414839 4.24199795 82.72414839 1.6875 80.1875 C-2.54330366 76.7438226 -3.88330411 78.38981364 -8.375 80.8125 Z " fill="#000000" transform="translate(231,109)"/>
<path d="M0 0 C1.67542976 0.28604898 3.34385343 0.61781233 5 1 C5.41667777 6.29999877 5.6505545 11.58155351 5.53515625 16.8984375 C5.518479 17.77419434 5.50180176 18.64995117 5.48461914 19.55224609 C4.87711302 22.6206876 3.69851331 24.00162347 1.5 26.1875 C-0.30692612 27.17493879 -2.14612601 28.10380326 -4 29 C-6.1241524 30.29198323 -8.21409983 31.63138184 -10.30664062 32.97387695 C-12.42872917 34.32947203 -14.5692414 35.64937729 -16.71875 36.9609375 C-19.74491235 38.66912394 -19.74491235 38.66912394 -21 40 C6.06 40 33.12 40 61 40 C53.08 34.72 45.16 29.44 37 24 C35 22 35 22 34.8046875 19.1796875 C34.82789063 18.08914062 34.85109375 16.99859375 34.875 15.875 C34.89304687 14.77929688 34.91109375 13.68359375 34.9296875 12.5546875 C34.95289063 11.71164063 34.97609375 10.86859375 35 10 C36.875 8.9375 36.875 8.9375 39 8 C39.99 8.495 39.99 8.495 41 9 C40.88637738 10.4800841 40.75877092 11.95910074 40.625 13.4375 C40.72380706 16.26858716 40.72380706 16.26858716 42 19 C46.20784575 22.47078519 50.83912526 24.98884437 55.59765625 27.62890625 C59.82201149 30.03987973 63.87651092 32.70091942 67.9375 35.375 C68.72439209 35.87499512 69.51128418 36.37499023 70.32202148 36.89013672 C71.04977783 37.36725098 71.77753418 37.84436523 72.52734375 38.3359375 C73.17437256 38.75407715 73.82140137 39.1722168 74.48803711 39.60302734 C76.35893108 41.33163308 76.71765835 42.49175558 77 45 C76.505 45.99 76.505 45.99 76 47 C39.04 47 2.08 47 -36 47 C-36.33 45.68 -36.66 44.36 -37 43 C-34.10673273 39.2529049 -30.02792288 36.8247592 -26.1171875 34.234375 C-25.46170929 33.79611389 -24.80623108 33.35785278 -24.13088989 32.90631104 C-22.7523458 31.98637817 -21.37225895 31.06875342 -19.99072266 30.15332031 C-17.87065006 28.74711476 -15.75736375 27.33111655 -13.64453125 25.9140625 C-12.30247787 25.02024066 -10.96004314 24.12699109 -9.6171875 23.234375 C-8.98384491 22.80944763 -8.35050232 22.38452026 -7.69796753 21.94671631 C-3.22995283 19 -3.22995283 19 -1 19 C-1.01160156 17.71222656 -1.02320313 16.42445313 -1.03515625 15.09765625 C-1.0445327 13.41927228 -1.05363305 11.74088674 -1.0625 10.0625 C-1.07087891 9.21236328 -1.07925781 8.36222656 -1.08789062 7.48632812 C-1.09111328 6.67744141 -1.09433594 5.86855469 -1.09765625 5.03515625 C-1.10289307 4.2862915 -1.10812988 3.53742676 -1.11352539 2.76586914 C-1 1 -1 1 0 0 Z " fill="#000000" transform="translate(100,167)"/>
<path d="M0 0 C2.47888838 1.9280243 3.43312132 2.7275489 4.25 5.75 C4.40084346 10.05347517 4.0439679 12.86262411 1.125 16.125 C-1.75 17.75 -1.75 17.75 -5.125 18.25 C-10.94695521 20.65908491 -13.31437516 26.10960564 -15.75 31.75 C-15.42 32.41 -15.09 33.07 -14.75 33.75 C-14.38475028 38.20604661 -14.21105025 40.69455674 -16.25 44.6875 C-19.15304191 47.08250958 -21.01329798 47.69802397 -24.71484375 47.9609375 C-28.12393373 47.60759612 -30.20495342 45.92260073 -32.75 43.75 C-34.0072645 41.23547099 -33.7158779 39.66896493 -33.5625 36.875 C-33.54797155 33.52377137 -33.56142803 32.08000095 -35.25 29.125 C-38.79088251 27.17751462 -41.88833869 26.64885301 -45.75 27.75 C-48.36643885 29.65742784 -49.66364979 31.71553139 -50.75 34.75 C-50.91672451 37.51292315 -50.91672451 37.51292315 -50.75 40.375 C-50.58103208 44.33757022 -50.55458738 45.42851472 -52.6875 48.9375 C-56.81341862 51.3793702 -60.07562118 51.91437595 -64.75 50.75 C-68.56842691 47.77162701 -68.56842691 47.77162701 -69.75 44.75 C-70.10793361 41.51181939 -69.804618 38.83182816 -68.75 35.75 C-65.9812393 32.49263447 -64.51308754 31.81813282 -60.25 31.4375 C-56.61739947 30.72395347 -56.02777282 30.51099098 -53.8125 27.8125 C-51.30332351 23.88685291 -51.57719916 20.58358515 -51.83203125 16.05859375 C-51.75 13.75 -51.75 13.75 -49.875 10.6875 C-47.06647063 8.12678204 -46.23826375 7.77712576 -42.375 7.5625 C-39.04261022 7.73486499 -37.42305465 7.86896154 -34.75 9.75 C-32.5067096 13.11493561 -32.62845454 13.78817147 -32.9375 17.625 C-33.01862963 21.58876181 -32.93810857 22.48127348 -30.5625 25.875 C-27.44142423 27.95571718 -26.39384652 28.33969119 -22.75 27.75 C-20.65090337 25.7145726 -20.65090337 25.7145726 -19 23 C-18.40703125 22.11828125 -17.8140625 21.2365625 -17.203125 20.328125 C-14.91689888 16.27191737 -14.6351996 14.47324249 -15.375 9.8125 C-15.81140124 6.76902643 -15.78586715 5.83683627 -14.5625 2.875 C-10.52564758 -1.85786145 -5.68498388 -2.58408358 0 0 Z M-8.375 6.25 C-8.82875 6.745 -9.2825 7.24 -9.75 7.75 C-9.09 9.07 -8.43 10.39 -7.75 11.75 C-6.1 11.42 -4.45 11.09 -2.75 10.75 C-2.42 9.76 -2.09 8.77 -1.75 7.75 C-3.12485532 6.20833358 -3.12485532 6.20833358 -4.75 4.75 C-6.87364481 4.52390663 -6.87364481 4.52390663 -8.375 6.25 Z M-43.75 13.75 C-44.41 14.41 -45.07 15.07 -45.75 15.75 C-45.4314823 17.85820797 -45.4314823 17.85820797 -44.75 19.75 C-43.1 20.08 -41.45 20.41 -39.75 20.75 C-39.07041397 18.35280568 -39.07041397 18.35280568 -38.75 15.75 C-39.41 15.09 -40.07 14.43 -40.75 13.75 C-41.74 13.75 -42.73 13.75 -43.75 13.75 Z M-26.75 34.75 C-27.08 36.4 -27.41 38.05 -27.75 39.75 C-25.77 40.74 -25.77 40.74 -23.75 41.75 C-22.76 41.09 -21.77 40.43 -20.75 39.75 C-21.08 38.1 -21.41 36.45 -21.75 34.75 C-23.4 34.75 -25.05 34.75 -26.75 34.75 Z M-61.75 37.75 C-62.41 38.41 -63.07 39.07 -63.75 39.75 C-63.4314823 41.85820797 -63.4314823 41.85820797 -62.75 43.75 C-61.1 44.08 -59.45 44.41 -57.75 44.75 C-57.07041397 42.35280568 -57.07041397 42.35280568 -56.75 39.75 C-57.41 39.09 -58.07 38.43 -58.75 37.75 C-59.74 37.75 -60.73 37.75 -61.75 37.75 Z " fill="#000000" transform="translate(204.75,51.25)"/>
<path d="M0 0 C1.19496094 -0.00386719 1.19496094 -0.00386719 2.4140625 -0.0078125 C3.24679688 -0.00007813 4.07953125 0.00765625 4.9375 0.015625 C5.77023438 0.00789063 6.60296875 0.00015625 7.4609375 -0.0078125 C8.25757812 -0.00523438 9.05421875 -0.00265625 9.875 0 C10.60589844 0.00225586 11.33679688 0.00451172 12.08984375 0.00683594 C13.9375 0.265625 13.9375 0.265625 15.9375 2.265625 C16.19146729 4.80847168 16.19146729 4.80847168 16.19628906 8.06054688 C16.20259338 9.2752063 16.20889771 10.48986572 16.21539307 11.74133301 C16.2113446 13.05903687 16.20729614 14.37674072 16.203125 15.734375 C16.20447176 17.09436106 16.20641239 18.45434665 16.20892334 19.81433105 C16.21187409 22.66581807 16.20757864 25.51717987 16.19824219 28.36865234 C16.18684754 32.02745277 16.19340729 35.6859598 16.20538712 39.34474945 C16.21260712 42.15340392 16.21031717 44.96198859 16.20513153 47.77064514 C16.20314461 49.77707102 16.20922863 51.7834996 16.21539307 53.78991699 C16.20908875 55.00457642 16.20278442 56.21923584 16.19628906 57.47070312 C16.19390228 59.08048035 16.19390228 59.08048035 16.19146729 60.72277832 C15.9375 63.265625 15.9375 63.265625 13.9375 65.265625 C12.08984375 65.52441406 12.08984375 65.52441406 9.875 65.53125 C8.68003906 65.53511719 8.68003906 65.53511719 7.4609375 65.5390625 C6.62820312 65.53132813 5.79546875 65.52359375 4.9375 65.515625 C3.68839844 65.52722656 3.68839844 65.52722656 2.4140625 65.5390625 C1.61742188 65.53648438 0.82078125 65.53390625 0 65.53125 C-0.73089844 65.52899414 -1.46179688 65.52673828 -2.21484375 65.52441406 C-4.0625 65.265625 -4.0625 65.265625 -6.0625 63.265625 C-6.31646729 60.72277832 -6.31646729 60.72277832 -6.32128906 57.47070312 C-6.32759338 56.2560437 -6.33389771 55.04138428 -6.34039307 53.78991699 C-6.3363446 52.47221313 -6.33229614 51.15450928 -6.328125 49.796875 C-6.32947176 48.43688894 -6.33141239 47.07690335 -6.33392334 45.71691895 C-6.33687409 42.86543193 -6.33257864 40.01407013 -6.32324219 37.16259766 C-6.31184754 33.50379723 -6.31840729 29.8452902 -6.33038712 26.18650055 C-6.33760712 23.37784608 -6.33531717 20.56926141 -6.33013153 17.76060486 C-6.32814461 15.75417898 -6.33422863 13.7477504 -6.34039307 11.74133301 C-6.33408875 10.52667358 -6.32778442 9.31201416 -6.32128906 8.06054688 C-6.31969788 6.98736206 -6.31810669 5.91417725 -6.31646729 4.80847168 C-5.88253475 0.46372347 -3.9187099 0.01209478 0 0 Z M-0.0625 6.265625 C-0.0625 23.755625 -0.0625 41.245625 -0.0625 59.265625 C3.2375 59.265625 6.5375 59.265625 9.9375 59.265625 C9.9375 41.775625 9.9375 24.285625 9.9375 6.265625 C6.6375 6.265625 3.3375 6.265625 -0.0625 6.265625 Z " fill="#000000" transform="translate(111.0625,56.734375)"/>
<path d="M0 0 C1.27423828 -0.00193359 1.27423828 -0.00193359 2.57421875 -0.00390625 C3.91419922 0.00189453 3.91419922 0.00189453 5.28125 0.0078125 C6.17457031 0.00394531 7.06789063 0.00007813 7.98828125 -0.00390625 C8.83777344 -0.00261719 9.68726562 -0.00132813 10.5625 0 C11.34689453 0.00112793 12.13128906 0.00225586 12.93945312 0.00341797 C14.78125 0.1328125 14.78125 0.1328125 15.78125 1.1328125 C15.87979422 2.7234456 15.90923694 4.31842727 15.91064453 5.91210938 C15.91379669 6.9298645 15.91694885 7.94761963 15.92019653 8.99621582 C15.9181723 10.10348022 15.91614807 11.21074463 15.9140625 12.3515625 C15.91549759 14.04388 15.91549759 14.04388 15.91696167 15.77038574 C15.91764368 18.16121476 15.91578797 20.55204561 15.91162109 22.94287109 C15.90627316 26.61690401 15.91156543 30.29081467 15.91796875 33.96484375 C15.91730797 36.28125027 15.91602682 38.59765672 15.9140625 40.9140625 C15.91608673 42.0213269 15.91811096 43.12859131 15.92019653 44.26940918 C15.91704437 45.28716431 15.91389221 46.30491943 15.91064453 47.35351562 C15.90984894 48.25428833 15.90905334 49.15506104 15.90823364 50.08312988 C15.78125 52.1328125 15.78125 52.1328125 14.78125 53.1328125 C13.37776265 53.23141381 11.96944523 53.26360187 10.5625 53.265625 C9.28826172 53.26755859 9.28826172 53.26755859 7.98828125 53.26953125 C6.64830078 53.26373047 6.64830078 53.26373047 5.28125 53.2578125 C4.38792969 53.26167969 3.49460937 53.26554687 2.57421875 53.26953125 C1.72472656 53.26824219 0.87523438 53.26695313 0 53.265625 C-0.78439453 53.26449707 -1.56878906 53.26336914 -2.37695312 53.26220703 C-4.21875 53.1328125 -4.21875 53.1328125 -5.21875 52.1328125 C-5.31729422 50.5421794 -5.34673694 48.94719773 -5.34814453 47.35351562 C-5.35129669 46.3357605 -5.35444885 45.31800537 -5.35769653 44.26940918 C-5.3556723 43.16214478 -5.35364807 42.05488037 -5.3515625 40.9140625 C-5.35251923 39.78585083 -5.35347595 38.65763916 -5.35446167 37.49523926 C-5.35514368 35.10441024 -5.35328797 32.71357939 -5.34912109 30.32275391 C-5.34377316 26.64872099 -5.34906543 22.97481033 -5.35546875 19.30078125 C-5.35480797 16.98437473 -5.35352682 14.66796828 -5.3515625 12.3515625 C-5.35459885 10.69066589 -5.35459885 10.69066589 -5.35769653 8.99621582 C-5.35454437 7.97846069 -5.35139221 6.96070557 -5.34814453 5.91210938 C-5.34734894 5.01133667 -5.34655334 4.11056396 -5.34573364 3.18249512 C-5.11357437 -0.56486017 -3.29214952 0.00473399 0 0 Z M0.78125 6.1328125 C0.78125 19.6628125 0.78125 33.1928125 0.78125 47.1328125 C3.75125 47.1328125 6.72125 47.1328125 9.78125 47.1328125 C9.78125 33.6028125 9.78125 20.0728125 9.78125 6.1328125 C6.81125 6.1328125 3.84125 6.1328125 0.78125 6.1328125 Z " fill="#000000" transform="translate(79.21875,68.8671875)"/>
<path d="M0 0 C0.89460938 -0.00128906 1.78921875 -0.00257812 2.7109375 -0.00390625 C3.65195312 -0.00003906 4.59296875 0.00382812 5.5625 0.0078125 C6.97402344 0.00201172 6.97402344 0.00201172 8.4140625 -0.00390625 C9.75597656 -0.00197266 9.75597656 -0.00197266 11.125 0 C11.95128906 0.00112793 12.77757813 0.00225586 13.62890625 0.00341797 C15.5625 0.1328125 15.5625 0.1328125 16.5625 1.1328125 C16.6759515 3.92104988 16.72668263 6.68358595 16.73046875 9.47265625 C16.73379715 10.30994766 16.73712555 11.14723907 16.74055481 12.00990295 C16.74562756 13.78450978 16.74796303 15.55912617 16.74780273 17.33374023 C16.74998797 20.05533506 16.76813633 22.77652393 16.78710938 25.49804688 C16.79004342 27.21874861 16.79202814 28.93945227 16.79296875 30.66015625 C16.80015427 31.47790024 16.80733978 32.29564423 16.81474304 33.13816833 C16.79132204 38.90399046 16.79132204 38.90399046 14.5625 41.1328125 C12.71484375 41.39160156 12.71484375 41.39160156 10.5 41.3984375 C9.30503906 41.40230469 9.30503906 41.40230469 8.0859375 41.40625 C7.25320312 41.39851563 6.42046875 41.39078125 5.5625 41.3828125 C4.31339844 41.39441406 4.31339844 41.39441406 3.0390625 41.40625 C2.24242187 41.40367188 1.44578125 41.40109375 0.625 41.3984375 C-0.10589844 41.39618164 -0.83679687 41.39392578 -1.58984375 41.39160156 C-3.4375 41.1328125 -3.4375 41.1328125 -5.4375 39.1328125 C-5.6251103 36.27566786 -5.69307318 33.51715264 -5.66796875 30.66015625 C-5.66751053 29.82190811 -5.66705231 28.98365997 -5.6665802 28.12001038 C-5.66355724 26.34716375 -5.65566963 24.57431979 -5.64331055 22.80151367 C-5.62505065 20.07786728 -5.62280085 17.35456058 -5.62304688 14.63085938 C-5.61813192 12.91145537 -5.6123037 11.19205369 -5.60546875 9.47265625 C-5.60435593 8.65288803 -5.6032431 7.83311981 -5.60209656 6.98851013 C-5.54304858 0.00756656 -5.54304858 0.00756656 0 0 Z M0.5625 6.1328125 C0.5625 15.7028125 0.5625 25.2728125 0.5625 35.1328125 C3.8625 35.1328125 7.1625 35.1328125 10.5625 35.1328125 C10.5625 25.5628125 10.5625 15.9928125 10.5625 6.1328125 C7.2625 6.1328125 3.9625 6.1328125 0.5625 6.1328125 Z " fill="#000000" transform="translate(47.4375,80.8671875)"/>
<path d="M0 0 C1.65 0 3.3 0 5 0 C5.66 1.98 6.32 3.96 7 6 C7.66 4.02 8.32 2.04 9 0 C10.65 0 12.3 0 14 0 C14.66 1.65 15.32 3.3 16 5 C16.66 3.35 17.32 1.7 18 0 C19.65 0 21.3 0 23 0 C21.35 5.94 19.7 11.88 18 18 C16.35 18 14.7 18 13 18 C12.34 16.35 11.68 14.7 11 13 C10.34 14.65 9.68 16.3 9 18 C7.35 18 5.7 18 4 18 C2.68 12.06 1.36 6.12 0 0 Z " fill="#000000" transform="translate(189,138)"/>
<path d="M0 0 C1.65 0 3.3 0 5 0 C5.66 1.98 6.32 3.96 7 6 C7.66 4.02 8.32 2.04 9 0 C10.65 0 12.3 0 14 0 C14.66 1.32 15.32 2.64 16 4 C16.66 2.68 17.32 1.36 18 0 C19.32 0 20.64 0 22 0 C21.41632611 6.30367803 19.95928381 11.98660063 18 18 C16.35 18 14.7 18 13 18 C12.67 16.02 12.34 14.04 12 12 C11.34 12 10.68 12 10 12 C9.67 13.98 9.34 15.96 9 18 C7.35 18 5.7 18 4 18 C3.32873871 15.5636811 2.66283646 13.12611117 2 10.6875 C1.71382812 9.65206055 1.71382812 9.65206055 1.421875 8.59570312 C0.62283816 5.64212051 0 3.07440781 0 0 Z " fill="#000000" transform="translate(214,138)"/>
<path d="M0 0 C1.65 0 3.3 0 5 0 C5.66 1.65 6.32 3.3 7 5 C7.66 3.35 8.32 1.7 9 0 C10.65 0 12.3 0 14 0 C14.66 1.98 15.32 3.96 16 6 C16.66 4.02 17.32 2.04 18 0 C19.65 0 21.3 0 23 0 C22.35702496 2.62573061 21.71075589 5.25057303 21.0625 7.875 C20.88009766 8.62136719 20.69769531 9.36773437 20.50976562 10.13671875 C19.11328125 15.7734375 19.11328125 15.7734375 18 18 C16.35 18 14.7 18 13 18 C12.34 16.68 11.68 15.36 11 14 C10.34 15.32 9.68 16.64 9 18 C7.35 17.67 5.7 17.34 4 17 C2.68 11.39 1.36 5.78 0 0 Z " fill="#000000" transform="translate(164,138)"/>
<path d="M0 0 C1.9170684 1.9170684 1 5.42754461 1 8 C1.33 8.33 1.66 8.66 2 9 C1.65084227 15.40122511 1.65084227 15.40122511 -0.5625 17.4375 C-3 18 -3 18 -11 18 C-11 11.73 -11 5.46 -11 -1 C-6.43311433 -2.14172142 -4.37694941 -1.48651112 0 0 Z M-6 2 C-5.67 3.32 -5.34 4.64 -5 6 C-4.34 5.67 -3.68 5.34 -3 5 C-3 4.34 -3 3.68 -3 3 C-3.99 2.67 -4.98 2.34 -6 2 Z M-6 10 C-6 11.32 -6 12.64 -6 14 C-5.01 13.67 -4.02 13.34 -3 13 C-3 12.01 -3 11.02 -3 10 C-3.99 10 -4.98 10 -6 10 Z " fill="#000000" transform="translate(90,46)"/>
<path d="M0 0 C2.29296875 -0.02734375 2.29296875 -0.02734375 5 1 C6.57184632 3.65017855 7.40916762 6.50345738 8.3125 9.4375 C8.57611328 10.22705078 8.83972656 11.01660156 9.11132812 11.83007812 C11 17.58439529 11 17.58439529 11 20 C9.35 20 7.7 20 6 20 C5.34 18.02 4.68 16.04 4 14 C2.04105639 14.11306697 2.04105639 14.11306697 0 15 C-1.29660434 17.49034386 -1.29660434 17.49034386 -2 20 C-3.65 20 -5.3 20 -7 20 C-5.07443364 13.14381674 -2.7527517 6.56747868 0 0 Z " fill="#000000" transform="translate(51,56)"/>
<path d="M0 0 C0.33 0.99 0.66 1.98 1 3 C0.67 3.66 0.34 4.32 0 5 C-1.11375 4.938125 -2.2275 4.87625 -3.375 4.8125 C-5.169375 4.9053125 -5.169375 4.9053125 -7 5 C-9.31543207 7.76988076 -9.31543207 7.76988076 -8.6875 10.625 C-8.2258486 12.93501965 -8.2258486 12.93501965 -7 14 C-4.66702567 14.04092937 -2.33294775 14.04241723 0 14 C0.33 15.32 0.66 16.64 1 18 C-2.23415916 19.61707958 -5.50375265 19.56822376 -9 19 C-12.13836313 16.97314048 -13.65870267 15.54702808 -14.4765625 11.83984375 C-14.74016844 7.68458176 -14.31813896 5.50286481 -12.0625 1.9375 C-7.94841058 -0.66529126 -4.7373412 -0.46444522 0 0 Z " fill="#000000" transform="translate(123,33)"/>
<path d="M0 0 C0.66 0.66 1.32 1.32 2 2 C1.9375 4.5 1.9375 4.5 1 7 C-1.3125 8.5 -1.3125 8.5 -4 9 C-6.3125 7.625 -6.3125 7.625 -8 6 C-7.625 3.0625 -7.625 3.0625 -7 0 C-4.29393021 -1.35303489 -2.8671629 -0.7884698 0 0 Z " fill="#000000" transform="translate(123,139)"/>
<path d="M0 0 C2.5625 -0.25 2.5625 -0.25 5 0 C6 1 6 1 6.125 3.5 C6 6 6 6 5 7 C3.00041636 7.04080783 0.99954746 7.04254356 -1 7 C-1.625 5.1875 -1.625 5.1875 -2 3 C-1.34 2.01 -0.68 1.02 0 0 Z " fill="#000000" transform="translate(215,90)"/>
<path d="M0 0 C2.5 0.125 2.5 0.125 3.5 1.125 C3.625 3.625 3.625 3.625 3.5 6.125 C2.5 7.125 2.5 7.125 0 7.25 C-2.5 7.125 -2.5 7.125 -3.5 6.125 C-3.625 3.625 -3.625 3.625 -3.5 1.125 C-2.5 0.125 -2.5 0.125 0 0 Z " fill="#000000" transform="translate(138.5,163.875)"/>
</svg>
