<?xml version="1.0" standalone="no"?>
<!DOCTYPE svg PUBLIC "-//W3C//DTD SVG 20010904//EN"
 "http://www.w3.org/TR/2001/REC-SVG-20010904/DTD/svg10.dtd">
<svg version="1.0" xmlns="http://www.w3.org/2000/svg"
 width="512.000000pt" height="512.000000pt" viewBox="0 0 512.000000 512.000000"
 preserveAspectRatio="xMidYMid meet">

<g transform="translate(0.000000,512.000000) scale(0.100000,-0.100000)"
fill="#000000" stroke="none">
<path d="M3440 5114 c-296 -35 -545 -126 -753 -275 -100 -71 -258 -226 -333
-326 -61 -81 -164 -251 -164 -270 0 -17 -17 -16 -27 1 -12 20 -48 36 -83 36
-45 0 -90 -47 -90 -93 0 -44 101 -272 135 -307 38 -37 81 -31 230 37 117 53
132 62 148 96 16 31 17 42 7 72 -15 46 -44 65 -98 65 -52 0 -53 -1 15 112 137
227 323 403 548 515 201 101 359 137 605 137 201 0 314 -19 480 -81 192 -71
327 -161 487 -326 252 -259 367 -550 367 -927 0 -377 -114 -666 -368 -929
-195 -201 -421 -327 -684 -381 -362 -73 -740 0 -1039 201 -40 27 -121 95 -180
151 -150 141 -257 218 -408 293 -144 72 -237 105 -382 137 -136 30 -474 33
-603 4 -182 -39 -396 -121 -438 -167 -33 -35 -30 -98 6 -132 38 -37 82 -35
174 7 105 48 216 81 337 101 137 23 388 16 507 -14 256 -64 436 -162 638 -348
167 -153 269 -228 401 -293 386 -191 804 -220 1213 -84 370 122 690 401 867
754 57 113 116 289 141 420 28 145 26 428 -4 577 -68 342 -237 638 -492 861
-277 243 -601 368 -975 377 -82 2 -166 1 -185 -1z"/>
<path d="M3329 4565 c-34 -18 -46 -50 -58 -160 -6 -49 -15 -91 -20 -93 -5 -2
-38 -21 -74 -42 -36 -22 -70 -40 -76 -40 -6 0 -46 16 -90 35 -93 41 -142 45
-174 13 -34 -34 -237 -392 -237 -417 0 -41 28 -77 104 -130 l76 -54 0 -96 0
-97 -76 -54 c-82 -59 -109 -97 -100 -141 7 -37 210 -389 237 -411 32 -27 80
-22 176 20 l89 39 48 -33 c27 -18 61 -38 77 -44 30 -13 34 -24 44 -130 14
-148 18 -150 305 -150 242 0 268 5 288 57 7 15 16 69 22 118 6 50 14 91 18 93
4 1 38 20 76 42 38 22 73 40 78 40 5 0 46 -16 89 -35 94 -41 138 -44 173 -12
40 37 236 387 236 423 0 41 -23 68 -109 129 l-71 50 0 95 1 95 75 55 c88 64
104 83 104 125 0 35 -196 386 -236 423 -35 31 -79 28 -173 -13 -92 -41 -94
-41 -129 -16 -15 10 -47 29 -72 41 -25 12 -46 23 -47 24 -1 1 -7 42 -13 91
-13 111 -25 142 -61 160 -40 21 -462 21 -500 0z m368 -270 c6 -46 18 -96 27
-110 9 -14 49 -40 93 -60 42 -19 100 -53 127 -74 75 -56 93 -58 188 -16 45 19
83 35 84 35 4 0 104 -176 104 -183 0 -3 -30 -26 -66 -52 -85 -61 -96 -87 -83
-183 7 -48 7 -96 0 -144 -13 -96 -2 -121 83 -182 36 -26 66 -50 66 -53 0 -19
-104 -183 -114 -179 -180 78 -177 78 -260 16 -29 -22 -87 -56 -129 -75 -44
-20 -84 -46 -93 -60 -9 -14 -21 -64 -27 -110 l-10 -85 -107 0 -106 0 -11 90
c-12 109 -19 118 -128 170 -44 21 -100 54 -125 74 -66 52 -85 53 -181 12 -45
-20 -83 -35 -85 -33 -5 6 -104 176 -104 179 0 2 29 26 65 52 87 64 97 85 87
180 -5 42 -5 110 0 151 4 43 4 84 -1 99 -6 13 -38 45 -73 72 -35 26 -67 51
-71 55 -7 5 45 107 91 177 7 10 24 6 78 -19 98 -44 129 -43 196 9 30 23 88 57
129 76 102 47 110 58 122 166 l11 90 106 0 107 0 10 -85z"/>
<path d="M3469 3915 c-145 -47 -239 -180 -239 -341 0 -96 31 -166 104 -240 81
-81 148 -107 261 -102 136 6 239 71 302 190 25 48 28 62 28 158 0 100 -1 108
-34 168 -63 116 -159 174 -296 179 -51 2 -97 -3 -126 -12z m177 -201 c47 -22
76 -67 81 -123 6 -63 -20 -109 -77 -138 -54 -28 -82 -28 -138 -3 -33 15 -47
29 -62 62 -25 55 -25 82 0 133 36 74 122 104 196 69z"/>
<path d="M458 2631 c-27 -24 -33 -36 -33 -71 0 -100 135 -136 181 -49 28 55
14 108 -36 134 -43 22 -76 18 -112 -14z"/>
<path d="M1289 2525 c-33 -18 -46 -51 -54 -135 -10 -110 -12 -115 -58 -138
-23 -12 -59 -31 -79 -43 l-36 -22 -85 36 c-94 41 -144 46 -176 20 -27 -23
-230 -375 -237 -412 -9 -43 14 -74 99 -139 l79 -58 0 -94 0 -93 -80 -58 c-83
-61 -109 -99 -98 -143 10 -39 215 -389 239 -408 33 -27 84 -21 176 21 l85 38
69 -43 c39 -24 74 -45 79 -46 5 -2 15 -50 22 -107 12 -97 14 -106 44 -132 l32
-29 226 0 c247 0 271 5 293 57 10 25 30 150 31 194 0 8 17 23 38 33 20 10 56
31 78 46 l42 28 87 -39 c101 -45 143 -49 179 -17 38 35 236 388 236 421 0 44
-14 62 -100 127 l-80 61 0 92 1 92 75 55 c88 64 104 83 104 125 0 36 -196 387
-236 423 -35 31 -75 28 -177 -15 -87 -36 -90 -36 -115 -19 -15 9 -50 29 -78
43 -57 29 -51 12 -70 178 -5 46 -13 66 -35 87 l-27 28 -234 0 c-182 -1 -239
-4 -259 -15z m366 -252 c12 -127 24 -145 113 -181 29 -11 86 -45 128 -73 90
-62 109 -64 207 -20 38 17 70 31 72 31 4 0 92 -151 100 -171 4 -11 -14 -30
-64 -67 -82 -60 -91 -81 -77 -183 5 -43 5 -95 0 -138 -14 -100 -6 -120 76
-181 39 -29 70 -54 70 -57 0 -3 -23 -45 -51 -94 l-50 -89 -37 16 c-147 64
-156 64 -236 4 -29 -22 -87 -56 -129 -75 -43 -20 -84 -46 -93 -60 -14 -21 -33
-121 -34 -178 0 -16 -10 -17 -107 -15 l-108 3 -10 87 c-13 104 -23 118 -120
163 -38 18 -94 51 -124 73 -77 58 -95 60 -193 18 -45 -19 -83 -34 -83 -33 -31
42 -104 182 -98 187 4 4 36 28 70 53 34 26 65 57 69 70 4 12 7 98 7 190 0 191
3 183 -100 254 -29 20 -53 38 -53 40 0 4 99 174 105 181 2 2 34 -11 71 -28 96
-44 131 -43 197 8 29 23 87 57 128 76 102 47 110 58 123 166 l10 90 107 0 107
0 7 -67z"/>
<path d="M1488 1888 c-77 -10 -143 -45 -201 -107 -74 -79 -92 -127 -92 -241 0
-84 3 -102 28 -152 35 -72 93 -130 165 -165 50 -25 68 -28 152 -28 81 0 103 4
150 26 76 35 121 77 158 146 140 264 -64 560 -360 521z m140 -225 c87 -63 79
-197 -14 -250 -66 -38 -136 -24 -187 36 -57 69 -39 174 38 219 48 28 122 26
163 -5z"/>
<path d="M212 2284 c-26 -13 -41 -35 -71 -98 -225 -475 -176 -1061 126 -1514
71 -107 241 -284 352 -367 373 -280 863 -373 1321 -250 416 112 770 390 959
754 l42 82 30 -26 c55 -46 127 -27 155 41 16 38 17 34 -58 208 -53 121 -82
156 -132 156 -30 0 -289 -119 -308 -141 -27 -32 -23 -91 9 -129 24 -29 31 -31
74 -28 l48 3 -40 -75 c-59 -108 -121 -192 -219 -294 -222 -232 -491 -361 -825
-397 -241 -25 -525 26 -740 133 -248 124 -495 379 -608 628 -80 177 -115 322
-124 510 -9 219 24 398 113 607 41 96 44 108 34 139 -20 59 -83 85 -138 58z"/>
</g>
</svg>
