<?xml version="1.0" encoding="UTF-8"?>
<svg version="1.1" xmlns="http://www.w3.org/2000/svg" width="256" height="256">
<path d="M0 0 C1.13888672 -0.01063477 1.13888672 -0.01063477 2.30078125 -0.02148438 C5.48451783 0.01475781 8.07524219 0.24248541 10.984375 1.578125 C13.13136505 4.21206124 13.1055015 6.26540995 13.25 9.625 C13.30671875 10.71167969 13.3634375 11.79835938 13.421875 12.91796875 C13.44765625 13.74941406 13.4734375 14.58085937 13.5 15.4375 C16.19815072 16.47343158 16.19815072 16.47343158 19.5 16.4375 C21.05462555 15.17508277 21.05462555 15.17508277 22.4375 13.5 C24.75485544 10.93586125 25.32609775 10.47936536 28.875 9.625 C35.14938395 11.03132744 39.34001486 15.54024174 43 20.6875 C44.5 23.4375 44.5 23.4375 44.5 26.4375 C45.33572178 26.43335193 45.33572178 26.43335193 46.18832684 26.42912006 C59.75099986 26.3628392 73.31364448 26.31340078 86.87644482 26.28206348 C93.43535072 26.26639998 99.99413983 26.24514888 106.55297852 26.21118164 C112.88125572 26.17861312 119.2094205 26.16065214 125.53777504 26.15286827 C127.95353274 26.1473203 130.36928422 26.13648664 132.78499413 26.12030983 C136.16563649 26.09856936 139.54581278 26.09553172 142.92651367 26.09692383 C143.92776779 26.086138 144.92902191 26.07535217 145.96061707 26.0642395 C154.71169299 26.10329659 154.71169299 26.10329659 158.5 29.4375 C160.78379778 32.93393441 160.75585112 35.95720218 160.76742554 40.07298279 C160.77195665 40.73849169 160.77648776 41.4040006 160.78115618 42.08967644 C160.79380996 44.31823717 160.79217923 46.54655382 160.79052734 48.77514648 C160.79651193 50.37351801 160.80331732 51.97188664 160.81088257 53.57025146 C160.82855535 57.91113642 160.83323844 62.25194253 160.83451414 66.59285998 C160.83641319 70.21620647 160.84377067 73.83953458 160.85085833 77.462874 C160.86714419 86.01049643 160.87202704 94.55807673 160.87060547 103.10571289 C160.86940346 111.92514505 160.89051654 120.74433272 160.9220928 129.563703 C160.94823501 137.13493611 160.95897365 144.70608926 160.95769465 152.27736717 C160.95718448 156.79972398 160.96289824 161.32186346 160.98405075 165.84417534 C161.00339903 170.09682035 161.00358121 174.34903991 160.98901749 178.60169983 C160.98692414 180.16217736 160.99166159 181.72268128 161.0037384 183.28311348 C161.01916363 185.41425487 161.00990316 187.54392415 160.99447632 189.67503357 C160.99556585 190.86724738 160.99665539 192.05946119 160.99777794 193.2878027 C160.39861955 197.07898631 159.15547819 198.71830885 156.5 201.4375 C152.24680259 203.92362322 147.83190014 203.70839775 143.0378418 203.66455078 C142.1983046 203.66484283 141.3587674 203.66513489 140.49378967 203.66543579 C137.72882624 203.66404647 134.9641349 203.64850402 132.19921875 203.6328125 C130.27822517 203.62908096 128.35722969 203.62623465 126.43623352 203.62423706 C121.38755003 203.61661175 116.33898215 203.59697269 111.29034424 203.5748291 C106.13563603 203.55434695 100.98090908 203.54523027 95.82617188 203.53515625 C85.7173972 203.51372579 75.60870823 203.47960311 65.5 203.4375 C65.5 208.0575 65.5 212.6775 65.5 217.4375 C68.47 218.4275 68.47 218.4275 71.5 219.4375 C73.25941274 220.33910243 74.99110087 221.2972906 76.6875 222.3125 C77.52667969 222.80492187 78.36585938 223.29734375 79.23046875 223.8046875 C81.58055451 225.49545488 82.98813297 226.97890473 84.5 229.4375 C84.94963189 232.95961647 84.72232631 234.94838212 83.25 238.1875 C81.31681048 240.67302938 80.41776124 241.34922422 77.5 242.4375 C75.01178525 242.63214188 72.63609266 242.72110965 70.14868164 242.7121582 C69.41485764 242.71726913 68.68103363 242.72238007 67.92497253 242.72764587 C65.50328375 242.74152674 63.08188005 242.74058629 60.66015625 242.73828125 C58.97391148 242.74216898 57.28766769 242.74650381 55.60142517 242.75126648 C52.0683169 242.75872542 48.53530856 242.75843976 45.00219727 242.75317383 C40.47827807 242.74737928 35.9547683 242.76431126 31.43091679 242.7875185 C27.94874181 242.80226199 24.4666653 242.80312672 20.98446465 242.80000877 C19.31672797 242.80052167 17.64898574 242.80575342 15.98127937 242.81582069 C13.64748782 242.8281801 11.31449204 242.821397 8.98071289 242.80981445 C8.29431732 242.81745819 7.60792175 242.82510193 6.90072632 242.83297729 C2.60196422 242.78590525 -0.05949327 242.02462699 -3.5 239.4375 C-5.82402951 236.22812591 -5.97570691 233.32243979 -5.5 229.4375 C-2.63148136 225.0650978 0.5217951 223.0097303 5.125 220.625 C6.27226563 220.02042969 7.41953125 219.41585937 8.6015625 218.79296875 C11.5 217.4375 11.5 217.4375 13.5 217.4375 C13.5 212.8175 13.5 208.1975 13.5 203.4375 C12.42338104 203.44638245 11.34676208 203.45526489 10.23751831 203.4644165 C0.08530676 203.54554656 -10.0668389 203.6054867 -20.21930122 203.64474869 C-25.4386561 203.66561239 -30.65774901 203.69390807 -35.87695312 203.73925781 C-40.91496222 203.78275859 -45.95271952 203.80664626 -50.99090195 203.81700897 C-52.91183307 203.82439271 -54.8327506 203.83881152 -56.75357437 203.86042023 C-59.44685765 203.88951048 -62.13910411 203.89345366 -64.83251953 203.89160156 C-65.62446213 203.90598267 -66.41640472 203.92036377 -67.23234558 203.93518066 C-72.43326396 203.89654921 -75.37918192 202.88169756 -79.5 199.4375 C-81.90392202 195.83161697 -81.75331455 194.21128014 -81.76069641 189.92227173 C-81.76452196 189.25761725 -81.76834751 188.59296277 -81.77228898 187.90816724 C-81.78262448 185.67649115 -81.77862586 183.44507208 -81.7746582 181.21337891 C-81.77900442 179.61515565 -81.78418727 178.01693449 -81.79014587 176.41871643 C-81.80355792 172.07363221 -81.80411202 167.72863485 -81.80158257 163.38353395 C-81.8005142 159.75775365 -81.8053929 156.13199102 -81.810188 152.5062145 C-81.82129115 143.95237179 -81.82171627 135.39857299 -81.81567383 126.84472656 C-81.80963447 118.0179707 -81.82194221 109.19137426 -81.8432439 100.3646456 C-81.86085421 92.78918777 -81.86686209 85.21378071 -81.86360615 77.63830316 C-81.86179199 73.11262135 -81.86444258 68.58705322 -81.87832069 64.06138992 C-81.89088491 59.80470699 -81.88896834 55.54827262 -81.87590981 51.29159355 C-81.87354127 49.72950978 -81.87628865 48.16740859 -81.88453293 46.60534477 C-81.89497924 44.47217256 -81.88691766 42.33983762 -81.8742218 40.20669556 C-81.87447341 38.41642661 -81.87447341 38.41642661 -81.87473011 36.58999062 C-81.4614254 33.1129836 -80.55822231 31.23949385 -78.5 28.4375 C-75.05074119 25.85878686 -71.51583811 26.20786198 -67.328125 26.2421875 C-66.3044986 26.24643234 -66.3044986 26.24643234 -65.26019287 26.25076294 C-63.08994693 26.26191902 -60.92012029 26.28701443 -58.75 26.3125 C-57.27474556 26.32253574 -55.79948463 26.33166056 -54.32421875 26.33984375 C-50.71601058 26.36184313 -47.10804625 26.39634117 -43.5 26.4375 C-43.54455322 25.67219971 -43.58910645 24.90689941 -43.63500977 24.1184082 C-43.43584929 20.16365028 -41.12695725 18.25820716 -38.4375 15.625 C-37.97150391 15.12291016 -37.50550781 14.62082031 -37.02539062 14.10351562 C-34.31639378 11.39451878 -32.67390499 10.46210392 -28.85546875 9.921875 C-25.31029514 10.46665139 -24.25035721 10.93157188 -21.875 13.5 C-20.35290789 15.26349979 -20.35290789 15.26349979 -18.5 16.4375 C-15.82945679 16.20510169 -15.82945679 16.20510169 -13.5 15.4375 C-13.47421875 14.68984375 -13.4484375 13.9421875 -13.421875 13.171875 C-13.33679688 11.69460937 -13.33679688 11.69460937 -13.25 10.1875 C-13.20359375 9.21296875 -13.1571875 8.2384375 -13.109375 7.234375 C-11.52795821 -0.02392257 -6.52009309 -0.1715814 0 0 Z M-5.5 7.4375 C-5.603125 9.190625 -5.70625 10.94375 -5.8125 12.75 C-6.11855853 17.95299495 -6.11855853 17.95299495 -7.90234375 20.21875 C-11.03329053 22.6071495 -13.94291006 23.35341095 -17.8125 23.9375 C-23.05795175 23.22625231 -25.47892503 20.8236684 -29.5 17.4375 C-31.81 19.7475 -34.12 22.0575 -36.5 24.4375 C-35.51 25.613125 -34.52 26.78875 -33.5 28 C-31.30648112 30.94543433 -30.52416619 32.28444746 -29.9375 36 C-30.59335033 40.00797424 -31.62745573 42.83645332 -33.5 46.4375 C-37.38501735 48.38000868 -42.24294555 48.09099557 -46.5 48.4375 C-46.5 52.0675 -46.5 55.6975 -46.5 59.4375 C-44.14875 59.5921875 -44.14875 59.5921875 -41.75 59.75 C-37.7096546 60.0158122 -35.51772511 60.68921463 -32.5 63.4375 C-30.20991877 67.44514215 -29.47808699 71.92405089 -30.5 76.4375 C-32.26315432 79.15398776 -34.1880007 81.1255007 -36.5 83.4375 C-33.035 86.9025 -33.035 86.9025 -29.5 90.4375 C-25.5906007 88.75845347 -25.5906007 88.75845347 -23.5 86.375 C-21.36697061 84.30862778 -20.32108277 84.00759381 -17.5 83.4375 C-15.94803773 74.78680562 -15.94803773 74.78680562 -18.875 66.8125 C-19.73396567 65.67521025 -20.60620559 64.54762682 -21.5 63.4375 C-24.04982408 58.33785185 -23.25544209 50.34094612 -21.8515625 44.9453125 C-19.25064705 39.23219052 -14.77756613 35.03243603 -9.1640625 32.30078125 C-2.33123419 30.08662428 5.35400904 30.48957888 11.9375 33.3125 C17.31045426 36.3665082 20.04980267 40.87708908 22.5 46.4375 C22.995 48.4175 22.995 48.4175 23.5 50.4375 C31.09 50.4375 38.68 50.4375 46.5 50.4375 C46.5 49.7775 46.5 49.1175 46.5 48.4375 C45.74074219 48.40011719 44.98148437 48.36273438 44.19921875 48.32421875 C43.20535156 48.25847656 42.21148437 48.19273438 41.1875 48.125 C39.70830078 48.03798828 39.70830078 48.03798828 38.19921875 47.94921875 C35.21156398 47.38281821 34.31346045 46.81476065 32.5 44.4375 C30.36398336 40.39031058 29.86360022 36.97184842 30.5 32.4375 C32.29904443 30.05272017 34.20485448 28.3979368 36.5 26.4375 C34.9169423 22.1632442 31.99431596 20.17218206 28.5 17.4375 C27.2625 18.9225 27.2625 18.9225 26 20.4375 C23.27214492 23.1589366 22.63504572 23.42035134 18.5625 23.9375 C14.69611512 23.63951273 11.16939947 22.66063316 7.5 21.4375 C6.84 16.8175 6.18 12.1975 5.5 7.4375 C1.87 7.4375 -1.76 7.4375 -5.5 7.4375 Z M-74.5 35.4375 C-74.79886504 37.84623612 -74.79886504 37.84623612 -74.74050903 40.6892395 C-74.74326403 41.80033648 -74.74601902 42.91143345 -74.7488575 44.05620003 C-74.74166128 45.28562765 -74.73446507 46.51505527 -74.72705078 47.78173828 C-74.72729185 49.09038786 -74.72753292 50.39903744 -74.7277813 51.74734306 C-74.7282337 55.29431984 -74.71662361 58.84116228 -74.70256042 62.3881073 C-74.69118909 65.71373124 -74.6906352 69.03934915 -74.68920898 72.36499023 C-74.67870514 82.09751136 -74.65078295 91.83000736 -74.625 101.5625 C-74.58375 123.30125 -74.5425 145.04 -74.5 167.4375 C0.74 167.4375 75.98 167.4375 153.5 167.4375 C153.54125 145.69875 153.5825 123.96 153.625 101.5625 C153.64320801 94.68937988 153.66141602 87.81625977 153.68017578 80.73486328 C153.68686317 74.59300332 153.68686317 74.59300332 153.69088745 68.45114136 C153.69396589 65.70782353 153.70027436 62.96468738 153.71115112 60.22140503 C153.72737517 56.07481411 153.72781464 51.92836082 153.72705078 47.78173828 C153.73784511 45.93759685 153.73784511 45.93759685 153.7488575 44.05620003 C153.74472501 42.38955457 153.74472501 42.38955457 153.74050903 40.6892395 C153.74235262 39.7176697 153.74419621 38.74609989 153.74609566 37.74508858 C153.72350401 35.24224763 153.72350401 35.24224763 151.5 33.4375 C149.40996517 33.13964397 149.40996517 33.13964397 146.96957397 33.19699097 C145.53925087 33.19286697 145.53925087 33.19286697 144.08003235 33.18865967 C143.03058945 33.19585022 141.98114655 33.20304077 140.89990234 33.21044922 C139.79745682 33.21015717 138.69501129 33.20986511 137.55915833 33.20956421 C133.90133903 33.21096178 130.24372138 33.2265432 126.5859375 33.2421875 C124.05530916 33.24591611 121.52467937 33.2487638 118.99404907 33.25076294 C113.00523494 33.25762889 107.01650788 33.27340488 101.02772868 33.29346192 C94.21040993 33.31579931 87.39308775 33.3268089 80.57574153 33.33685279 C66.550454 33.35777055 52.52523098 33.39296001 38.5 33.4375 C36.74340472 36.36892334 36.74340472 36.36892334 37.03515625 39.65234375 C38.39195911 41.68942901 38.39195911 41.68942901 40.99609375 41.94140625 C42.45208984 41.97041016 42.45208984 41.97041016 43.9375 42 C49.02638712 42.11519452 49.02638712 42.11519452 51.28515625 43.65234375 C52.79361712 45.86895667 53.14379837 47.80160794 53.5 50.4375 C54.32242188 50.33566406 55.14484375 50.23382813 55.9921875 50.12890625 C64.71054115 49.79668261 64.71054115 49.79668261 68.01660156 52.828125 C70.96302679 56.48490432 73.2525412 60.52763476 75.49560547 64.64208984 C76.70741799 66.80827101 78.12004003 68.79469987 79.5625 70.8125 C82.04267719 74.77729029 82.38277909 78.83391501 82.5 83.4375 C83.345625 83.53546875 84.19125 83.6334375 85.0625 83.734375 C95.92643888 85.16643967 102.66474268 87.30850448 109.796875 95.88671875 C115.52848311 104.47098502 114.83592778 113.54792958 112.953125 123.2578125 C112.80359375 123.97710937 112.6540625 124.69640625 112.5 125.4375 C113.15226563 125.95699219 113.80453125 126.47648437 114.4765625 127.01171875 C115.35054687 127.70910156 116.22453125 128.40648437 117.125 129.125 C118.03507813 129.85074219 118.94515625 130.57648438 119.8828125 131.32421875 C121.95430933 132.99687514 123.9850284 134.69820859 126 136.4375 C128.22669592 138.64573168 128.22669592 138.64573168 130.5 138.4375 C131.8461031 142.4758093 132.07269422 146.21483461 131.5 150.4375 C128.85365975 153.96595367 126.70661393 155.24444177 122.375 155.9375 C114.00371291 154.85733392 108.63905039 146.53863477 103.3828125 140.4765625 C101.66090625 138.37056009 101.66090625 138.37056009 99.5 137.4375 C98.695625 137.72625 97.89125 138.015 97.0625 138.3125 C92.20731551 139.84571615 87.57645179 140.06605231 82.5 140.4375 C82.17 144.0675 81.84 147.6975 81.5 151.4375 C49.16 151.1075 16.82 150.7775 -16.5 150.4375 C-16.83 130.6375 -17.16 110.8375 -17.5 90.4375 C-19.81 92.4175 -22.12 94.3975 -24.5 96.4375 C-27.5625 97.5625 -27.5625 97.5625 -30.5 97.4375 C-35.46988847 94.95255576 -39.57567646 91.17211907 -42.5 86.4375 C-43.25 82.875 -43.25 82.875 -42.5 79.4375 C-41.03051672 77.75397434 -39.45161845 76.32489507 -37.7734375 74.8515625 C-36.18600174 73.41390548 -36.18600174 73.41390548 -36.5625 70.6875 C-37.16132097 69.25032966 -37.80371771 67.83006458 -38.5 66.4375 C-41.5727862 66.07998879 -44.62409138 65.99310568 -47.71484375 65.87890625 C-48.63394531 65.73324219 -49.55304687 65.58757812 -50.5 65.4375 C-53.06212287 61.59431569 -52.83108539 58.39056045 -52.8125 53.9375 C-52.82861328 53.16535156 -52.84472656 52.39320312 -52.86132812 51.59765625 C-52.86626487 45.90064742 -52.86626487 45.90064742 -51.14599609 43.7253418 C-48.77933805 41.87364777 -46.77761996 41.92441882 -43.8125 41.75 C-42.81863281 41.68425781 -41.82476562 41.61851563 -40.80078125 41.55078125 C-39.66189453 41.49470703 -39.66189453 41.49470703 -38.5 41.4375 C-37.84 39.4575 -37.18 37.4775 -36.5 35.4375 C-38.98850674 32.94899326 -40.4621006 33.1913767 -43.85913086 33.15960693 C-44.58624268 33.1636554 -45.31335449 33.16770386 -46.0625 33.171875 C-46.80959229 33.16996155 -47.55668457 33.1680481 -48.32641602 33.16607666 C-49.90674171 33.16471502 -51.48707858 33.16841 -53.06738281 33.17675781 C-55.49048922 33.187458 -57.91285423 33.17686221 -60.3359375 33.1640625 C-61.86979331 33.1653841 -63.40364865 33.1679465 -64.9375 33.171875 C-65.66461182 33.16782654 -66.39172363 33.16377808 -67.14086914 33.15960693 C-71.27469633 33.07018498 -71.27469633 33.07018498 -74.5 35.4375 Z M-13.8125 44.0625 C-17.27530307 48.93607469 -17.13410335 53.58233785 -16.5 59.4375 C-15.42640635 61.90817185 -14.28251861 63.37646286 -12.5 65.4375 C-9.38952892 62.59836788 -7.75823711 59.97792843 -5.875 56.25 C-4.03368038 53.46964821 -2.70963117 51.75970872 0.58056641 50.88330078 C5.88164053 50.17641829 11.1651675 50.24555894 16.5 50.4375 C15.345776 46.3111492 14.39208734 43.79123814 11 41.125 C10.3915625 40.63386719 9.783125 40.14273438 9.15625 39.63671875 C1.32472556 33.96625176 -8.00675579 37.47219577 -13.8125 44.0625 Z M-2.69726562 61.98950195 C-5.50171512 66.94895946 -5.50171512 66.94895946 -6.5 72.4375 C2.08 72.4375 10.66 72.4375 19.5 72.4375 C19.83 67.4875 20.16 62.5375 20.5 57.4375 C7.39534928 55.3117608 7.39534928 55.3117608 -2.69726562 61.98950195 Z M27.5 57.4375 C26.24593862 63.22395644 26.38813087 68.92618116 26.4375 74.8125 C26.44201172 75.83472656 26.44652344 76.85695313 26.45117188 77.91015625 C26.462897 80.41933194 26.47930824 82.9283849 26.5 85.4375 C27.10714844 85.10105469 27.71429688 84.76460937 28.33984375 84.41796875 C31.96194176 82.77394235 34.87502362 84.22917454 38.5 85.4375 C38.64864015 71.40846813 38.64864015 71.40846813 37.5 57.4375 C34.2 57.4375 30.9 57.4375 27.5 57.4375 Z M44.5 57.4375 C44.47250234 58.81238287 44.4533836 60.18743391 44.4375 61.5625 C44.42589844 62.32820313 44.41429687 63.09390625 44.40234375 63.8828125 C44.46867617 67.03025908 44.46867617 67.03025908 45.5 72.4375 C54.08 72.4375 62.66 72.4375 71.5 72.4375 C68.38141635 63.98347073 68.38141635 63.98347073 62.5 57.4375 C56.60573053 56.16332396 50.44849856 56.87097633 44.5 57.4375 Z M-10.5 79.4375 C-10.5 100.8875 -10.5 122.3375 -10.5 144.4375 C17.88 144.4375 46.26 144.4375 75.5 144.4375 C75.5 142.4575 75.5 140.4775 75.5 138.4375 C73.49842645 136.51643773 73.49842645 136.51643773 70.8125 135.125 C64.50285606 131.11220945 61.82565072 126.41445217 59.5 119.4375 C58.71770259 110.21756628 58.71336139 102.09302907 64.5 94.4375 C67.82441054 90.91258999 70.86369881 87.98293373 75.5 86.4375 C75.5 84.1275 75.5 81.8175 75.5 79.4375 C65.6 79.4375 55.7 79.4375 45.5 79.4375 C45.17 84.7175 44.84 89.9975 44.5 95.4375 C38.875 95.4375 38.875 95.4375 35.6875 92.9375 C34.78064453 92.24140625 34.78064453 92.24140625 33.85546875 91.53125 C33.40816406 91.1703125 32.96085937 90.809375 32.5 90.4375 C31.96890625 90.7984375 31.4378125 91.159375 30.890625 91.53125 C30.18421875 91.9953125 29.4778125 92.459375 28.75 92.9375 C28.05390625 93.4015625 27.3578125 93.865625 26.640625 94.34375 C24.5 95.4375 24.5 95.4375 20.5 95.4375 C20.17 90.1575 19.84 84.8775 19.5 79.4375 C9.6 79.4375 -0.3 79.4375 -10.5 79.4375 Z M68.65625 99.55859375 C64.95075906 105.58001652 64.62915829 111.52463285 65.5 118.4375 C67.98139801 124.93386388 72.83802268 129.30134656 78.75 132.75 C85.54189514 134.44797379 91.63423842 134.15081562 97.75 130.63671875 C103.81083782 126.4834214 106.74778422 121.71501161 108.375 114.625 C108.94754158 108.24177049 106.73004784 102.65052198 102.875 97.625 C98.51560031 92.97353134 93.2957875 90.84416 87.0625 89.9375 C79.40892828 91.0116855 73.52896273 93.45353797 68.65625 99.55859375 Z M107.5 131.4375 C107.5 135.09635288 108.20804036 135.57174282 110.625 138.1875 C111.25792969 138.88359375 111.89085937 139.5796875 112.54296875 140.296875 C113.18878906 141.00328125 113.83460938 141.7096875 114.5 142.4375 C115.65130034 143.76611557 116.79764388 145.0990532 117.9375 146.4375 C118.783125 147.4275 119.62875 148.4175 120.5 149.4375 C121.82 149.1075 123.14 148.7775 124.5 148.4375 C124.83 147.1175 125.16 145.7975 125.5 144.4375 C123.25722666 142.44958727 121.00651246 140.4722098 118.75 138.5 C118.11578125 137.93603516 117.4815625 137.37207031 116.828125 136.79101562 C115.9 135.98374023 115.9 135.98374023 114.953125 135.16015625 C114.38754883 134.66265869 113.82197266 134.16516113 113.23925781 133.65258789 C111.33376687 132.32136548 109.7704314 131.85722534 107.5 131.4375 Z M-74.5 174.4375 C-74.5 181.0375 -74.5 187.6375 -74.5 194.4375 C-70.58168753 197.04970832 -67.27694207 196.71524143 -62.73144531 196.69146729 C-61.82445011 196.69458727 -60.91745491 196.69770725 -59.98297501 196.70092177 C-56.93129303 196.70892525 -53.8798086 196.70256897 -50.828125 196.69628906 C-48.64538455 196.69899788 -46.46264502 196.70255819 -44.27990723 196.70690918 C-38.3420336 196.71604843 -32.40422925 196.71248259 -26.46635437 196.70615101 C-20.26174732 196.70109896 -14.05714634 196.70578024 -7.85253906 196.70892334 C3.23648447 196.71279881 14.32548067 196.70657075 25.41449881 196.69640467 C35.47296278 196.68746892 45.5313806 196.68902089 55.58984375 196.69824219 C67.2647132 196.70894032 78.9395557 196.71293186 90.61442947 196.70701766 C96.79663451 196.70389434 102.97880773 196.70349853 109.16101074 196.71009064 C114.97218502 196.71585392 120.78327185 196.71188588 126.59443665 196.70030212 C128.73142857 196.69765008 130.86842782 196.69842985 133.00541687 196.70282745 C135.91419351 196.70826289 138.8226869 196.70147315 141.73144531 196.69146729 C143.01095377 196.69815945 143.01095377 196.69815945 144.31631088 196.70498681 C148.22745794 196.67874858 150.17093553 196.65687631 153.5 194.4375 C153.5 187.8375 153.5 181.2375 153.5 174.4375 C78.26 174.4375 3.02 174.4375 -74.5 174.4375 Z M20.5 203.4375 C20.17 209.3775 19.84 215.3175 19.5 221.4375 C15.98447564 224.87475034 14.69829328 225.92795762 10.4375 227.5625 C9.58349609 227.95824219 8.72949219 228.35398438 7.84960938 228.76171875 C5.75286213 229.72223983 3.65060378 230.60651927 1.5 231.4375 C2.16 232.7575 2.82 234.0775 3.5 235.4375 C27.26 235.4375 51.02 235.4375 75.5 235.4375 C76.16 234.1175 76.82 232.7975 77.5 231.4375 C76.95996338 231.22883301 76.41992676 231.02016602 75.86352539 230.80517578 C73.39149096 229.79888917 70.98402371 228.68462495 68.5625 227.5625 C67.71236328 227.23636719 66.86222656 226.91023438 65.98632812 226.57421875 C63.53515625 225.3828125 63.53515625 225.3828125 59.5 221.4375 C59.005 212.5275 59.005 212.5275 58.5 203.4375 C45.96 203.4375 33.42 203.4375 20.5 203.4375 Z " fill="#000000" transform="translate(88.5,6.5625)"/>
<path d="M0 0 C1.4616156 -0.00945648 1.4616156 -0.00945648 2.95275879 -0.019104 C4.53558655 -0.01303131 4.53558655 -0.01303131 6.15039062 -0.00683594 C7.23042358 -0.00874939 8.31045654 -0.01066284 9.42321777 -0.01263428 C11.70971916 -0.01399701 13.99622826 -0.01029445 16.28271484 -0.00195312 C19.79216817 0.00874495 23.30110956 -0.00184566 26.81054688 -0.01464844 C29.02799593 -0.01332686 31.24544466 -0.0107645 33.46289062 -0.00683594 C34.51810913 -0.0108844 35.57332764 -0.01493286 36.66052246 -0.019104 C37.63493286 -0.01279968 38.60934326 -0.00649536 39.61328125 0 C40.47328735 0.00159119 41.33329346 0.00318237 42.21936035 0.00482178 C44.30664062 0.25878906 44.30664062 0.25878906 46.30664062 2.25878906 C45.97664063 3.90878906 45.64664063 5.55878906 45.30664062 7.25878906 C28.47664063 7.25878906 11.64664063 7.25878906 -5.69335938 7.25878906 C-6.02335937 5.60878906 -6.35335937 3.95878906 -6.69335938 2.25878906 C-4.2007462 -0.23382412 -3.43829147 0.00636154 0 0 Z " fill="#000000" transform="translate(87.693359375,136.7412109375)"/>
<path d="M0 0 C2.16796875 0.4375 2.16796875 0.4375 3.16796875 1.4375 C3.48858813 4.34778442 3.52709661 5.90370694 1.87036133 8.36621094 C1.27376709 8.96208008 0.67717285 9.55794922 0.0625 10.171875 C-0.59169922 10.82800781 -1.24589844 11.48414062 -1.91992188 12.16015625 C-2.61279297 12.82917969 -3.30566406 13.49820313 -4.01953125 14.1875 C-5.02983398 15.21423828 -5.02983398 15.21423828 -6.06054688 16.26171875 C-11.96218096 22.07698746 -11.96218096 22.07698746 -16.83203125 22.4375 C-19.54296875 20.5234375 -19.54296875 20.5234375 -22.20703125 17.8125 C-23.10164062 16.93335937 -23.99625 16.05421875 -24.91796875 15.1484375 C-26.83203125 12.4375 -26.83203125 12.4375 -26.62109375 9.6015625 C-26.36070312 8.88742188 -26.1003125 8.17328125 -25.83203125 7.4375 C-23.19203768 7.04926565 -21.46298642 6.99227343 -19.23876953 8.56176758 C-17.76985677 9.85367839 -16.30094401 11.14558919 -14.83203125 12.4375 C-14.02378906 11.57125 -13.21554688 10.705 -12.3828125 9.8125 C-11.30406395 8.68684934 -10.22459911 7.56188483 -9.14453125 6.4375 C-8.61408203 5.86515625 -8.08363281 5.2928125 -7.53710938 4.703125 C-3.49830145 0.54042726 -3.49830145 0.54042726 0 0 Z " fill="#000000" transform="translate(186.83203125,107.5625)"/>
<path d="M0 0 C4.68139254 -0.02465288 9.36274759 -0.04283739 14.04418945 -0.05493164 C15.63794614 -0.05997157 17.23169819 -0.0668035 18.82543945 -0.07543945 C21.11150253 -0.08751999 23.39750467 -0.09323155 25.68359375 -0.09765625 C26.40026718 -0.10281754 27.11694061 -0.10797882 27.85533142 -0.11329651 C29.57063672 -0.11349263 31.28581266 -0.06192007 33 0 C34 1 34 1 34.125 3.5 C34 6 34 6 33 7 C30.64771681 7.11317284 28.32588052 7.16416537 25.97265625 7.16796875 C24.91648354 7.17296135 24.91648354 7.17296135 23.838974 7.17805481 C22.34683894 7.18312655 20.8546925 7.18546306 19.36254883 7.18530273 C17.07549393 7.18748759 14.78892247 7.20563549 12.50195312 7.22460938 C11.05468916 7.22754354 9.60742289 7.22952818 8.16015625 7.23046875 C7.47365494 7.23765427 6.78715363 7.24483978 6.07984924 7.25224304 C1.22882369 7.22882369 1.22882369 7.22882369 -1 5 C-0.625 2.375 -0.625 2.375 0 0 Z " fill="#000000" transform="translate(82,124)"/>
</svg>
