<svg id="Layer_1" enable-background="new 0 0 70 70" viewBox="0 0 70 70" xmlns="http://www.w3.org/2000/svg"><g><g><g><g><g><path d="m48.99 62.86c-.05 0-.11-.01-.16-.03-.26-.09-.4-.37-.32-.63.1-.31.11-.66.02-.99-.21-.77-1-1.33-1.88-1.33-.67 0-1.33-.12-1.94-.35-.26-.1-.39-.39-.29-.65s.39-.39.65-.29c.5.19 1.03.29 1.58.29 1.32 0 2.52.87 2.84 2.07.14.53.13 1.07-.04 1.57-.06.21-.25.34-.46.34z"/></g><g><path d="m21.01 64.48h-.72c-1.53 0-2.82-1.13-2.94-2.57-.07-.82.24-1.65.82-2.21.51-.52 1.22-.82 1.98-.82h.29c2.51 0 4.54-1.97 4.62-4.48.01-.27.2-.5.52-.48.28.01.49.24.48.52-.1 3.05-2.57 5.44-5.62 5.44h-.29c-.49 0-.93.18-1.27.53-.38.37-.57.89-.53 1.42.08.93.93 1.65 1.94 1.65h.72c.28 0 .5.22.5.5s-.23.5-.5.5z"/></g><g><path d="m7.23 51.14c-.08 0-.15-.02-.22-.05-2.51-1.26-4.07-3.79-4.07-6.6v-34.65c0-4.07 3.31-7.38 7.38-7.38h46.31c2.81 0 5.34 1.56 6.6 4.07.12.25.02.55-.23.67s-.55.02-.67-.22c-1.09-2.17-3.27-3.51-5.7-3.51h-46.31c-3.52 0-6.38 2.86-6.38 6.38v34.65c0 2.43 1.35 4.61 3.51 5.7.25.12.35.42.22.67-.08.17-.26.27-.44.27z"/></g><g><path d="m59.68 54.92h-46.32c-4.06 0-7.37-3.31-7.37-7.38v-34.65c0-4.07 3.31-7.38 7.37-7.38h46.32c4.07 0 7.38 3.31 7.38 7.38v34.65c0 4.07-3.31 7.38-7.38 7.38zm-46.32-48.41c-3.51 0-6.37 2.86-6.37 6.38v34.65c0 3.52 2.86 6.38 6.37 6.38h46.32c3.52 0 6.38-2.86 6.38-6.38v-34.65c0-3.52-2.86-6.38-6.38-6.38z"/></g><g><path d="m66.56 46.07h-60.07c-.28 0-.5-.22-.5-.5s.22-.5.5-.5h60.07c.28 0 .5.22.5.5s-.22.5-.5.5z"/></g><g><path d="m49.83 67.54h-26.49c-1.53 0-2.82-1.13-2.94-2.58-.07-.83.23-1.64.82-2.21.53-.53 1.24-.82 1.99-.82h.28c2.55 0 4.63-2.08 4.63-4.63v-2.87c0-.28.22-.5.5-.5h15.96c.28 0 .5.22.5.5v2.87c0 2.55 2.08 4.63 4.63 4.63 1.35 0 2.52.86 2.84 2.08.26.98-.02 1.99-.73 2.7-.53.53-1.24.83-1.99.83zm-26.62-4.61c-.48 0-.94.19-1.28.53-.38.37-.57.89-.53 1.42.07.93.93 1.65 1.94 1.65h26.49c.48 0 .94-.19 1.28-.53.46-.46.64-1.11.47-1.74-.2-.77-.99-1.33-1.87-1.33-3.11 0-5.63-2.53-5.63-5.63v-2.37h-14.96v2.37c0 3.11-2.53 5.63-5.63 5.63z"/></g></g><g><path d="m43.9 50.5h-14.75c-.28 0-.5-.22-.5-.5s.22-.5.5-.5h14.75c.28 0 .5.22.5.5s-.22.5-.5.5z"/></g></g></g><g><g><path d="m24.9 39.88c-.05 0-.1 0-.14 0-.66-.04-1.27-.36-1.67-.88-5.53-7.08-4.57-17.3 2.18-23.27 6.42-5.66 16.09-5.66 22.51 0 6.76 5.97 7.72 16.19 2.18 23.27-.4.52-1.01.84-1.67.88s-1.32-.2-1.79-.68l-1.47-1.47c-.81-.81-.91-2.1-.23-3 3.23-4.28 2.66-10.25-1.32-13.88-3.9-3.56-10.02-3.56-13.93 0-3.98 3.63-4.55 9.59-1.32 13.88.68.9.58 2.19-.23 3l-1.46 1.46c-.43.45-1.02.69-1.64.69zm11.63-22.69c2.75 0 5.5.98 7.64 2.93 4.37 3.98 4.99 10.52 1.44 15.22-.38.51-.32 1.23.14 1.69l1.47 1.47c.27.27.64.41 1.02.38.37-.02.72-.2.94-.5 5.21-6.66 4.31-16.28-2.05-21.9-6.04-5.33-15.15-5.33-21.19 0-6.36 5.62-7.26 15.24-2.06 21.9.23.29.57.47.95.5s.75-.12 1.02-.38l1.47-1.47c.46-.46.52-1.18.14-1.69-3.54-4.7-2.92-11.24 1.44-15.22 2.13-1.95 4.88-2.93 7.63-2.93z"/></g><g><path d="m36.36 18.17c-.28 0-.5-.22-.5-.5v-5.51c0-.28.22-.5.5-.5s.5.22.5.5v5.51c0 .28-.22.5-.5.5z"/></g><g><path d="m46.8 24.98c-.21 0-.4-.13-.47-.33-.09-.26.04-.55.31-.64l5.2-1.83c.26-.09.54.04.64.31.09.26-.04.55-.31.64l-5.2 1.83c-.06.01-.12.02-.17.02z"/></g><g><path d="m26.49 24.98c-.05 0-.11-.01-.17-.03l-5.2-1.83c-.26-.09-.4-.38-.31-.64s.38-.4.64-.31l5.2 1.83c.26.09.4.38.31.64-.07.21-.27.34-.47.34z"/></g><g><path d="m36.37 32.97c-1.07 0-2.14-.41-2.96-1.22-1.63-1.63-1.63-4.29 0-5.92 1.05-1.05 5.17-2.79 8.44-4.07.45-.17.94-.07 1.28.27s.44.83.27 1.28c-1.28 3.27-3.02 7.39-4.07 8.44-.82.81-1.89 1.22-2.96 1.22zm5.92-10.29c-.02 0-.05 0-.08.02-4.37 1.7-7.4 3.14-8.1 3.84-1.24 1.24-1.24 3.26 0 4.5s3.26 1.24 4.5 0c.7-.7 2.14-3.73 3.84-8.09.04-.1-.01-.17-.04-.21-.01-.03-.06-.06-.12-.06z"/></g><g><path d="m37.2 29.01c0 .57-.46 1.05-1.04 1.05-.57 0-1.05-.47-1.05-1.05 0-.57.47-1.04 1.05-1.04.57 0 1.04.46 1.04 1.04z"/></g><g><path d="m40.5 38.12h-7.95c-.28 0-.5-.22-.5-.5s.22-.5.5-.5h7.95c.28 0 .5.22.5.5s-.22.5-.5.5z"/></g><g><path d="m42.17 41.11h-11.29c-.28 0-.5-.22-.5-.5s.22-.5.5-.5h11.29c.28 0 .5.22.5.5s-.22.5-.5.5z"/></g></g></g></svg>