<svg clip-rule="evenodd" fill-rule="evenodd" height="512" image-rendering="optimizeQuality" shape-rendering="geometricPrecision" text-rendering="geometricPrecision" viewBox="0 0 512 512" width="512" xmlns="http://www.w3.org/2000/svg" xmlns:xodm="http://www.corel.com/coreldraw/odm/2003"><g id="Layer_x0020_1"><g id="_1810539760176"><g><g id="_278963632"><path d="m404.29 394.99h-370.86c-18.41 0-33.39-14.98-33.39-33.39v-254.97c0-18.41 14.98-33.39 33.39-33.39h339.56c1.59 0 3.11.63 4.24 1.76l11.81 11.81c1.93 1.93 2.31 4.91.95 7.26-2.15 3.7-3.8 7.67-4.89 11.8-.7 2.63-3.08 4.46-5.8 4.46h-15.88v15.85h15.88c2.72 0 5.1 1.83 5.8 4.46 1.09 4.12 2.73 8.09 4.89 11.79 1.36 2.36.98 5.33-.95 7.26l-11.23 11.23 11.21 11.21 11.23-11.23c1.93-1.93 4.9-2.32 7.26-.95 3.7 2.15 7.66 3.8 11.79 4.89 2.63.7 4.46 3.08 4.46 5.8v15.88h7.93c3.31 0 6 2.69 6 6v169.08c0 18.41-14.98 33.39-33.4 33.39zm-370.86-309.75c-11.79 0-21.39 9.6-21.39 21.39v254.97c0 11.8 9.6 21.39 21.39 21.39h370.86c11.8 0 21.4-9.59 21.4-21.39v-163.08h-5.43c-4.68 0-8.5-3.81-8.5-8.5v-14.95c-2.09-.74-4.15-1.59-6.16-2.56l-10.57 10.58c-1.6 1.6-3.74 2.49-6.01 2.49s-4.41-.89-6.01-2.49l-16.16-16.15c-1.6-1.61-2.48-3.74-2.48-6.02 0-2.27.88-4.4 2.49-6.01l10.57-10.57c-.97-2.01-1.82-4.06-2.56-6.16h-14.95c-4.69 0-8.5-3.82-8.5-8.51v-22.84c0-4.69 3.81-8.5 8.5-8.5h14.95c.74-2.1 1.59-4.16 2.56-6.16l-6.93-6.93h-337.07z"/></g><g id="_278966080"><path d="m431.69 321.24h-425.65c-3.31 0-6-2.68-6-6 0-3.31 2.69-6 6-6h425.65c3.31 0 6 2.69 6 6 0 3.32-2.69 6-6 6z"/></g><g id="_278966152"><path d="m142.06 474.02c-1.01 0-2.04-.26-2.98-.8-2.87-1.65-3.87-5.31-2.22-8.19l45.31-79.02c1.64-2.87 5.31-3.87 8.19-2.22 2.87 1.65 3.86 5.31 2.22 8.19l-45.31 79.02c-1.11 1.93-3.13 3.02-5.21 3.02z"/></g><g id="_278965672"><path d="m295.67 474.02c-2.08 0-4.1-1.09-5.21-3.02l-45.3-79.02c-1.65-2.88-.66-6.54 2.22-8.19 2.87-1.65 6.54-.65 8.18 2.22l45.31 79.02c1.64 2.88.65 6.54-2.22 8.19-.94.54-1.97.8-2.98.8z"/></g><g id="_278966056"><path d="m322.91 474.01h-208.09c-3.31 0-6-2.68-6-6 0-3.31 2.69-5.99 6-5.99h208.09c3.31 0 5.99 2.68 5.99 5.99 0 3.32-2.68 6-5.99 6z"/></g><g id="_278965936"><path d="m218.87 373.93c-12.03 0-21.81-9.79-21.81-21.81 0-12.03 9.78-21.81 21.81-21.81 12.02 0 21.8 9.78 21.8 21.81 0 12.02-9.78 21.81-21.8 21.81zm0-31.62c-5.41 0-9.82 4.4-9.82 9.81s4.41 9.81 9.82 9.81 9.81-4.4 9.81-9.81-4.4-9.81-9.81-9.81z"/></g><g id="_278966008"><path d="m38.5 162.45h-32.46c-3.31 0-6-2.69-6-6 0-3.32 2.69-6 6-6h32.46c3.31 0 5.99 2.68 5.99 6 0 3.31-2.68 6-5.99 6z"/></g><g id="_278965984"><path d="m58.71 141.16h-52.67c-3.31 0-6-2.68-6-5.99 0-3.32 2.69-6 6-6h52.67c3.32 0 6 2.68 6 6 0 3.31-2.68 5.99-6 5.99z"/></g><g id="_278965552"><path d="m38.5 283.22h-32.46c-3.31 0-6-2.68-6-5.99 0-3.32 2.69-6 6-6h32.46c3.31 0 5.99 2.68 5.99 6 0 3.31-2.68 5.99-5.99 5.99z"/></g><g id="_278965432"><path d="m58.71 261.94h-52.67c-3.31 0-6-2.68-6-6 0-3.31 2.69-6 6-6h52.67c3.32 0 6 2.69 6 6 0 3.32-2.68 6-6 6z"/></g><g id="_278966800"><path d="m431.69 283.22h-32.46c-3.31 0-5.99-2.68-5.99-5.99 0-3.32 2.68-6 5.99-6h32.46c3.31 0 6 2.68 6 6 0 3.31-2.69 5.99-6 5.99z"/></g><g id="_278966680"><path d="m431.69 261.94h-52.68c-3.31 0-5.99-2.68-5.99-6 0-3.31 2.68-6 5.99-6h52.68c3.31 0 6 2.69 6 6 0 3.32-2.69 6-6 6z"/></g><g id="_278965840"><path d="m105.8 282.07c-9.65 0-16.68-2.47-21.42-7.48-8.73-9.25-6.76-24.08-4.85-38.42 2.43-18.3 3.17-29.68-7.01-33.27-2.4-.85-4-3.11-4-5.66 0-2.54 1.6-4.81 4-5.66 10.18-3.59 9.44-14.96 7.01-33.26-1.91-14.35-3.88-29.18 4.85-38.42 5.5-5.82 14.09-8.21 26.26-7.3 3.3.25 5.78 3.13 5.53 6.44-.24 3.3-3.11 5.77-6.43 5.53-8.22-.62-13.82.58-16.64 3.57-4.81 5.09-3.22 17.04-1.68 28.6 1.86 14.01 4.09 30.8-5.61 40.5 9.7 9.71 7.47 26.49 5.61 40.51-1.54 11.56-3.13 23.51 1.68 28.6 2.82 2.98 8.41 4.19 16.64 3.57 3.32-.25 6.19 2.22 6.43 5.53.25 3.3-2.23 6.18-5.53 6.43-1.68.13-3.29.19-4.84.19z"/></g><g id="_278966440"><path d="m316.06 282.07c-1.54 0-3.15-.06-4.84-.19-3.3-.25-5.78-3.13-5.53-6.43.25-3.31 3.11-5.79 6.43-5.54 8.23.62 13.83-.58 16.64-3.56 4.81-5.09 3.22-17.04 1.69-28.6-1.87-14.02-4.1-30.8 5.61-40.51-9.71-9.71-7.48-26.49-5.61-40.51 1.53-11.55 3.12-23.5-1.69-28.59-2.81-2.99-8.41-4.19-16.64-3.57-3.3.24-6.18-2.23-6.43-5.54-.25-3.3 2.23-6.18 5.53-6.43 12.18-.91 20.77 1.48 26.26 7.3 8.74 9.24 6.77 24.07 4.86 38.41-2.43 18.31-3.17 29.68 7.01 33.27 2.39.85 4 3.12 4 5.66s-1.6 4.81-4 5.66c-10.19 3.59-9.44 14.97-7.01 33.27 1.91 14.34 3.88 29.17-4.86 38.42-4.73 5.01-11.77 7.48-21.42 7.48z"/></g><g id="_278966752"><path d="m256.02 147.37h-90.18c-3.31 0-6-2.68-6-5.99 0-3.32 2.69-6 6-6h90.18c3.32 0 6 2.68 6 6 0 3.31-2.68 5.99-6 5.99z"/></g><g id="_278966512"><path d="m256.02 203.24h-90.18c-3.31 0-6-2.69-6-6s2.69-6 6-6h90.18c3.32 0 6 2.69 6 6s-2.68 6-6 6z"/></g><g id="_278966536"><path d="m256.02 231.17h-145.51c-3.32 0-6-2.68-6-5.99 0-3.32 2.68-6 6-6h145.51c3.32 0 6 2.68 6 6 0 3.31-2.68 5.99-6 5.99z"/></g><g id="_278966584"><path d="m256.02 259.1h-90.18c-3.31 0-6-2.68-6-5.99 0-3.32 2.69-6 6-6h90.18c3.32 0 6 2.68 6 6 0 3.31-2.68 5.99-6 5.99z"/></g><g id="_278966272"><path d="m138.44 147.37h-27.93c-3.32 0-6-2.68-6-5.99 0-3.32 2.68-6 6-6h27.93c3.31 0 6 2.68 6 6 0 3.31-2.69 5.99-6 5.99z"/></g><g id="_278966560"><path d="m138.44 203.24h-27.93c-3.32 0-6-2.69-6-6s2.68-6 6-6h27.93c3.31 0 6 2.69 6 6s-2.69 6-6 6z"/></g><g id="_278966608"><path d="m138.44 259.1h-27.93c-3.32 0-6-2.68-6-5.99 0-3.32 2.68-6 6-6h27.93c3.31 0 6 2.68 6 6 0 3.31-2.69 5.99-6 5.99z"/></g><g id="_278967448"><path d="m311.36 147.37h-27.93c-3.32 0-6-2.68-6-5.99 0-3.32 2.68-6 6-6h27.93c3.31 0 6 2.68 6 6 0 3.31-2.69 5.99-6 5.99z"/></g><g id="_278967664"><path d="m256.02 175.31h-90.18c-3.31 0-6-2.69-6-6s2.69-6 6-6h90.18c3.32 0 6 2.69 6 6s-2.68 6-6 6z"/></g><g id="_278967352"><path d="m311.36 175.31h-27.93c-3.32 0-6-2.69-6-6s2.68-6 6-6h27.93c3.31 0 6 2.69 6 6s-2.69 6-6 6z"/></g><g id="_278967640"><path d="m148.88 175.31h-38.37c-3.32 0-6-2.69-6-6s2.68-6 6-6h38.37c3.32 0 6 2.69 6 6s-2.68 6-6 6z"/></g><g id="_278967280"><path d="m311.36 203.24h-27.93c-3.32 0-6-2.69-6-6s2.68-6 6-6h27.93c3.31 0 6 2.69 6 6s-2.69 6-6 6z"/></g><g id="_278967208"><path d="m311.36 231.17h-38.38c-3.31 0-6-2.68-6-5.99 0-3.32 2.69-6 6-6h38.38c3.31 0 6 2.68 6 6 0 3.31-2.69 5.99-6 5.99z"/></g><g id="_278967112"><path d="m311.36 259.1h-27.93c-3.32 0-6-2.68-6-5.99 0-3.32 2.68-6 6-6h27.93c3.31 0 6 2.68 6 6 0 3.31-2.69 5.99-6 5.99z"/></g><g id="_278966344"><path d="m443.11 198.52h-22.84c-4.69 0-8.5-3.81-8.5-8.5v-14.95c-2.1-.74-4.16-1.59-6.17-2.56l-10.57 10.58c-1.6 1.6-3.74 2.48-6.01 2.48-2.28 0-4.41-.88-6.01-2.48l-16.16-16.15c-1.6-1.61-2.48-3.75-2.48-6.02s.88-4.41 2.49-6.01l10.57-10.57c-.97-2.01-1.82-4.06-2.56-6.16h-14.95c-4.69 0-8.5-3.82-8.5-8.5v-22.85c0-4.69 3.81-8.5 8.5-8.5h14.95c.74-2.1 1.59-4.16 2.56-6.16l-10.58-10.58c-1.6-1.6-2.48-3.74-2.48-6.01s.88-4.41 2.48-6.01l16.16-16.15c1.6-1.61 3.73-2.49 6.01-2.49 2.27 0 4.41.89 6.01 2.49l10.57 10.57c2.01-.96 4.07-1.82 6.17-2.55v-14.96c0-4.68 3.81-8.5 8.5-8.5h22.84c4.69 0 8.5 3.82 8.5 8.5v14.96c2.1.73 4.16 1.58 6.16 2.55l10.58-10.57c1.6-1.61 3.74-2.49 6.01-2.49s4.4.88 6.01 2.48l16.15 16.16c1.61 1.6 2.49 3.74 2.49 6.01s-.88 4.41-2.49 6.01l-10.57 10.58c.97 2 1.82 4.06 2.56 6.16h14.95c4.68 0 8.5 3.81 8.5 8.5v22.85c0 4.68-3.82 8.5-8.5 8.5h-14.96c-.73 2.09-1.58 4.15-2.55 6.16l10.57 10.57c1.61 1.6 2.49 3.74 2.49 6.01s-.88 4.41-2.48 6.01l-16.16 16.16c-1.61 1.6-3.74 2.48-6.01 2.48s-4.41-.88-6.01-2.48l-10.58-10.58c-2 .97-4.06 1.82-6.16 2.56v14.95c0 4.69-3.81 8.5-8.5 8.5zm-19.35-12h15.85v-15.88c0-2.72 1.83-5.1 4.46-5.79 4.13-1.1 8.1-2.74 11.8-4.9 2.35-1.36 5.33-.98 7.26.95l11.23 11.23 11.21-11.21-11.24-11.23c-1.92-1.92-2.31-4.9-.94-7.26 2.15-3.7 3.8-7.67 4.89-11.79.7-2.63 3.08-4.46 5.8-4.46h15.88v-15.85h-15.88c-2.72 0-5.1-1.83-5.8-4.46-1.09-4.13-2.74-8.09-4.89-11.8-1.37-2.35-.98-5.33.94-7.25l11.24-11.24-11.21-11.2-11.23 11.23c-1.93 1.92-4.91 2.31-7.26.94-3.7-2.15-7.67-3.79-11.8-4.89-2.63-.69-4.46-3.07-4.46-5.79v-15.89h-15.85v15.89c0 2.72-1.83 5.1-4.46 5.79-4.13 1.1-8.1 2.74-11.79 4.89-2.36 1.37-5.34.98-7.26-.94l-11.23-11.24-11.21 11.21 11.23 11.23c1.93 1.93 2.32 4.91.95 7.26-2.15 3.71-3.8 7.67-4.89 11.8-.7 2.63-3.08 4.46-5.8 4.46h-15.88v15.85h15.88c2.72 0 5.1 1.83 5.8 4.46 1.09 4.12 2.74 8.09 4.89 11.79 1.37 2.35.98 5.33-.95 7.26l-11.23 11.23 11.21 11.21 11.23-11.24c1.93-1.92 4.91-2.31 7.26-.94 3.7 2.15 7.67 3.79 11.79 4.89 2.63.7 4.46 3.08 4.46 5.8z"/></g><g id="_278966944"><path d="m431.69 157.27c-21.51 0-39.01-17.51-39.01-39.02s17.5-39.01 39.01-39.01 39.01 17.5 39.01 39.01-17.5 39.02-39.01 39.02zm0-66.03c-14.9 0-27.01 12.12-27.01 27.01 0 14.9 12.11 27.02 27.01 27.02s27.02-12.12 27.02-27.02c-.01-14.89-12.12-27.01-27.02-27.01z"/></g></g></g></g></svg>