<?xml version="1.0" encoding="UTF-8"?>
<svg version="1.1" xmlns="http://www.w3.org/2000/svg" width="256" height="256">
<path d="M0 0 C6.70052691 5.88005422 10.28375233 11.82576372 11.30859375 20.66015625 C11.73164807 29.77505397 9.01960503 37.15010462 3 44 C2.67 44.99 2.34 45.98 2 47 C2.804375 47.2475 3.60875 47.495 4.4375 47.75 C5.283125 48.1625 6.12875 48.575 7 49 C7.66015625 51.078125 7.66015625 51.078125 8 53 C8.92941406 52.96519531 9.85882813 52.93039063 10.81640625 52.89453125 C23.74196689 52.61148978 23.74196689 52.61148978 29 56 C31.66321919 59.64192612 32.37742113 62.20685089 32.39440918 66.6860199 C32.40575897 67.82013306 32.41710876 68.95424622 32.42880249 70.12272644 C32.42587189 71.35767349 32.42294128 72.59262054 32.41992188 73.86499023 C32.42839142 75.17281464 32.43686096 76.48063904 32.44558716 77.82809448 C32.46777761 81.40872257 32.47073514 84.98912036 32.46883965 88.56980777 C32.46871984 91.56184903 32.47728806 94.55384169 32.48561716 97.54586941 C32.50484203 104.60588938 32.50773829 111.66579111 32.50097656 118.72583008 C32.4943349 126.00314317 32.51720678 133.27994952 32.55429029 140.55715984 C32.58500087 146.81126016 32.59634592 153.06519756 32.59245348 159.31937176 C32.59038749 163.05206864 32.59584144 166.78437107 32.62034607 170.51699638 C32.6467756 174.68020995 32.63287517 178.8423552 32.61523438 183.00561523 C32.62849762 184.23853806 32.64176086 185.47146088 32.65542603 186.741745 C32.56365634 196.0501434 32.56365634 196.0501434 29.58654785 199.74964905 C25.62794054 203.19372055 23.54844509 203.14007327 18.34716797 203.20532227 C17.66412598 203.21522186 16.98108398 203.22512146 16.27734375 203.23532104 C14.01566047 203.26695309 11.75395618 203.29170011 9.4921875 203.31640625 C7.92562305 203.33697431 6.35906417 203.35797075 4.79251099 203.37937927 C0.66616318 203.43461522 -3.46023483 203.48401775 -7.58666992 203.53222656 C-11.79610674 203.58243048 -16.0054705 203.63812233 -20.21484375 203.69335938 C-28.47650076 203.80095958 -36.73821882 203.90240039 -45 204 C-44.72736328 204.55985596 -44.45472656 205.11971191 -44.17382812 205.6965332 C-42.94315522 208.23229791 -41.72149561 210.77230267 -40.5 213.3125 C-39.85611328 214.63411133 -39.85611328 214.63411133 -39.19921875 215.98242188 C-38.79316406 216.82998047 -38.38710937 217.67753906 -37.96875 218.55078125 C-37.40317383 219.72120972 -37.40317383 219.72120972 -36.82617188 220.9152832 C-36 223 -36 223 -36 226 C-35.37432129 225.98952637 -34.74864258 225.97905273 -34.10400391 225.96826172 C-31.2777099 225.92676809 -28.45147989 225.90069527 -25.625 225.875 C-24.64015625 225.85824219 -23.6553125 225.84148437 -22.640625 225.82421875 C-21.69960937 225.81777344 -20.75859375 225.81132812 -19.7890625 225.8046875 C-18.48509521 225.78897705 -18.48509521 225.78897705 -17.15478516 225.77294922 C-15 226 -15 226 -13 228 C-13.53571429 231.53571429 -13.53571429 231.53571429 -15 233 C-16.55155932 233.10021562 -18.10767071 233.13075659 -19.66246033 233.13371277 C-21.17473457 233.14011024 -21.17473457 233.14011024 -22.71755981 233.14663696 C-23.83291107 233.14618378 -24.94826233 233.14573059 -26.09741211 233.14526367 C-27.84845497 233.15030159 -27.84845497 233.15030159 -29.63487244 233.15544128 C-32.84559897 233.16333677 -36.05628679 233.16662021 -39.26702189 233.16725707 C-41.94358496 233.16820461 -44.62014178 233.17188112 -47.29670244 233.17542917 C-53.60950731 233.18358115 -59.9222979 233.18601273 -66.23510742 233.18530273 C-72.75562242 233.18470177 -79.27605472 233.19525551 -85.79654878 233.2110464 C-91.38721608 233.22410499 -96.97785629 233.22948734 -102.56853873 233.22884732 C-105.91092014 233.22859183 -109.25322812 233.23147087 -112.59559441 233.24202538 C-116.32153151 233.25176812 -120.04725316 233.24896991 -123.77319336 233.24291992 C-124.88652039 233.24853943 -125.99984741 233.25415894 -127.14691162 233.25994873 C-128.6634156 233.253657 -128.6634156 233.253657 -130.21055603 233.24723816 C-131.09233489 233.24778293 -131.97411375 233.24832769 -132.88261318 233.24888897 C-135 233 -135 233 -137 231 C-136.46428571 227.46428571 -136.46428571 227.46428571 -135 226 C-133.43827255 225.91314397 -131.87270656 225.89297781 -130.30859375 225.90234375 C-129.36435547 225.90556641 -128.42011719 225.90878906 -127.44726562 225.91210938 C-126.45404297 225.92048828 -125.46082031 225.92886719 -124.4375 225.9375 C-123.44041016 225.94201172 -122.44332031 225.94652344 -121.41601562 225.95117188 C-118.94395151 225.96299993 -116.47200482 225.97948151 -114 226 C-113.62875 224.783125 -113.2575 223.56625 -112.875 222.3125 C-111.48851682 218.11765974 -109.75307456 214.16951859 -107.8828125 210.16796875 C-107.34285645 209.00934326 -106.80290039 207.85071777 -106.24658203 206.65698242 C-105.83520996 205.78017822 -105.42383789 204.90337402 -105 204 C-105.86364166 203.99857498 -106.72728333 203.99714996 -107.61709595 203.99568176 C-115.7682401 203.9778298 -123.91884275 203.93615147 -132.06972694 203.86790943 C-136.25993591 203.83366256 -140.44978119 203.80853311 -144.64013672 203.80444336 C-148.68644857 203.80015535 -152.73194034 203.7716522 -156.77799606 203.72656822 C-158.31925042 203.71360907 -159.86060299 203.70927997 -161.40190506 203.71384621 C-163.56651886 203.71876412 -165.72874657 203.69261461 -167.89306641 203.65942383 C-169.73839462 203.64943108 -169.73839462 203.64943108 -171.6210022 203.63923645 C-176.11239319 202.78955823 -177.76951281 201.18788318 -181 198 C-182.29090075 195.4181985 -182.13172735 193.56010309 -182.14044189 190.66801453 C-182.14615204 189.5365802 -182.15186218 188.40514587 -182.15774536 187.23942566 C-182.15886322 185.99212173 -182.15998108 184.74481781 -182.16113281 183.4597168 C-182.16609772 182.15072418 -182.17106262 180.84173157 -182.17617798 179.49307251 C-182.18931103 175.89586302 -182.19574882 172.2986722 -182.20018864 168.70144248 C-182.20311823 166.45441482 -182.20722284 164.20739229 -182.21169281 161.9603672 C-182.22537083 154.93109685 -182.23503569 147.90183818 -182.2388947 140.87255543 C-182.24337477 132.75630941 -182.2609189 124.64023186 -182.2898953 116.52403706 C-182.31151009 110.25220478 -182.32159889 103.98041989 -182.32293582 97.70855075 C-182.32398411 93.96195779 -182.32989659 90.21552312 -182.34775543 86.46896935 C-182.36729346 82.28869784 -182.36294797 78.10877889 -182.35644531 73.9284668 C-182.37026749 72.06661995 -182.37026749 72.06661995 -182.3843689 70.16716003 C-182.37879974 69.02726624 -182.37323059 67.88737244 -182.36749268 66.7129364 C-182.36895924 65.72460658 -182.3704258 64.73627676 -182.3719368 63.71799755 C-181.92859546 60.47819798 -180.92897013 58.62262631 -179 56 C-172.81198294 52.18246102 -166.55717646 52.59405081 -159.45532227 52.65942383 C-158.20584305 52.65898575 -156.95636383 52.65854767 -155.66902161 52.65809631 C-152.26023742 52.65982239 -148.85200518 52.67481816 -145.44331861 52.69581819 C-141.87457753 52.71463256 -138.3058283 52.71633916 -134.73704529 52.71989441 C-127.98692471 52.72920095 -121.23695072 52.75379574 -114.48689455 52.78394288 C-106.7988702 52.81753035 -99.11083868 52.83398379 -91.42275918 52.84902918 C-75.61508803 52.88034667 -59.80756295 52.93307989 -44 53 C-43.71382812 52.36578125 -43.42765625 51.7315625 -43.1328125 51.078125 C-41.77344458 48.58438799 -40.58919691 48.03567876 -38 47 C-38.5775 46.01 -39.155 45.02 -39.75 44 C-44.87213368 35.01348078 -48.83735895 27.2140753 -46.46875 16.625 C-43.8253746 8.12022699 -39.06795601 1.33802271 -31.16796875 -3.0078125 C-20.58283845 -7.75843743 -9.50786687 -6.61143061 0 0 Z M-32.3125 6.25 C-37.19144848 11.2424124 -39.63355694 16.26228082 -40.3125 23.1875 C-39.72036133 30.41159178 -36.46427003 35.45814755 -32 41 C-31.25 43.8125 -31.25 43.8125 -31 46 C-29.35 46 -27.7 46 -26 46 C-26.09611572 45.30849854 -26.19223145 44.61699707 -26.29125977 43.90454102 C-26.72073746 40.79128632 -27.14172867 37.67694281 -27.5625 34.5625 C-27.71396484 33.47388672 -27.86542969 32.38527344 -28.02148438 31.26367188 C-28.16005859 30.22919922 -28.29863281 29.19472656 -28.44140625 28.12890625 C-28.63778687 26.69140015 -28.63778687 26.69140015 -28.83813477 25.22485352 C-28.89155029 24.49065186 -28.94496582 23.7564502 -29 23 C-28.67 22.67 -28.34 22.34 -28 22 C-26.16290646 22.14613244 -24.32978014 22.3430188 -22.5 22.5625 C-16.81417526 23.10659806 -12.47278501 22.55062242 -7 21 C-7.09087891 22.07314453 -7.09087891 22.07314453 -7.18359375 23.16796875 C-7.82334946 30.77614045 -8.42287284 38.3868332 -9 46 C-7.68 46 -6.36 46 -5 46 C-4.79375 45.195625 -4.5875 44.39125 -4.375 43.5625 C-2.84304586 39.5933461 -0.78299776 36.50942714 1.66015625 33.05078125 C4.55786005 28.61552033 4.56579734 24.11642456 4 19 C2.19531985 12.37921558 -1.12067638 7.58271283 -7 4 C-15.81268003 0.07002107 -24.43052726 0.17305919 -32.3125 6.25 Z M-22 30 C-21.69177379 32.2922454 -21.37829126 34.58378455 -21.0625 36.875 C-20.88847656 38.15117188 -20.71445313 39.42734375 -20.53515625 40.7421875 C-20.18566773 43.87559454 -20.18566773 43.87559454 -19 46 C-18.01 45.67 -17.02 45.34 -16 45 C-15.34 40.05 -14.68 35.1 -14 30 C-16.64 30 -19.28 30 -22 30 Z M-38 55 C-37.67 56.65 -37.34 58.3 -37 60 C-24.46 60 -11.92 60 1 60 C1.33 58.35 1.66 56.7 2 55 C-0.54565412 52.45434588 -2.19175714 52.7527599 -5.6640625 52.72210693 C-6.43492187 52.7261554 -7.20578125 52.73020386 -8 52.734375 C-9.18722656 52.73150482 -9.18722656 52.73150482 -10.3984375 52.72857666 C-12.0729199 52.72721482 -13.74741285 52.73091118 -15.421875 52.73925781 C-17.98982381 52.7499576 -20.55707303 52.73936275 -23.125 52.7265625 C-24.75000155 52.7278841 -26.37500266 52.73044649 -28 52.734375 C-29.15628906 52.72830231 -29.15628906 52.72830231 -30.3359375 52.72210693 C-34.63129437 52.60355289 -34.63129437 52.60355289 -38 55 Z M-175 63 C-175.58790731 65.160794 -175.58790731 65.160794 -175.48101807 67.61271667 C-175.48652805 68.55726054 -175.49203804 69.50180441 -175.497715 70.47497082 C-175.48332256 71.51343308 -175.46893013 72.55189535 -175.45410156 73.62182617 C-175.4545837 74.73235257 -175.45506584 75.84287897 -175.45556259 76.98705769 C-175.45257196 80.58935169 -175.42208837 84.19082245 -175.390625 87.79296875 C-175.38474544 90.01387127 -175.38066376 92.23477931 -175.37841797 94.45568848 C-175.35742818 102.69971006 -175.30158349 110.94361307 -175.25 119.1875 C-175.1675 137.605625 -175.085 156.02375 -175 175 C-109 175 -43 175 25 175 C25.0825 156.581875 25.165 138.16375 25.25 119.1875 C25.28641602 113.36762451 25.32283203 107.54774902 25.36035156 101.55151367 C25.37372763 96.34373185 25.37372763 96.34373185 25.3817749 91.13594055 C25.38792537 88.81270792 25.4020104 86.48948821 25.42230225 84.16633606 C25.45147545 80.65127307 25.45562769 77.13699163 25.45410156 73.62182617 C25.47569021 72.06413277 25.47569021 72.06413277 25.497715 70.47497082 C25.49220501 69.53042695 25.48669502 68.58588308 25.48101807 67.61271667 C25.48654882 66.37797497 25.48654882 66.37797497 25.49219131 65.11828899 C25.16639533 62.83526035 25.16639533 62.83526035 23.14962387 61.24100208 C18.8562916 58.76241299 13.77408443 59.26346523 9 60 C6.35135301 62.20332864 6.35135301 62.20332864 5 65 C4.01 65.66 3.02 66.32 2 67 C1.16585217 69.21333894 1.16585217 69.21333894 0.625 71.75 C-1.15469452 78.10736239 -3.37293759 81.48438707 -9.25 84.875 C-15.83332762 86.84999828 -21.85145445 86.77258327 -28.21484375 84.02734375 C-32.26122026 81.69868506 -34.40116587 78.8673005 -35.79296875 74.52734375 C-36.25991668 72.77564404 -36.72352504 71.02305029 -37.18359375 69.26953125 C-38.3273057 66.09012148 -40.20749704 64.790066 -43 63 C-43.99 61.515 -43.99 61.515 -45 60 C-47.2892686 59.54426036 -47.2892686 59.54426036 -49.99703979 59.61904907 C-51.05419189 59.6105896 -52.11134399 59.60213013 -53.20053101 59.59341431 C-54.36524933 59.599487 -55.52996765 59.60555969 -56.72998047 59.61181641 C-58.56420563 59.60393097 -58.56420563 59.60393097 -60.43548584 59.59588623 C-63.79522716 59.58492103 -67.15441649 59.58752506 -70.51412725 59.59702349 C-74.02766519 59.60460672 -77.54117917 59.59757789 -81.05471802 59.59286499 C-86.95790858 59.58740207 -92.86098666 59.59461151 -98.76416016 59.60888672 C-105.58861348 59.62519925 -112.41279774 59.61993721 -119.23724449 59.6034075 C-125.09379786 59.58978978 -130.95027025 59.5878748 -136.80683434 59.59572351 C-140.30577574 59.60040044 -143.80459074 59.60102476 -147.30352402 59.59111404 C-151.20619899 59.58083279 -155.10857327 59.59508661 -159.01123047 59.61181641 C-160.75223526 59.60270737 -160.75223526 59.60270737 -162.52841187 59.59341431 C-163.59120361 59.60187378 -164.65399536 59.61033325 -165.74899292 59.61904907 C-166.67187544 59.62018015 -167.59475796 59.62131123 -168.54560661 59.62247658 C-171.5420098 60.08336944 -172.89796253 60.82063145 -175 63 Z M-31 67 C-29.96001413 73.23991521 -29.55897645 74.18318251 -25 78 C-21.19375906 80.30419131 -18.50075122 80.20209679 -14.1875 79.61328125 C-9.62564996 78.33433401 -7.50408293 74.75612439 -5 71 C-5 69.68 -5 68.36 -5 67 C-13.58 67 -22.16 67 -31 67 Z M-175 182 C-175 185.96 -175 189.92 -175 194 C-172.50415053 196.49584947 -171.02684121 196.24157566 -167.62123108 196.26748681 C-166.48807716 196.26079465 -166.48807716 196.26079465 -165.33203125 196.25396729 C-164.13102028 196.25864726 -164.13102028 196.25864726 -162.90574646 196.26342177 C-160.20792397 196.27143443 -157.51032438 196.26506549 -154.8125 196.25878906 C-152.88443876 196.26149748 -150.95637855 196.26505756 -149.02832031 196.26940918 C-143.78051229 196.27855326 -138.5327826 196.27498063 -133.28497314 196.26865101 C-127.80326114 196.26360144 -122.32155601 196.26827955 -116.83984375 196.27142334 C-107.6328002 196.27506604 -98.42578869 196.27025594 -89.21875 196.26074219 C-78.5612074 196.24985706 -67.90374131 196.25338243 -57.24620056 196.264395 C-48.1098922 196.27345924 -38.97360693 196.27475739 -29.83729553 196.26951766 C-24.37442775 196.2663932 -18.91159597 196.26600163 -13.44873047 196.27259064 C-8.31388756 196.27835094 -3.17914369 196.27439142 1.95568848 196.26280212 C3.84476558 196.26014847 5.73385095 196.26093257 7.6229248 196.26532745 C10.19274102 196.27075666 12.76223576 196.26398099 15.33203125 196.25396729 C16.08746719 196.25842873 16.84290314 196.26289017 17.62123108 196.26748681 C21.76549587 196.36871257 21.76549587 196.36871257 25 194 C25 190.04 25 186.08 25 182 C-41 182 -107 182 -175 182 Z M-96 203 C-96.83144531 204.66289062 -96.83144531 204.66289062 -97.6796875 206.359375 C-104 219 -104 219 -105.12158203 221.05566406 C-106.20585774 223.10006358 -106.20585774 223.10006358 -106 226 C-85.54 226 -65.08 226 -44 226 C-44.73433714 222.32831432 -45.27772778 220.05206386 -46.8125 216.828125 C-47.16570312 216.08175781 -47.51890625 215.33539063 -47.8828125 214.56640625 C-48.25148437 213.80199219 -48.62015625 213.03757813 -49 212.25 C-49.36867187 211.47011719 -49.73734375 210.69023437 -50.1171875 209.88671875 C-51.68648715 206.19507926 -51.68648715 206.19507926 -54 203 C-57.10251201 202.91125865 -60.1826812 202.88481545 -63.28515625 202.90234375 C-64.21597519 202.9037587 -65.14679413 202.90517365 -66.1058197 202.90663147 C-69.09141191 202.91224828 -72.07693029 202.9248036 -75.0625 202.9375 C-77.08137913 202.94251284 -79.10025943 202.94707612 -81.11914062 202.95117188 C-86.07945572 202.96222317 -91.03971532 202.97949905 -96 203 Z " fill="#000000" transform="translate(203,21)"/>
<path d="M0 0 C1.59134766 -0.02126953 1.59134766 -0.02126953 3.21484375 -0.04296875 C6.0625 0.1875 6.0625 0.1875 9.0625 2.1875 C9.75 4.8125 9.75 4.8125 10.0625 7.1875 C10.619375 7.043125 11.17625 6.89875 11.75 6.75 C12.8946875 6.4715625 12.8946875 6.4715625 14.0625 6.1875 C15.22072266 5.79498047 15.22072266 5.79498047 16.40234375 5.39453125 C19.0625 5.1875 19.0625 5.1875 21.5546875 6.8828125 C22.34101562 7.68460938 23.12734375 8.48640625 23.9375 9.3125 C25.14019531 10.49199219 25.14019531 10.49199219 26.3671875 11.6953125 C28.0625 14.1875 28.0625 14.1875 27.85546875 16.84765625 C27.59378906 17.61980469 27.33210938 18.39195312 27.0625 19.1875 C26.876875 19.950625 26.69125 20.71375 26.5 21.5 C26.355625 22.056875 26.21125 22.61375 26.0625 23.1875 C27.031875 23.496875 28.00125 23.80625 29 24.125 C32.0625 25.1875 32.0625 25.1875 33.0625 26.1875 C33.18807162 28.49743382 33.23825729 30.81168536 33.25 33.125 C33.26417969 34.39214844 33.27835937 35.65929687 33.29296875 36.96484375 C33.0625 40.1875 33.0625 40.1875 31.0625 42.1875 C28.4375 42.8125 28.4375 42.8125 26.0625 43.1875 C26.413125 43.909375 26.76375 44.63125 27.125 45.375 C28.21307578 48.63922733 28.0568813 49.93004403 27.0625 53.1875 C25.390625 55.4609375 25.390625 55.4609375 23.3125 57.5625 C22.29929687 58.62597656 22.29929687 58.62597656 21.265625 59.7109375 C19.0625 61.1875 19.0625 61.1875 16.44140625 60.94921875 C15.65636719 60.69785156 14.87132812 60.44648438 14.0625 60.1875 C12.9178125 59.9090625 12.9178125 59.9090625 11.75 59.625 C11.193125 59.480625 10.63625 59.33625 10.0625 59.1875 C9.629375 60.6415625 9.629375 60.6415625 9.1875 62.125 C8.0625 65.1875 8.0625 65.1875 6.0625 66.1875 C4.0871012 66.33529962 2.10571076 66.40868966 0.125 66.4375 C-0.93589844 66.46328125 -1.99679688 66.4890625 -3.08984375 66.515625 C-5.9375 66.1875 -5.9375 66.1875 -7.8046875 64.83984375 C-9.35747204 62.5749201 -9.15491011 60.86889133 -8.9375 58.1875 C-9.845 58.703125 -10.7525 59.21875 -11.6875 59.75 C-14.9375 61.1875 -14.9375 61.1875 -16.87890625 61.01953125 C-19.57540636 59.92967447 -21.09831177 58.38861965 -23.125 56.3125 C-23.81980469 55.61382812 -24.51460937 54.91515625 -25.23046875 54.1953125 C-26.9375 52.1875 -26.9375 52.1875 -27.9375 49.1875 C-26.98656703 47.49235863 -25.98642238 45.82381892 -24.9375 44.1875 C-24.9375 43.5275 -24.9375 42.8675 -24.9375 42.1875 C-27.2475 41.8575 -29.5575 41.5275 -31.9375 41.1875 C-31.96434679 38.54159986 -31.98426357 35.89596904 -32 33.25 C-32.00837891 32.49525391 -32.01675781 31.74050781 -32.02539062 30.96289062 C-32.03402441 29.03755687 -31.98974333 27.11214419 -31.9375 25.1875 C-30.9375 24.1875 -30.9375 24.1875 -27.875 24.125 C-26.4209375 24.1559375 -26.4209375 24.1559375 -24.9375 24.1875 C-25.43048391 21.88690844 -25.90062104 20.24466239 -27.1875 18.25 C-27.9375 16.1875 -27.9375 16.1875 -27 13.8125 C-24.40826586 10.51392928 -21.61122612 7.28902935 -17.9375 5.1875 C-14.75326133 5.60599994 -11.89386608 6.9556808 -8.9375 8.1875 C-8.81375 7.053125 -8.69 5.91875 -8.5625 4.75 C-8.253125 2.9865625 -8.253125 2.9865625 -7.9375 1.1875 C-5.2264923 -0.16800385 -3.02410831 0.01832793 0 0 Z M-1.9375 7.1875 C-2.164375 8.13625 -2.39125 9.085 -2.625 10.0625 C-3.9375 13.1875 -3.9375 13.1875 -6.1875 14.5625 C-9.20736942 15.24883396 -11.84883933 15.32178959 -14.9375 15.1875 C-15.9275 15.1875 -16.9175 15.1875 -17.9375 15.1875 C-18.08746361 18.0469721 -18.08746361 18.0469721 -17.33203125 20.11328125 C-16.82427934 22.7827492 -17.41200908 23.97156447 -18.625 26.375 C-19.12580078 27.41720703 -19.12580078 27.41720703 -19.63671875 28.48046875 C-21.24585927 30.59216367 -22.35951159 30.82386795 -24.9375 31.1875 C-24.9375 32.5075 -24.9375 33.8275 -24.9375 35.1875 C-24.174375 35.373125 -23.41125 35.55875 -22.625 35.75 C-18.79539155 37.79839522 -18.19750069 40.12749777 -16.9375 44.1875 C-17.25 46.4375 -17.25 46.4375 -17.9375 48.1875 C-17.9375 49.1775 -17.9375 50.1675 -17.9375 51.1875 C-16.02038049 51.1875 -14.10264208 51.14955191 -12.1875 51.0625 C-8.42422939 51.20724118 -5.51407642 52.04299555 -1.9375 53.1875 C-1.9375 55.1675 -1.9375 57.1475 -1.9375 59.1875 C-0.6175 59.1875 0.7025 59.1875 2.0625 59.1875 C2.083125 58.424375 2.10375 57.66125 2.125 56.875 C3.0625 54.1875 3.0625 54.1875 6.3125 52.375 C9.62122351 51.32723755 11.67197963 50.91259294 15.0625 51.1875 C16.3825 51.1875 17.7025 51.1875 19.0625 51.1875 C18.835625 50.011875 18.60875 48.83625 18.375 47.625 C17.79534532 42.90375465 18.57752836 40.24628701 21.0625 36.1875 C23.75 35.25 23.75 35.25 26.0625 35.1875 C26.0625 33.8675 26.0625 32.5475 26.0625 31.1875 C25.299375 31.166875 24.53625 31.14625 23.75 31.125 C21.0625 30.1875 21.0625 30.1875 19.25 26.9375 C18.20223755 23.62877649 17.78759294 21.57802037 18.0625 18.1875 C18.0625 16.8675 18.0625 15.5475 18.0625 14.1875 C16.886875 14.414375 15.71125 14.64125 14.5 14.875 C9.77875465 15.45465468 7.12128701 14.67247164 3.0625 12.1875 C2.125 9.5 2.125 9.5 2.0625 7.1875 C0.7425 7.1875 -0.5775 7.1875 -1.9375 7.1875 Z " fill="#000000" transform="translate(63.9375,120.8125)"/>
<path d="M0 0 C1.2065625 0.0309375 1.2065625 0.0309375 2.4375 0.0625 C3.86017862 2.90785725 3.65721869 5.42468552 3.75390625 8.6015625 C3.79580078 9.90351562 3.83769531 11.20546875 3.88085938 12.546875 C3.92067299 13.92708045 3.96038522 15.30728883 4 16.6875 C4.04319407 18.07553415 4.08680865 19.46355528 4.13085938 20.8515625 C4.23722 24.25510256 4.33924714 27.65871778 4.4375 31.0625 C5.38939209 31.12018555 6.34128418 31.17787109 7.32202148 31.23730469 C8.57571533 31.31883789 9.82940918 31.40037109 11.12109375 31.484375 C12.98205688 31.60184082 12.98205688 31.60184082 14.88061523 31.72167969 C20.91909604 32.30028626 25.52140121 33.56294442 30.3125 37.3125 C34.37809789 42.57386197 36.2552451 47.40371846 35.4375 54.0625 C33.44410536 59.95258698 30.48640735 63.5175225 25.4375 67.0625 C21.77889625 68.28203458 18.3993701 68.2259189 14.58886719 68.23950195 C13.7901268 68.24607315 12.99138641 68.25264435 12.16844177 68.25941467 C9.52375188 68.27913283 6.87911875 68.29080745 4.234375 68.30078125 C3.3301606 68.30485678 2.4259462 68.3089323 1.49433136 68.31313133 C-3.29235098 68.33398655 -8.07900471 68.34829019 -12.86572266 68.35766602 C-17.80316815 68.36872447 -22.74016223 68.40311937 -27.67744827 68.44283772 C-31.47966332 68.46901736 -35.28177106 68.47735909 -39.0840683 68.48094749 C-40.90368445 68.48581059 -42.72329589 68.49741671 -44.54282379 68.51598549 C-47.09433982 68.54040419 -49.6446913 68.53940712 -52.19628906 68.5324707 C-52.94252029 68.54528076 -53.68875153 68.55809082 -54.45759583 68.57128906 C-59.90302434 68.51755295 -63.05000159 67.12571838 -67.5625 64.0625 C-72.95123262 58.52812596 -73.84232029 52.8570337 -73.8125 45.3125 C-73.81765625 43.99765625 -73.8228125 42.6828125 -73.828125 41.328125 C-73.5625 38.0625 -73.5625 38.0625 -71.5625 36.0625 C-68.9375 36.4375 -68.9375 36.4375 -66.5625 37.0625 C-66.50642578 38.58230469 -66.50642578 38.58230469 -66.44921875 40.1328125 C-66.38351612 41.48440939 -66.31707029 42.83597029 -66.25 44.1875 C-66.22744141 44.85265625 -66.20488281 45.5178125 -66.18164062 46.203125 C-65.93271503 50.81956328 -65.08273449 54.17545642 -62.5625 58.0625 C-58.97634338 60.58682527 -55.15394061 60.35174372 -50.93579102 60.3371582 C-50.1727063 60.34226913 -49.40962158 60.34738007 -48.62341309 60.35264587 C-46.10433072 60.36653052 -43.5855223 60.365586 -41.06640625 60.36328125 C-39.31290078 60.36716877 -37.55939625 60.37150355 -35.80589294 60.37626648 C-32.13155056 60.38372623 -28.45730428 60.38343916 -24.78295898 60.37817383 C-20.07744345 60.37237911 -15.37232153 60.38931133 -10.66687107 60.4125185 C-7.04572759 60.42725962 -3.42467883 60.42812704 0.19648933 60.42500877 C1.93121177 60.42552178 3.66593954 60.43075571 5.40063286 60.44082069 C7.8278133 60.45317545 10.25422804 60.44639964 12.68139648 60.43481445 C13.39584427 60.44245819 14.11029205 60.45010193 14.84638977 60.45797729 C19.2103296 60.41200322 21.96699071 59.74032897 25.4375 57.0625 C27.15207905 54.17888977 27.44490093 52.41774462 27.375 49.0625 C26.18230958 45.24589066 24.51755027 43.56951766 21.4375 41.0625 C17.89129493 39.79542897 14.29551922 39.92489198 10.5625 39.8125 C2.86185393 39.32369728 2.86185393 39.32369728 -0.375 36.625 C-3.82196398 32.58712791 -3.69067098 30.39617611 -3.6953125 25.12109375 C-3.69626923 24.43821793 -3.69722595 23.7553421 -3.69821167 23.05177307 C-3.69889223 21.60848905 -3.6970466 20.16520197 -3.69287109 18.72192383 C-3.68751282 16.50530172 -3.69282443 14.28888148 -3.69921875 12.07226562 C-3.69855811 10.67187455 -3.69727723 9.2714836 -3.6953125 7.87109375 C-3.69418457 6.59032959 -3.69305664 5.30956543 -3.69189453 3.98999023 C-3.51933169 0.08583736 -3.51933169 0.08583736 0 0 Z " fill="#000000" transform="translate(185.5625,111.9375)"/>
<path d="M0 0 C1.93166016 0.01740234 1.93166016 0.01740234 3.90234375 0.03515625 C5.19269531 0.04417969 6.48304687 0.05320312 7.8125 0.0625 C8.81152344 0.07410156 9.81054688 0.08570312 10.83984375 0.09765625 C11.33484375 3.06765625 11.33484375 3.06765625 11.83984375 6.09765625 C12.82984375 5.43765625 13.81984375 4.77765625 14.83984375 4.09765625 C17.08984375 3.53515625 17.08984375 3.53515625 19.83984375 4.09765625 C22.65388245 6.09045509 24.90300435 8.2382395 26.83984375 11.09765625 C26.83984375 14.41575506 26.29987448 16.1775948 24.83984375 19.09765625 C25.64421875 19.24203125 26.44859375 19.38640625 27.27734375 19.53515625 C29.83984375 20.09765625 29.83984375 20.09765625 30.83984375 21.09765625 C30.96499303 23.07385072 31.01557135 25.05503798 31.02734375 27.03515625 C31.04152344 28.11667969 31.05570313 29.19820312 31.0703125 30.3125 C30.83984375 33.09765625 30.83984375 33.09765625 28.83984375 35.09765625 C27.51984375 35.09765625 26.19984375 35.09765625 24.83984375 35.09765625 C25.19046875 35.65453125 25.54109375 36.21140625 25.90234375 36.78515625 C27.14060949 39.83954507 27.01625045 41.00958865 25.83984375 44.09765625 C23.3937105 47.3720688 21.25221001 49.83489043 17.15234375 50.59765625 C14.83984375 50.09765625 14.83984375 50.09765625 11.83984375 48.09765625 C11.69546875 48.90203125 11.55109375 49.70640625 11.40234375 50.53515625 C10.83984375 53.09765625 10.83984375 53.09765625 9.83984375 54.09765625 C7.67503578 54.19658565 5.5069059 54.22736725 3.33984375 54.22265625 C2.15390625 54.22523438 0.96796875 54.2278125 -0.25390625 54.23046875 C-3.16015625 54.09765625 -3.16015625 54.09765625 -4.16015625 53.09765625 C-4.20079457 51.4314851 -4.20287725 49.7637753 -4.16015625 48.09765625 C-5.15015625 48.75765625 -6.14015625 49.41765625 -7.16015625 50.09765625 C-9.578125 50.47265625 -9.578125 50.47265625 -12.16015625 50.09765625 C-14.3984375 48.34765625 -14.3984375 48.34765625 -16.47265625 46.09765625 C-17.17003906 45.35515625 -17.86742188 44.61265625 -18.5859375 43.84765625 C-19.10542969 43.27015625 -19.62492187 42.69265625 -20.16015625 42.09765625 C-18.28515625 37.34765625 -18.28515625 37.34765625 -17.16015625 35.09765625 C-17.96453125 35.11828125 -18.76890625 35.13890625 -19.59765625 35.16015625 C-22.16015625 35.09765625 -22.16015625 35.09765625 -23.16015625 34.09765625 C-23.25924927 31.7660557 -23.28986129 29.43135683 -23.28515625 27.09765625 C-23.28773437 25.81890625 -23.2903125 24.54015625 -23.29296875 23.22265625 C-23.16015625 20.09765625 -23.16015625 20.09765625 -22.16015625 19.09765625 C-20.4939851 19.05701793 -18.8262753 19.05493525 -17.16015625 19.09765625 C-17.69640625 18.37578125 -18.23265625 17.65390625 -18.78515625 16.91015625 C-20.16015625 14.09765625 -20.16015625 14.09765625 -19.66015625 11.59765625 C-17.79403498 8.48745413 -16.00731702 6.36244323 -13.16015625 4.09765625 C-9.01791319 3.51774222 -7.67840136 3.75215951 -4.16015625 6.09765625 C-4.18078125 5.29328125 -4.20140625 4.48890625 -4.22265625 3.66015625 C-4.13011871 -0.13388273 -3.86403378 0.11940772 0 0 Z M2.83984375 7.09765625 C2.61296875 7.71640625 2.38609375 8.33515625 2.15234375 8.97265625 C0.38485662 11.83430208 -0.93029937 12.23636108 -4.16015625 13.09765625 C-6.49223645 13.1741179 -8.82861503 13.18908924 -11.16015625 13.09765625 C-10.81984375 14.39703125 -10.81984375 14.39703125 -10.47265625 15.72265625 C-10.09210343 19.83262667 -10.93031907 21.67326344 -13.16015625 25.09765625 C-14.15015625 25.42765625 -15.14015625 25.75765625 -16.16015625 26.09765625 C-16.16015625 26.75765625 -16.16015625 27.41765625 -16.16015625 28.09765625 C-15.17015625 28.42765625 -14.18015625 28.75765625 -13.16015625 29.09765625 C-10.93031907 32.52204906 -10.09210343 34.36268583 -10.47265625 38.47265625 C-10.69953125 39.33890625 -10.92640625 40.20515625 -11.16015625 41.09765625 C-9.61328125 41.00484375 -9.61328125 41.00484375 -8.03515625 40.91015625 C-3.87862958 41.11127851 -1.63707723 41.86249276 1.83984375 44.09765625 C2.16984375 45.08765625 2.49984375 46.07765625 2.83984375 47.09765625 C3.49984375 47.09765625 4.15984375 47.09765625 4.83984375 47.09765625 C4.83984375 45.77765625 4.83984375 44.45765625 4.83984375 43.09765625 C9.63121963 41.46858845 12.89616921 40.89188197 17.83984375 42.09765625 C17.79859375 40.88078125 17.75734375 39.66390625 17.71484375 38.41015625 C17.72734555 34.88465001 17.96976249 32.18329033 19.83984375 29.09765625 C21.96484375 28.28515625 21.96484375 28.28515625 23.83984375 28.09765625 C23.83984375 27.43765625 23.83984375 26.77765625 23.83984375 26.09765625 C22.18984375 25.76765625 20.53984375 25.43765625 18.83984375 25.09765625 C18.77925781 24.32679687 18.71867187 23.5559375 18.65625 22.76171875 C18.57246094 21.75882813 18.48867187 20.7559375 18.40234375 19.72265625 C18.32113281 18.72492188 18.23992187 17.7271875 18.15625 16.69921875 C17.99018749 14.11838012 17.99018749 14.11838012 16.83984375 12.09765625 C16.15921875 12.30390625 15.47859375 12.51015625 14.77734375 12.72265625 C11.05151044 13.19829454 8.36991821 12.27434774 4.83984375 11.09765625 C4.83984375 9.77765625 4.83984375 8.45765625 4.83984375 7.09765625 C4.17984375 7.09765625 3.51984375 7.09765625 2.83984375 7.09765625 Z " fill="#000000" transform="translate(112.16015625,87.90234375)"/>
<path d="M0 0 C4.88753406 2.31047065 7.48149888 5.24283121 10 10 C11.65781761 15.85762224 10.78986678 20.6793255 8 26 C5.15953419 29.1879696 1.94160548 31.80647396 -2.390625 32.23828125 C-8.48116678 32.39636908 -12.2740193 32.26490941 -17 28 C-21.08142118 23.4773441 -22.32364536 20.20853647 -22.2109375 14.0546875 C-21.72144252 9.28664383 -19.46819043 6.20887323 -15.9375 3.1875 C-10.74157293 -0.68180739 -6.36628972 -0.63933037 0 0 Z M-14 11 C-15.42662219 13.85324437 -15.31033868 15.83454549 -15 19 C-13.20006226 21.69990662 -11.916227 23.5418865 -9 25 C-4.70677141 25.48602588 -2.67917361 25.46241608 0.9375 23 C3.23092162 19.66411401 3.75815509 17.90015906 3.48046875 13.9375 C2.61102978 10.4314697 0.91963173 8.98783437 -2 7 C-7.46739901 6.12131087 -10.11435798 7.11435798 -14 11 Z " fill="#000000" transform="translate(70,138)"/>
<path d="M0 0 C4.96480144 3.72360108 4.96480144 3.72360108 5.8671875 6.7734375 C6.2955434 10.57671871 6.5528328 12.99098456 5 16.5625 C0.97972973 21.44425676 0.97972973 21.44425676 -2.75 22.6875 C-7.00160217 23.08859454 -9.2506973 22.95128256 -13.0625 20.9375 C-17.09417692 17.56214258 -17.61701149 16.06171462 -18.125 10.8125 C-18.01235068 6.49964034 -16.57617939 3.98470929 -13.75 0.6875 C-9.63409796 -2.43490844 -4.5240085 -2.15918587 0 0 Z M-9.625 6.75 C-11.27677204 9.59471851 -10.50730701 11.58942587 -9.75 14.6875 C-6.78 15.1825 -6.78 15.1825 -3.75 15.6875 C-2.01352052 14.01261472 -2.01352052 14.01261472 -0.75 11.6875 C-1.08609251 8.93058557 -1.08609251 8.93058557 -2.75 6.6875 C-5.60048617 5.51806978 -6.91016824 5.21159534 -9.625 6.75 Z " fill="#000000" transform="translate(121.75,104.3125)"/>
<path d="M0 0 C4.55555556 1.55555556 4.55555556 1.55555556 6 3 C6.04063832 4.66617115 6.042721 6.33388095 6 8 C3.75 8.6875 3.75 8.6875 1 9 C-1.3125 7.5625 -1.3125 7.5625 -3 6 C-2.625 3.5625 -2.625 3.5625 -2 1 C-1.34 0.67 -0.68 0.34 0 0 Z " fill="#000000" transform="translate(151,21)"/>
<path d="M0 0 C2.625 0.1875 2.625 0.1875 5.625 2.1875 C5.875 4.75 5.875 4.75 5.625 7.1875 C4.625 8.1875 4.625 8.1875 2.25 8.375 C-0.375 8.1875 -0.375 8.1875 -3.375 6.1875 C-3.625 3.625 -3.625 3.625 -3.375 1.1875 C-2.375 0.1875 -2.375 0.1875 0 0 Z " fill="#000000" transform="translate(216.375,58.8125)"/>
<path d="M0 0 C1 1 1 1 1.25 3.4375 C1.1675 4.283125 1.085 5.12875 1 6 C-2.22791555 8.1519437 -3.28400809 8.20086443 -7 8 C-7.6875 5.6875 -7.6875 5.6875 -8 3 C-5.92409036 -0.34452109 -3.73927021 -0.39360739 0 0 Z " fill="#000000" transform="translate(156,59)"/>
<path d="M0 0 C2.3125 0.8125 2.3125 0.8125 4 2 C3.6875 4.375 3.6875 4.375 3 7 C0 9 0 9 -2.1875 8.625 C-2.785625 8.41875 -3.38375 8.2125 -4 8 C-4.33 6.35 -4.66 4.7 -5 3 C-2.75 1.375 -2.75 1.375 0 0 Z " fill="#000000" transform="translate(218,21)"/>
<path d="M0 0 C3.5 0.125 3.5 0.125 4.5 1.125 C4.625 3.625 4.625 3.625 4.5 6.125 C3.5 7.125 3.5 7.125 0.5625 7.25 C-2.5 7.125 -2.5 7.125 -4.5 6.125 C-4.542721 4.45888095 -4.54063832 2.79117115 -4.5 1.125 C-3.5 0.125 -3.5 0.125 0 0 Z " fill="#000000" transform="translate(147.5,40.875)"/>
<path d="M0 0 C2.5 0.3125 2.5 0.3125 5 1 C6.35439668 3.70879335 6.06501451 6.00933268 6 9 C4.02 9 2.04 9 0 9 C-1.3950848 6.70221327 -2.07438619 5.5207033 -1.6875 2.8125 C-1 1 -1 1 0 0 Z " fill="#000000" transform="translate(164,7)"/>
<path d="M0 0 C1.67542976 0.28604898 3.34385343 0.61781233 5 1 C5.6875 3.8125 5.6875 3.8125 6 7 C4.8125 8.9375 4.8125 8.9375 3 10 C0.8125 9.6875 0.8125 9.6875 -1 9 C-1.09765625 2.84765625 -1.09765625 2.84765625 -1 1 C-0.67 0.67 -0.34 0.34 0 0 Z " fill="#000000" transform="translate(183,2)"/>
<path d="M0 0 C3.5 0.125 3.5 0.125 4.5 1.125 C4.54063832 2.79117115 4.542721 4.45888095 4.5 6.125 C-2.25 7.25 -2.25 7.25 -4.5 6.125 C-4.542721 4.45888095 -4.54063832 2.79117115 -4.5 1.125 C-3.5 0.125 -3.5 0.125 0 0 Z " fill="#000000" transform="translate(222.5,40.875)"/>
<path d="M0 0 C0.598125 0.226875 1.19625 0.45375 1.8125 0.6875 C2.4375 3 2.4375 3 2.8125 5.6875 C1.8225 7.1725 1.8225 7.1725 0.8125 8.6875 C-1.75 8.9375 -1.75 8.9375 -4.1875 8.6875 C-5.1875 7.6875 -5.1875 7.6875 -5.4375 5.3125 C-5.1875 2.6875 -5.1875 2.6875 -3.9375 0.8125 C-2.1875 -0.3125 -2.1875 -0.3125 0 0 Z " fill="#000000" transform="translate(205.1875,7.3125)"/>
</svg>
