<?xml version="1.0" standalone="no"?>
<!DOCTYPE svg PUBLIC "-//W3C//DTD SVG 20010904//EN"
 "http://www.w3.org/TR/2001/REC-SVG-20010904/DTD/svg10.dtd">
<svg version="1.0" xmlns="http://www.w3.org/2000/svg"
 width="256.000000pt" height="256.000000pt" viewBox="0 0 256.000000 256.000000"
 preserveAspectRatio="xMidYMid meet">

<g transform="translate(0.000000,256.000000) scale(0.100000,-0.100000)"
fill="#000000" stroke="none">
<path d="M779 2464 c-7 -9 -15 -42 -17 -74 -4 -50 -8 -59 -29 -69 -23 -10 -30
-8 -69 29 -24 22 -53 40 -65 40 -26 0 -137 -105 -145 -137 -6 -23 -8 -23 -145
-23 -152 0 -197 -11 -221 -52 -10 -19 -13 -178 -13 -836 l0 -814 33 -29 32
-29 440 0 440 0 0 -78 0 -78 -62 -30 c-94 -44 -118 -68 -118 -115 0 -29 7 -47
25 -64 l24 -25 391 0 391 0 24 25 c18 17 25 35 25 64 0 47 -24 71 -118 115
l-62 30 0 78 0 78 441 0 441 0 29 29 29 29 0 817 c0 566 -3 823 -11 837 -25
47 -43 48 -614 48 l-535 0 0 22 c0 31 -111 138 -143 138 -14 0 -43 -17 -68
-38 -39 -34 -47 -38 -71 -30 -26 9 -28 14 -28 62 0 30 -6 61 -16 74 -14 20
-23 22 -108 22 -73 0 -96 -3 -107 -16z m171 -96 c0 -64 4 -70 57 -97 59 -29
77 -27 126 19 l44 39 41 -42 42 -43 -29 -28 c-50 -48 -56 -76 -30 -135 23 -55
30 -59 109 -63 32 -2 45 -7 45 -18 0 -12 -21 -16 -117 -18 l-116 -3 -7 30
c-11 50 -61 118 -108 145 -94 55 -210 41 -286 -35 -86 -86 -93 -214 -17 -314
22 -28 25 -39 16 -54 -5 -11 -10 -35 -10 -54 0 -29 -5 -37 -29 -47 -16 -6 -41
-25 -57 -41 l-28 -29 -43 42 -42 41 39 44 c45 48 47 61 21 118 -24 54 -38 63
-101 67 l-55 3 0 60 0 60 65 5 65 5 22 45 c31 64 29 84 -17 133 l-39 44 42 41
42 41 42 -40 c48 -44 63 -47 126 -20 50 22 57 33 57 102 l0 49 65 0 65 0 0
-52z m-439 -214 c14 -12 15 -21 8 -44 -9 -25 -15 -28 -70 -32 -85 -6 -94 -18
-94 -124 0 -78 2 -87 24 -105 16 -13 39 -19 75 -19 47 0 52 -2 62 -28 10 -25
7 -32 -28 -71 -53 -61 -51 -82 20 -153 73 -72 95 -74 157 -17 l45 42 0 -292
c0 -182 4 -300 10 -312 10 -18 26 -19 480 -19 257 0 475 3 484 6 12 4 16 20
16 55 l0 49 43 0 c23 1 66 9 95 19 l52 18 82 -89 c45 -50 93 -94 106 -99 37
-14 90 7 113 45 22 36 24 62 6 92 -9 16 -130 121 -195 169 -1 1 5 19 14 41 21
51 15 154 -14 209 -48 94 -144 155 -244 155 l-58 0 0 48 c0 41 -9 61 -73 162
l-73 115 -67 3 c-63 3 -67 4 -67 26 0 45 -31 69 -97 74 -54 4 -60 7 -70 33 -9
23 -8 31 6 43 16 14 84 16 570 16 362 0 559 -4 572 -10 18 -10 19 -29 19 -680
l0 -670 -1140 0 -1140 0 0 670 c0 627 1 670 18 679 9 6 87 11 176 11 132 0
162 -3 177 -16z m445 -43 c42 -19 86 -68 99 -108 6 -23 5 -23 -92 -23 l-98 0
-49 -77 -48 -77 -24 27 c-65 76 -32 205 66 255 54 27 92 28 146 3z m132 -266
c-3 -42 -7 -78 -10 -80 -3 -3 -66 -4 -141 -3 l-136 3 49 78 50 77 96 0 97 0
-5 -75z m175 53 c11 -44 19 -268 11 -268 -5 0 -18 7 -28 15 -25 19 -60 19 -76
0 -32 -38 -36 -7 -23 178 l6 97 52 0 c47 0 53 -3 58 -22z m301 -51 c25 -41 46
-77 46 -80 0 -4 -61 -7 -135 -7 -100 0 -137 3 -140 13 -2 6 -6 42 -8 80 l-5
67 98 0 99 0 45 -73z m-484 -221 c0 -99 14 -111 74 -67 25 17 49 31 55 31 6 0
31 -14 55 -32 62 -43 76 -31 76 68 l0 74 150 0 150 0 0 -35 c0 -28 -5 -37 -29
-49 -75 -39 -141 -154 -141 -245 0 -87 54 -186 125 -229 40 -24 44 -31 45 -65
l0 -37 -432 2 -433 3 -3 328 -2 327 155 0 155 0 0 -74z m789 -69 c57 -38 91
-93 98 -159 7 -72 -9 -120 -60 -175 -85 -92 -215 -94 -307 -5 -74 72 -89 156
-46 248 40 87 106 125 207 121 53 -2 75 -8 108 -30z m194 -437 c48 -39 87 -77
87 -84 0 -22 -37 -49 -53 -39 -8 4 -47 44 -86 87 -54 61 -68 83 -60 93 7 7 14
13 18 13 3 0 46 -32 94 -70z m355 -477 l-3 -108 -1135 0 -1135 0 -3 108 -3
107 1141 0 1141 0 -3 -107z m-940 -270 l3 -92 89 -47 c93 -48 111 -72 71 -94
-27 -14 -695 -14 -722 0 -42 23 -23 48 71 95 l90 45 0 88 c0 49 3 92 7 96 4 3
93 5 197 4 l191 -3 3 -92z"/>
<path d="M833 1313 c-7 -2 -13 -16 -13 -29 l0 -24 165 0 c144 0 166 2 172 16
13 35 -23 44 -171 43 -78 0 -147 -3 -153 -6z"/>
<path d="M824 1165 c-4 -8 -4 -22 0 -30 5 -13 42 -15 250 -15 228 0 246 1 255
18 20 38 -2 42 -256 42 -207 0 -244 -2 -249 -15z"/>
<path d="M1785 1410 l-69 -70 -36 35 c-40 39 -52 42 -70 19 -11 -13 -5 -23 41
-70 29 -29 61 -54 69 -54 17 0 180 160 180 177 0 12 -22 33 -35 33 -6 0 -42
-31 -80 -70z"/>
</g>
</svg>
