<svg id="Layer_1" enable-background="new 0 0 512 512" viewBox="0 0 512 512" xmlns="http://www.w3.org/2000/svg"><path d="m503 11.222h-374.389c-4.418 0-8 3.582-8 8v15.672c-1.887 1.833-3.629 4.033-5.175 6.604l-64.251 106.873c-2.509-2.118-5.745-3.402-9.278-3.402h-26.498c-7.945 0-14.409 6.465-14.409 14.41v131.086c0 7.945 6.464 14.41 14.409 14.41h26.497c5.708 0 10.636-3.344 12.968-8.169l13.816 7.252c1.146.602 2.423.917 3.718.917h48.203v127.254h-65.083c-4.418 0-8 3.582-8 8v16.108c0 24.559 19.98 44.539 44.54 44.54h.001 374.389c24.561 0 44.542-19.981 44.542-44.541v-437.014c0-4.418-3.582-8-8-8zm-486 277.653v-127.906h23.315v123.352.022 4.532zm39.315-9.483v-108.503l72.834-121.147c2.5-4.16 5.073-5.837 7.657-4.992 5.1 1.673 11.483 11.317 10.207 25.074-.633 6.818-5.841 25.337-10.878 43.247-3.015 10.718-6.132 21.8-8.699 31.802-.617 2.401-.086 4.953 1.439 6.909 1.516 1.945 3.844 3.081 6.309 3.081h.04l66.908-.336c5.929 0 10.752 4.848 10.752 10.808s-4.823 10.808-10.752 10.808h-9.401-35.237c-4.418 0-8 3.582-8 8s3.582 8 8 8h35.237c5.929 0 10.752 4.848 10.752 10.808s-4.823 10.808-10.752 10.808h-9.401-35.237c-4.418 0-8 3.582-8 8s3.582 8 8 8h35.237c5.929 0 10.752 4.848 10.752 10.808s-4.823 10.808-10.752 10.808h-9.401-35.237c-4.418 0-8 3.582-8 8s3.582 8 8 8h35.237c5.929 0 10.752 4.823 10.752 10.751s-4.823 10.751-10.752 10.751h-99.549zm35.755 205.386c-15.738 0-28.542-12.803-28.542-28.541v-8.108h57.083v8.108c0 15.737-12.803 28.541-28.541 28.541zm402.93-28.541c0 15.737-12.804 28.541-28.542 28.541h-340.218c6.472-7.734 10.371-17.691 10.371-28.541v-151.362h37.317c14.751 0 26.752-12 26.752-26.751 0-5.239-1.514-10.131-4.127-14.261 8.074-4.62 13.528-13.333 13.528-23.298 0-5.258-1.519-10.167-4.139-14.311 8.08-4.618 13.54-13.334 13.54-23.305 0-5.258-1.519-10.167-4.139-14.311 8.08-4.618 13.54-13.334 13.54-23.305 0-14.782-12.001-26.808-26.792-26.808l-56.503.284c1.894-6.991 3.943-14.281 5.948-21.407 5.709-20.3 10.64-37.832 11.407-46.101 1.787-19.263-7.307-37.214-21.152-41.755-1.739-.57-3.47-.892-5.182-1.004v-1.321h358.391zm-259.058-143.755h-44.366c-4.418 0-8 3.582-8 8v44.367c0 4.418 3.582 8 8 8h44.366c4.418 0 8-3.582 8-8v-44.367c0-4.418-3.582-8-8-8zm-8 44.367h-28.366v-28.367h28.366zm50.228-37.95h152.508c4.418 0 8 3.582 8 8s-3.582 8-8 8h-152.508c-4.418 0-8-3.582-8-8s3.582-8 8-8zm160.508 39.533c0 4.418-3.582 8-8 8h-152.508c-4.418 0-8-3.582-8-8s3.582-8 8-8h152.508c4.418 0 8 3.582 8 8zm-202.736 39.04h-44.366c-4.418 0-8 3.582-8 8v44.366c0 4.418 3.582 8 8 8h44.366c4.418 0 8-3.582 8-8v-44.366c0-4.418-3.582-8-8-8zm-8 44.366h-28.366v-28.366h28.366zm210.736-29.949c0 4.418-3.582 8-8 8h-152.508c-4.418 0-8-3.582-8-8s3.582-8 8-8h152.508c4.418 0 8 3.582 8 8zm0 31.532c0 4.418-3.582 8-8 8h-152.508c-4.418 0-8-3.582-8-8s3.582-8 8-8h152.508c4.418 0 8 3.582 8 8zm-402.02-183.078v13.274c0 4.418-3.582 8-8 8s-8-3.582-8-8v-13.274c0-4.418 3.582-8 8-8s8 3.581 8 8zm198.266-94.072c2.73 8.404 8.905 15.004 16.527 17.682l-24.297 42.084c-1.934 3.348-1.748 7.554.473 10.717 2.222 3.162 6.115 4.763 9.921 4.083l22.348-4.008 7.704 21.362c1.313 3.636 4.649 6.205 8.499 6.546.291.026.581.039.871.039 3.532 0 6.858-1.895 8.642-4.987l20.917-36.228c2.922.959 6.055 1.474 9.276 1.474h.001c3.222 0 6.355-.516 9.277-1.475l20.915 36.226c1.785 3.095 5.111 4.989 8.644 4.989.29 0 .582-.013.874-.039 3.85-.342 7.185-2.913 8.496-6.55l7.703-21.358 22.35 4.008c3.807.683 7.698-.921 9.919-4.084 2.221-3.162 2.406-7.369.473-10.715l-24.297-42.085c7.623-2.678 13.797-9.278 16.529-17.682 2.742-8.441 1.607-17.454-3.037-24.11-.962-1.379-.962-2.961 0-4.34 4.645-6.656 5.779-15.669 3.036-24.111-2.742-8.44-8.958-15.065-16.627-17.72-1.589-.55-2.52-1.83-2.552-3.511-.154-8.114-4.533-16.073-11.713-21.29-7.181-5.217-16.105-6.923-23.87-4.563-1.607.49-3.112.001-4.128-1.34-4.895-6.474-13.115-10.339-21.99-10.339-.001 0 0 0-.001 0-8.875 0-17.097 3.865-21.991 10.337-1.016 1.342-2.521 1.829-4.129 1.342-7.768-2.361-16.688-.654-23.868 4.562-7.18 5.217-11.56 13.175-11.715 21.291-.032 1.681-.962 2.96-2.551 3.511-7.669 2.655-13.886 9.28-16.628 17.721-2.743 8.441-1.607 17.454 3.036 24.109.962 1.379.962 2.961 0 4.34-4.646 6.657-5.78 15.671-3.037 24.112zm43.321 74.277-5.59-15.5c-1.323-3.669-5.102-5.848-8.938-5.16l-16.218 2.909 11.816-20.466c1.777 2.42 3.959 4.616 6.501 6.463 7.18 5.216 16.1 6.921 23.868 4.562 1.417-.431 2.751-.101 3.742.898zm89.648-20.66c-3.838-.688-7.615 1.491-8.938 5.16l-5.59 15.499-15.182-26.295c.991-.998 2.324-1.327 3.742-.897 7.765 2.36 16.686.655 23.868-4.562 2.542-1.847 4.725-4.043 6.501-6.463l11.816 20.466zm-116.812-91.223c-1.791-2.568-2.143-6.31-.94-10.01 1.202-3.701 3.687-6.521 6.646-7.545 7.928-2.745 13.153-9.938 13.313-18.325.061-3.131 1.976-6.365 5.123-8.652 3.147-2.286 6.818-3.106 9.812-2.198 8.029 2.44 16.482-.309 21.543-7 1.889-2.498 5.339-3.989 9.229-3.988 3.891 0 7.341 1.491 9.229 3.988 5.059 6.691 13.512 9.438 21.543 7 2.995-.91 6.665-.088 9.813 2.199s5.062 5.521 5.122 8.651c.159 8.387 5.385 15.581 13.313 18.326 2.959 1.024 5.442 3.845 6.645 7.545 1.203 3.701.851 7.443-.94 10.011-4.801 6.88-4.801 15.771 0 22.651 1.791 2.568 2.144 6.31.941 10.01s-3.687 6.521-6.646 7.545c-7.929 2.745-13.154 9.938-13.313 18.325-.061 3.131-1.976 6.365-5.123 8.652-3.149 2.287-6.817 3.107-9.812 2.198-8.031-2.441-16.483.309-21.542 7-1.889 2.498-5.339 3.989-9.229 3.989-3.892 0-7.342-1.491-9.23-3.989-3.834-5.071-9.618-7.877-15.689-7.877-1.939 0-3.909.287-5.853.877-2.995.91-6.664.089-9.812-2.198-3.147-2.287-5.063-5.521-5.123-8.651-.159-8.388-5.385-15.582-13.313-18.326-2.959-1.024-5.442-3.845-6.645-7.545-1.203-3.701-.851-7.443.94-10.011 4.799-6.881 4.799-15.772-.002-22.652zm64.725 62.111c28.003 0 50.785-22.783 50.785-50.786s-22.782-50.786-50.785-50.786c-28.004 0-50.786 22.782-50.786 50.786s22.782 50.786 50.786 50.786zm0-85.571c19.181 0 34.785 15.605 34.785 34.786s-15.604 34.786-34.785 34.786c-19.182 0-34.786-15.605-34.786-34.786s15.604-34.786 34.786-34.786zm-24.247 38.708c-3.164-3.084-3.229-8.149-.145-11.313 3.083-3.163 8.147-3.229 11.313-.145l6.368 6.208 19.689-19.875c3.11-3.14 8.176-3.162 11.313-.053 3.14 3.109 3.163 8.175.054 11.313l-25.274 25.512c-1.564 1.578-3.623 2.37-5.684 2.37-2.015 0-4.029-.756-5.584-2.271z"/></svg>